<svg xmlns="http://www.w3.org/2000/svg" xmlns:xlink="http://www.w3.org/1999/xlink" width="1080" zoomAndPan="magnify" viewBox="0 0 810 1439.999935" height="1920" preserveAspectRatio="xMidYMid meet" version="1.0"><defs><clipPath id="53df265a42"><path d="M 0 1301 L 160.988281 1301 L 160.988281 1440 L 0 1440 Z M 0 1301 " clip-rule="nonzero"/></clipPath></defs><path fill="#181818" d="M 34.058594 1341.988281 L 40.632812 1328.128906 L 56.089844 1310.089844 L 81.261719 1306.320312 L 92.929688 1318.21875 L 98.875 1337.652344 L 95.304688 1378.09375 L 88.761719 1415.566406 L 103.457031 1431.03125 L 117.933594 1457.40625 L 140.292969 1456.019531 L 153.101562 1469.304688 L 156.15625 1487.742188 L 158.136719 1511.339844 L 151.199219 1543.757812 L 148.425781 1561.242188 L 142.476562 1578.75 L 135.9375 1595.601562 L 122.265625 1611.214844 L 105.21875 1615.050781 L 92.53125 1611.214844 L 82.222656 1597.921875 L 50.113281 1606.113281 L 27.515625 1608.292969 L -3.207031 1606.90625 L -12.527344 1600.515625 L -38.3125 1600.515625 L -57.996094 1597.921875 L -75.539062 1590.105469 L -87.625 1576.59375 L -86.4375 1561.253906 L -88.570312 1550.769531 L -93.3125 1526.671875 L -89.945312 1507.601562 L -94.738281 1483.65625 L -87.390625 1468.519531 L -94.738281 1449.347656 L -91.242188 1426.113281 L -66.53125 1407.382812 L -27.898438 1397.425781 L 11.921875 1402.402344 L 33.488281 1404.320312 L 33.488281 1365.121094 Z M 34.058594 1341.988281 " fill-opacity="1" fill-rule="nonzero"/><g clip-path="url(#53df265a42)"><path fill="#b15cff" d="M 160.359375 1498.324219 C 160.125 1477.574219 154.546875 1463.027344 143.75 1455.09375 C 136.761719 1449.941406 128.980469 1448.636719 122.882812 1448.632812 C 121.792969 1448.628906 120.722656 1448.46875 119.671875 1448.160156 C 118.625 1447.847656 117.644531 1447.394531 116.726562 1446.800781 C 115.808594 1446.207031 114.992188 1445.496094 114.277344 1444.667969 C 113.5625 1443.839844 112.980469 1442.929688 112.527344 1441.933594 C 107.128906 1430.035156 101.234375 1422.546875 97.34375 1418.429688 C 96.695312 1417.757812 96.140625 1417.015625 95.671875 1416.207031 C 95.203125 1415.398438 94.839844 1414.546875 94.574219 1413.652344 C 94.308594 1412.757812 94.15625 1411.84375 94.109375 1410.910156 C 94.066406 1409.976562 94.132812 1409.054688 94.308594 1408.136719 C 95.796875 1400.59375 97.4375 1391.566406 98.835938 1382.164062 C 103.757812 1349.027344 103.398438 1327.09375 97.757812 1316.984375 C 91.425781 1305.566406 78.910156 1299.8125 65.941406 1302.304688 C 47.589844 1305.8125 34.523438 1323.890625 30.992188 1350.675781 C 29.023438 1365.585938 28.597656 1378.871094 29.714844 1390.539062 C 29.753906 1390.90625 29.769531 1391.277344 29.761719 1391.648438 C 29.757812 1392.019531 29.726562 1392.390625 29.675781 1392.757812 C 29.621094 1393.125 29.546875 1393.488281 29.449219 1393.847656 C 29.351562 1394.207031 29.234375 1394.558594 29.089844 1394.902344 C 28.949219 1395.246094 28.789062 1395.578125 28.605469 1395.902344 C 28.421875 1396.226562 28.21875 1396.535156 28 1396.832031 C 27.777344 1397.132812 27.539062 1397.414062 27.28125 1397.683594 C 27.023438 1397.953125 26.75 1398.203125 26.460938 1398.4375 C 26.175781 1398.671875 25.871094 1398.886719 25.558594 1399.085938 C 25.242188 1399.28125 24.917969 1399.457031 24.578125 1399.613281 C 24.242188 1399.769531 23.898438 1399.90625 23.542969 1400.019531 C 23.1875 1400.132812 22.828125 1400.222656 22.464844 1400.289062 C 22.097656 1400.359375 21.730469 1400.402344 21.359375 1400.425781 C 20.988281 1400.449219 20.617188 1400.449219 20.246094 1400.425781 C 19.878906 1400.398438 19.507812 1400.351562 19.144531 1400.285156 C 18.78125 1400.214844 18.421875 1400.121094 18.066406 1400.007812 C -5.539062 1392.339844 -45.664062 1385.589844 -80.605469 1410.773438 C -92.890625 1419.621094 -99.726562 1433.871094 -98.5 1447.953125 C -98.210938 1451.476562 -97.421875 1454.886719 -96.136719 1458.179688 C -95.4375 1459.941406 -95.054688 1461.773438 -94.984375 1463.667969 C -94.914062 1465.5625 -95.164062 1467.417969 -95.726562 1469.226562 C -98.640625 1478.527344 -101.394531 1494.519531 -92.722656 1508.574219 C -92.582031 1508.789062 -92.417969 1508.996094 -92.277344 1509.210938 C -94.808594 1514.917969 -101.035156 1531.921875 -93.984375 1547.402344 C -93.515625 1548.425781 -92.992188 1549.421875 -92.417969 1550.390625 C -91.3125 1552.261719 -90.605469 1554.273438 -90.292969 1556.425781 C -89.976562 1558.574219 -90.085938 1560.707031 -90.609375 1562.8125 C -91.179688 1565.082031 -91.4375 1567.386719 -91.394531 1569.726562 C -91.347656 1572.066406 -90.992188 1574.359375 -90.335938 1576.605469 C -87.34375 1586.664062 -78.195312 1594.796875 -63.253906 1600.777344 C -55.535156 1603.808594 -47.53125 1605.300781 -39.238281 1605.253906 C -36.699219 1605.25 -34.164062 1605.109375 -31.636719 1604.835938 C -29.015625 1604.609375 -26.488281 1605 -24.058594 1606.007812 C -17.460938 1608.601562 -4.019531 1612.21875 19.652344 1612.21875 C 27.746094 1612.21875 37.039062 1611.789062 47.660156 1610.761719 C 54.589844 1610.113281 61.371094 1608.726562 68 1606.59375 C 69.410156 1606.152344 70.851562 1605.886719 72.328125 1605.796875 C 73.800781 1605.710938 75.265625 1605.796875 76.71875 1606.066406 C 78.171875 1606.332031 79.574219 1606.769531 80.917969 1607.378906 C 82.265625 1607.988281 83.519531 1608.746094 84.679688 1609.660156 C 92.40625 1615.554688 99.921875 1618.539062 107.160156 1618.539062 C 110.722656 1618.53125 114.148438 1617.847656 117.441406 1616.488281 C 147.5 1604.183594 160.832031 1538.703125 160.359375 1498.324219 Z M -91.242188 1487.050781 C -91.242188 1479.59375 -83.519531 1474.410156 -76.714844 1477.464844 C -70.371094 1480.308594 -62.277344 1482.378906 -51.996094 1483.261719 C -46.667969 1483.722656 -41.710938 1483.898438 -37.097656 1483.898438 C -17.292969 1483.898438 -3.878906 1480.066406 5.1875 1475.394531 C 6.6875 1474.59375 8.277344 1474.066406 9.957031 1473.8125 C 11.636719 1473.558594 13.3125 1473.59375 14.980469 1473.917969 C 16.777344 1474.273438 18.414062 1475 19.886719 1476.089844 C 23.929688 1479.152344 26.027344 1485.039062 26.109375 1493.535156 C 26.367188 1520.867188 -20.128906 1526.34375 -23.195312 1526.671875 C -56.238281 1526.671875 -77.558594 1519.285156 -86.5 1504.789062 C -90.039062 1499.097656 -91.234375 1492.859375 -91.242188 1487.050781 Z M -89.90625 1530 C -89.625 1523.75 -82.765625 1519.863281 -77.347656 1522.96875 C -64.699219 1530.253906 -46.535156 1533.941406 -23.011719 1533.941406 L -22.671875 1533.941406 C -21.433594 1533.828125 -5.105469 1532.171875 9.609375 1525.207031 C 15.480469 1522.433594 21.898438 1528.25 19.222656 1534.152344 L 19.144531 1534.320312 C 11.019531 1551.945312 -23.492188 1572.152344 -59.03125 1563.632812 C -73.566406 1560.164062 -83.082031 1553.695312 -87.324219 1544.421875 C -89.347656 1539.820312 -90.210938 1535.007812 -89.90625 1529.988281 Z M -27.664062 1596.875 L -28.015625 1596.933594 C -38.652344 1598.765625 -50.15625 1598.210938 -60.597656 1594.023438 C -73.375 1588.914062 -81.039062 1582.402344 -83.382812 1574.605469 C -84.980469 1569.320312 -83.753906 1564.378906 -82.476562 1561.242188 C -76.804688 1565.414062 -69.578125 1568.597656 -60.753906 1570.707031 C -54.496094 1572.199219 -48.152344 1572.941406 -41.71875 1572.941406 C -35.425781 1572.921875 -29.210938 1572.222656 -23.070312 1570.851562 C -16.929688 1569.480469 -11.007812 1567.464844 -5.300781 1564.808594 C 2.6875 1561.101562 10.859375 1570.328125 6.105469 1577.75 L 5.980469 1577.945312 C 0.0507812 1586.988281 -12.929688 1594.261719 -27.664062 1596.875 Z M 143.351562 1566.023438 C 136.082031 1589.632812 125.894531 1605.164062 114.664062 1609.75 C 112.6875 1610.554688 110.636719 1611.03125 108.511719 1611.175781 C 106.382812 1611.320312 104.289062 1611.128906 102.222656 1610.601562 C 92.753906 1608.34375 90.023438 1596.132812 97.054688 1589.398438 C 106.988281 1579.890625 114.496094 1567.371094 119.324219 1552.019531 C 119.453125 1551.566406 119.488281 1551.105469 119.433594 1550.636719 C 119.378906 1550.167969 119.242188 1549.726562 119.015625 1549.3125 C 118.789062 1548.898438 118.496094 1548.542969 118.132812 1548.242188 C 117.769531 1547.945312 117.363281 1547.722656 116.914062 1547.582031 C 116.464844 1547.441406 116.003906 1547.390625 115.535156 1547.425781 C 115.0625 1547.464844 114.617188 1547.589844 114.195312 1547.796875 C 113.777344 1548.007812 113.410156 1548.292969 113.097656 1548.644531 C 112.785156 1549 112.550781 1549.398438 112.394531 1549.84375 C 105.367188 1572.105469 88.347656 1599.496094 46.929688 1603.519531 C 27.042969 1605.4375 12.085938 1605.175781 1.105469 1604.050781 C -3.757812 1603.546875 -5.320312 1597.109375 -1.195312 1594.464844 C 4.394531 1590.898438 8.980469 1586.617188 12.054688 1581.921875 C 16.1875 1575.609375 17.203125 1569.039062 15.171875 1562.910156 C 14.765625 1561.601562 14.535156 1560.257812 14.484375 1558.886719 C 14.429688 1557.515625 14.558594 1556.164062 14.867188 1554.824219 C 15.171875 1553.488281 15.648438 1552.214844 16.296875 1551.003906 C 16.941406 1549.792969 17.734375 1548.6875 18.671875 1547.6875 C 21.554688 1544.601562 23.910156 1541.15625 25.746094 1537.355469 C 29.578125 1529.113281 28.714844 1521.507812 23.664062 1515.832031 C 29.503906 1510.222656 33.464844 1502.9375 33.375 1493.464844 C 33.40625 1488.976562 32.714844 1484.605469 31.296875 1480.347656 C 32.75 1478.457031 34.367188 1476.71875 36.148438 1475.132812 C 37.929688 1473.542969 39.84375 1472.140625 41.890625 1470.914062 C 43.933594 1469.6875 46.078125 1468.667969 48.316406 1467.84375 C 50.554688 1467.023438 52.851562 1466.421875 55.203125 1466.03125 C 56.375 1465.867188 57.46875 1465.476562 58.480469 1464.863281 C 59.492188 1464.25 60.339844 1463.460938 61.03125 1462.5 C 61.4375 1461.902344 61.757812 1461.261719 61.992188 1460.578125 C 62.226562 1459.898438 62.367188 1459.195312 62.414062 1458.476562 C 62.457031 1457.753906 62.410156 1457.039062 62.265625 1456.332031 C 62.121094 1455.625 61.886719 1454.949219 61.558594 1454.304688 L 56.78125 1444.722656 C 56.566406 1444.289062 56.277344 1443.914062 55.910156 1443.601562 C 55.546875 1443.285156 55.136719 1443.050781 54.679688 1442.898438 C 54.222656 1442.746094 53.753906 1442.683594 53.273438 1442.71875 C 52.792969 1442.753906 52.335938 1442.878906 51.902344 1443.09375 C 51.472656 1443.308594 51.097656 1443.601562 50.785156 1443.964844 C 50.46875 1444.328125 50.234375 1444.738281 50.082031 1445.195312 C 49.929688 1445.65625 49.871094 1446.125 49.902344 1446.605469 C 49.9375 1447.085938 50.0625 1447.542969 50.277344 1447.972656 L 55.0625 1457.558594 C 55.125 1457.679688 55.160156 1457.8125 55.160156 1457.949219 C 55.160156 1458.089844 55.125 1458.21875 55.0625 1458.339844 C 55 1458.464844 54.910156 1458.566406 54.796875 1458.644531 C 54.6875 1458.722656 54.5625 1458.773438 54.425781 1458.792969 C 50.070312 1459.5 45.90625 1460.804688 41.929688 1462.710938 C 37.953125 1464.617188 34.328125 1467.042969 31.046875 1469.996094 C 30.59375 1470.410156 30.085938 1470.734375 29.515625 1470.972656 C 28.949219 1471.210938 28.359375 1471.34375 27.742188 1471.371094 C 27.128906 1471.402344 26.527344 1471.328125 25.941406 1471.144531 C 25.351562 1470.964844 24.8125 1470.691406 24.320312 1470.320312 L 24.289062 1470.289062 C 23.535156 1469.722656 22.742188 1469.214844 21.914062 1468.769531 C 21.660156 1468.625 21.421875 1468.460938 21.203125 1468.269531 C 20.984375 1468.078125 20.789062 1467.863281 20.613281 1467.632812 C 20.4375 1467.398438 20.292969 1467.148438 20.167969 1466.886719 C 20.046875 1466.621094 19.953125 1466.347656 19.890625 1466.0625 C 19.828125 1465.78125 19.792969 1465.492188 19.789062 1465.203125 C 19.785156 1464.910156 19.8125 1464.625 19.871094 1464.339844 C 19.929688 1464.054688 20.015625 1463.777344 20.132812 1463.511719 C 20.246094 1463.242188 20.390625 1462.992188 20.558594 1462.753906 L 20.558594 1462.714844 C 24.984375 1456.410156 26.308594 1449.386719 23.988281 1444.382812 C 16.738281 1428.65625 -2.753906 1423.324219 -33.941406 1428.527344 C -34.410156 1428.617188 -34.839844 1428.792969 -35.238281 1429.050781 C -35.632812 1429.308594 -35.96875 1429.632812 -36.238281 1430.023438 C -36.507812 1430.414062 -36.695312 1430.839844 -36.800781 1431.300781 C -36.902344 1431.765625 -36.914062 1432.230469 -36.835938 1432.699219 C -36.757812 1433.167969 -36.59375 1433.601562 -36.347656 1434.003906 C -36.097656 1434.410156 -35.78125 1434.75 -35.398438 1435.03125 C -35.015625 1435.3125 -34.597656 1435.507812 -34.136719 1435.625 C -33.675781 1435.738281 -33.210938 1435.765625 -32.742188 1435.699219 C -5.1875 1431.097656 11.679688 1435.058594 17.390625 1447.425781 C 18.378906 1449.578125 17.90625 1453.8125 14.609375 1458.542969 C 10.011719 1465.101562 -5.671875 1479.917969 -51.378906 1475.996094 C -76.382812 1473.847656 -89.804688 1464.199219 -91.269531 1447.320312 C -92.269531 1435.773438 -86.554688 1424.027344 -76.351562 1416.648438 C -26.953125 1381.046875 34.320312 1414.410156 34.9375 1414.730469 C 35.015625 1414.777344 35.105469 1414.777344 35.1875 1414.8125 C 36.511719 1418.230469 38.136719 1421.5 40.0625 1424.617188 C 40.292969 1424.988281 40.484375 1425.257812 40.597656 1425.503906 C 40.84375 1425.898438 41.152344 1426.234375 41.523438 1426.511719 C 41.894531 1426.789062 42.304688 1426.988281 42.753906 1427.105469 C 43.199219 1427.226562 43.652344 1427.257812 44.113281 1427.207031 C 44.574219 1427.152344 45.007812 1427.015625 45.417969 1426.792969 C 45.824219 1426.574219 46.175781 1426.289062 46.476562 1425.933594 C 46.773438 1425.578125 46.996094 1425.179688 47.140625 1424.738281 C 47.289062 1424.300781 47.347656 1423.847656 47.320312 1423.386719 C 47.292969 1422.921875 47.183594 1422.480469 46.988281 1422.0625 C 46.816406 1421.742188 46.554688 1421.308594 46.214844 1420.78125 C 36.8125 1405.703125 34.078125 1382.441406 38.179688 1351.59375 C 41.28125 1328.070312 52.164062 1312.300781 67.285156 1309.417969 C 77.140625 1307.539062 86.609375 1311.890625 91.421875 1320.511719 C 101.21875 1338.066406 88.597656 1403.074219 82.90625 1426.644531 C 82.792969 1427.109375 82.773438 1427.582031 82.847656 1428.058594 C 82.921875 1428.535156 83.082031 1428.980469 83.335938 1429.390625 C 83.585938 1429.800781 83.90625 1430.148438 84.292969 1430.433594 C 84.683594 1430.71875 85.113281 1430.914062 85.582031 1431.027344 C 86.050781 1431.140625 86.519531 1431.160156 86.996094 1431.085938 C 87.472656 1431.011719 87.917969 1430.847656 88.328125 1430.597656 C 88.738281 1430.347656 89.085938 1430.027344 89.371094 1429.636719 C 89.652344 1429.246094 89.851562 1428.816406 89.964844 1428.347656 C 89.964844 1428.285156 90.488281 1426.183594 91.28125 1422.628906 C 97.554688 1429.019531 113.441406 1449.117188 117.34375 1491.121094 C 117.539062 1493.152344 117.691406 1495.183594 117.816406 1497.210938 C 117.847656 1497.671875 117.957031 1498.113281 118.152344 1498.53125 C 118.351562 1498.949219 118.617188 1499.320312 118.953125 1499.636719 C 119.289062 1499.953125 119.671875 1500.195312 120.101562 1500.367188 C 120.53125 1500.539062 120.976562 1500.625 121.441406 1500.625 L 121.671875 1500.625 C 122.148438 1500.59375 122.605469 1500.472656 123.035156 1500.261719 C 123.46875 1500.050781 123.839844 1499.765625 124.160156 1499.40625 C 124.476562 1499.046875 124.714844 1498.640625 124.875 1498.1875 C 125.03125 1497.734375 125.097656 1497.269531 125.070312 1496.789062 C 124.941406 1494.683594 124.78125 1492.578125 124.582031 1490.46875 C 124.417969 1488.71875 124.238281 1487 124.035156 1485.320312 C 122.992188 1476.648438 127.121094 1467.886719 135.015625 1464.152344 L 135.335938 1464.007812 C 135.746094 1463.828125 136.167969 1463.683594 136.601562 1463.574219 C 137.039062 1463.464844 137.480469 1463.394531 137.925781 1463.363281 C 138.371094 1463.328125 138.820312 1463.332031 139.265625 1463.375 C 139.710938 1463.417969 140.148438 1463.496094 140.582031 1463.613281 C 141.015625 1463.730469 141.433594 1463.882812 141.839844 1464.070312 C 142.25 1464.257812 142.636719 1464.480469 143.003906 1464.734375 C 143.375 1464.988281 143.71875 1465.269531 144.039062 1465.582031 C 144.363281 1465.894531 144.65625 1466.234375 144.917969 1466.59375 C 150.164062 1473.734375 152.917969 1484.367188 153.082031 1498.414062 C 153.351562 1520.125 149.703125 1545.40625 143.351562 1566.023438 Z M 125.394531 1529.65625 C 125.480469 1530.128906 125.472656 1530.601562 125.375 1531.070312 C 125.273438 1531.542969 125.085938 1531.976562 124.808594 1532.371094 C 124.535156 1532.769531 124.199219 1533.097656 123.792969 1533.359375 C 123.386719 1533.617188 122.949219 1533.792969 122.476562 1533.878906 C 119.242188 1534.46875 115.984375 1534.765625 112.699219 1534.765625 C 91.421875 1534.765625 76.214844 1522.421875 75.492188 1521.828125 C 75.121094 1521.519531 74.824219 1521.152344 74.597656 1520.726562 C 74.375 1520.300781 74.238281 1519.847656 74.191406 1519.371094 C 74.144531 1518.890625 74.195312 1518.421875 74.335938 1517.960938 C 74.476562 1517.5 74.699219 1517.082031 75.007812 1516.710938 C 75.3125 1516.339844 75.679688 1516.039062 76.101562 1515.816406 C 76.527344 1515.589844 76.980469 1515.453125 77.460938 1515.40625 C 77.941406 1515.359375 78.410156 1515.40625 78.871094 1515.546875 C 79.332031 1515.6875 79.746094 1515.910156 80.121094 1516.214844 C 80.296875 1516.363281 98.320312 1530.914062 121.171875 1526.734375 C 121.644531 1526.648438 122.117188 1526.652344 122.589844 1526.753906 C 123.058594 1526.855469 123.492188 1527.042969 123.890625 1527.316406 C 124.285156 1527.589844 124.613281 1527.929688 124.875 1528.335938 C 125.136719 1528.742188 125.308594 1529.179688 125.394531 1529.65625 Z M 125.394531 1529.65625 " fill-opacity="1" fill-rule="nonzero"/></g></svg>