<svg xmlns="http://www.w3.org/2000/svg" xmlns:xlink="http://www.w3.org/1999/xlink" width="1080" zoomAndPan="magnify" viewBox="0 0 810 1439.999935" height="1920" preserveAspectRatio="xMidYMid meet" version="1.0"><defs><clipPath id="77492c8a01"><path d="M 24 991 L 424 991 L 424 1374.214844 L 24 1374.214844 Z M 24 991 " clip-rule="nonzero"/></clipPath><clipPath id="27723788e4"><path d="M 0 986 L 337 986 L 337 1440 L 0 1440 Z M 0 986 " clip-rule="nonzero"/></clipPath><clipPath id="15782f74ce"><path d="M -248.171875 1186.386719 L 26.546875 890.851562 L 385.253906 1224.292969 L 110.535156 1519.828125 Z M -248.171875 1186.386719 " clip-rule="nonzero"/></clipPath><clipPath id="4f2766913d"><path d="M -248.171875 1186.386719 L 26.546875 890.851562 L 385.253906 1224.292969 L 110.535156 1519.828125 Z M -248.171875 1186.386719 " clip-rule="nonzero"/></clipPath><clipPath id="791e0c2158"><path d="M 0 978 L 341 978 L 341 1440 L 0 1440 Z M 0 978 " clip-rule="nonzero"/></clipPath><clipPath id="d6efb8ab10"><path d="M -248.171875 1186.386719 L 26.546875 890.851562 L 385.253906 1224.292969 L 110.535156 1519.828125 Z M -248.171875 1186.386719 " clip-rule="nonzero"/></clipPath><clipPath id="5308615f25"><path d="M -248.171875 1186.386719 L 26.546875 890.851562 L 385.253906 1224.292969 L 110.535156 1519.828125 Z M -248.171875 1186.386719 " clip-rule="nonzero"/></clipPath><clipPath id="f1bdc8cc9d"><path d="M 0 1301 L 160.988281 1301 L 160.988281 1440 L 0 1440 Z M 0 1301 " clip-rule="nonzero"/></clipPath></defs><path fill="#181818" d="M 67.507812 1214.574219 L 56.886719 1164.886719 L 59.289062 1109.4375 L 65.121094 1038.867188 L 72.558594 1007.300781 L 95.109375 996.15625 L 109.445312 1003.054688 L 123.511719 1011.582031 L 128.628906 1039.402344 L 126.433594 1056.914062 L 127.171875 1079.710938 L 133.957031 1079.710938 L 155.046875 1069.105469 L 186.5625 1016.949219 L 209.117188 1006.046875 L 236.511719 1013.308594 L 244.714844 1032.9375 L 252.507812 1040.449219 L 264.632812 1040.449219 L 281.359375 1046.992188 L 294.0625 1069.105469 L 298.816406 1089.40625 L 305.851562 1089.40625 L 319.457031 1095.703125 L 331.515625 1101.757812 L 333.917969 1116.058594 L 332.460938 1143.683594 L 314.820312 1175.433594 L 330.027344 1168.886719 L 345.609375 1159.191406 L 388.523438 1145.152344 L 406.21875 1145.152344 L 418.582031 1156.28125 L 412.550781 1173.976562 L 385.136719 1208.894531 L 343.664062 1239.105469 L 324.3125 1252.25 L 303.425781 1275.023438 L 274.332031 1294.167969 L 246.683594 1313.308594 L 249.882812 1325.1875 L 249.882812 1338.785156 L 245.273438 1353.328125 L 232.429688 1367.144531 L 208.667969 1369.082031 L 175.421875 1366.289062 L 125.800781 1351.777344 L 76.421875 1324.925781 L 38.953125 1288.957031 L 28.78125 1262.5625 L 35.566406 1235.585938 L 61.808594 1227.269531 Z M 67.507812 1214.574219 " fill-opacity="1" fill-rule="nonzero"/><g clip-path="url(#77492c8a01)"><path fill="#b15cff" d="M 197.421875 1211.988281 C 198.039062 1213.332031 212.355469 1245.492188 185.3125 1295.519531 C 185.148438 1295.824219 184.957031 1296.109375 184.734375 1296.375 C 184.515625 1296.644531 184.269531 1296.886719 184 1297.105469 C 183.730469 1297.324219 183.441406 1297.515625 183.136719 1297.679688 C 182.828125 1297.839844 182.511719 1297.972656 182.179688 1298.070312 C 181.84375 1298.167969 181.507812 1298.234375 181.160156 1298.269531 C 180.816406 1298.300781 180.472656 1298.300781 180.125 1298.265625 C 179.78125 1298.230469 179.441406 1298.160156 179.109375 1298.058594 C 178.777344 1297.957031 178.460938 1297.824219 178.15625 1297.65625 C 177.851562 1297.492188 177.5625 1297.300781 177.296875 1297.078125 C 177.027344 1296.859375 176.785156 1296.613281 176.566406 1296.34375 C 176.347656 1296.074219 176.15625 1295.789062 175.996094 1295.480469 C 175.832031 1295.175781 175.703125 1294.855469 175.601562 1294.523438 C 175.503906 1294.191406 175.4375 1293.851562 175.402344 1293.507812 C 175.371094 1293.164062 175.371094 1292.816406 175.40625 1292.472656 C 175.445312 1292.128906 175.511719 1291.789062 175.613281 1291.457031 C 175.714844 1291.125 175.851562 1290.808594 176.015625 1290.503906 C 200.359375 1245.464844 187.9375 1216.683594 187.8125 1216.398438 C 187.6875 1216.085938 187.589844 1215.761719 187.527344 1215.433594 C 187.460938 1215.101562 187.429688 1214.769531 187.429688 1214.433594 C 187.429688 1214.097656 187.460938 1213.761719 187.523438 1213.433594 C 187.585938 1213.101562 187.679688 1212.78125 187.804688 1212.46875 C 187.929688 1212.15625 188.082031 1211.859375 188.265625 1211.574219 C 188.445312 1211.289062 188.652344 1211.027344 188.882812 1210.785156 C 189.117188 1210.539062 189.367188 1210.320312 189.644531 1210.125 C 189.917969 1209.929688 190.207031 1209.761719 190.511719 1209.621094 C 190.816406 1209.480469 191.132812 1209.371094 191.460938 1209.289062 C 191.789062 1209.210938 192.121094 1209.160156 192.457031 1209.144531 C 192.792969 1209.128906 193.128906 1209.140625 193.460938 1209.191406 C 193.792969 1209.238281 194.121094 1209.316406 194.4375 1209.425781 C 194.757812 1209.535156 195.0625 1209.671875 195.351562 1209.839844 C 195.644531 1210.007812 195.917969 1210.199219 196.171875 1210.417969 C 196.429688 1210.640625 196.660156 1210.882812 196.871094 1211.144531 C 197.078125 1211.410156 197.261719 1211.691406 197.414062 1211.988281 Z M 210.628906 1214.882812 C 210.300781 1214.996094 209.984375 1215.136719 209.683594 1215.308594 C 209.382812 1215.480469 209.101562 1215.683594 208.839844 1215.910156 C 208.578125 1216.136719 208.34375 1216.390625 208.128906 1216.664062 C 207.917969 1216.9375 207.734375 1217.230469 207.578125 1217.539062 C 207.425781 1217.851562 207.300781 1218.171875 207.210938 1218.507812 C 207.121094 1218.84375 207.0625 1219.183594 207.039062 1219.527344 C 207.015625 1219.875 207.023438 1220.21875 207.066406 1220.5625 C 207.113281 1220.90625 207.1875 1221.242188 207.300781 1221.570312 C 207.363281 1221.765625 213.703125 1241.074219 205.171875 1255.753906 C 204.996094 1256.054688 204.855469 1256.367188 204.742188 1256.695312 C 204.632812 1257.019531 204.554688 1257.355469 204.507812 1257.699219 C 204.460938 1258.042969 204.449219 1258.386719 204.472656 1258.730469 C 204.496094 1259.078125 204.550781 1259.417969 204.640625 1259.75 C 204.730469 1260.085938 204.851562 1260.40625 205.003906 1260.71875 C 205.15625 1261.027344 205.335938 1261.320312 205.546875 1261.59375 C 205.757812 1261.871094 205.992188 1262.121094 206.253906 1262.351562 C 206.511719 1262.578125 206.792969 1262.78125 207.089844 1262.953125 C 207.910156 1263.433594 208.792969 1263.671875 209.738281 1263.671875 C 210.683594 1263.671875 211.566406 1263.4375 212.382812 1262.964844 C 213.199219 1262.492188 213.84375 1261.851562 214.316406 1261.03125 C 225.203125 1242.273438 217.648438 1219.171875 217.328125 1218.195312 C 217.21875 1217.867188 217.078125 1217.554688 216.90625 1217.253906 C 216.734375 1216.957031 216.535156 1216.675781 216.308594 1216.414062 C 216.082031 1216.152344 215.832031 1215.914062 215.558594 1215.703125 C 215.285156 1215.492188 214.996094 1215.308594 214.6875 1215.152344 C 214.378906 1214.996094 214.058594 1214.871094 213.726562 1214.78125 C 213.390625 1214.6875 213.054688 1214.628906 212.707031 1214.601562 C 212.363281 1214.574219 212.019531 1214.582031 211.675781 1214.625 C 211.332031 1214.664062 210.996094 1214.738281 210.667969 1214.84375 Z M 422.625 1163.609375 C 416.839844 1192.941406 357.871094 1238.484375 329.925781 1252.5625 C 327.453125 1253.789062 325.316406 1255.449219 323.523438 1257.546875 C 311.167969 1271.929688 297.355469 1284.742188 282.082031 1295.980469 C 277.671875 1299.183594 273.273438 1302.113281 268.875 1304.78125 C 260.304688 1309.972656 255.902344 1319.667969 256.949219 1329.636719 C 257.054688 1330.636719 257.117188 1331.667969 257.136719 1332.714844 C 257.351562 1346.3125 250.09375 1360.265625 239.070312 1367.464844 C 231.707031 1372.265625 223.066406 1374.183594 212.484375 1374.183594 C 198.296875 1374.183594 180.585938 1370.769531 157.671875 1366.34375 L 151.933594 1365.242188 C 112.292969 1357.578125 18.792969 1305.535156 25.320312 1255.304688 C 27.867188 1235.691406 37.261719 1225.898438 46.8125 1221.058594 C 54.925781 1216.949219 58.855469 1207.675781 56.796875 1198.820312 C 52.203125 1179.046875 49.933594 1155.015625 51.996094 1126.027344 L 52.355469 1120.949219 C 58.550781 1032.609375 61.382812 992.300781 99.617188 991.207031 C 110.253906 990.949219 119.222656 996.804688 125.675781 1008.148438 C 134.78125 1024.148438 137.023438 1046.179688 134.574219 1067.601562 C 134.550781 1067.816406 134.539062 1068.03125 134.539062 1068.246094 C 134.542969 1068.460938 134.558594 1068.675781 134.585938 1068.890625 C 134.617188 1069.105469 134.65625 1069.316406 134.710938 1069.523438 C 134.769531 1069.734375 134.835938 1069.9375 134.914062 1070.136719 C 134.996094 1070.339844 135.089844 1070.53125 135.191406 1070.722656 C 135.296875 1070.910156 135.414062 1071.09375 135.539062 1071.265625 C 135.667969 1071.441406 135.804688 1071.609375 135.953125 1071.765625 C 136.097656 1071.921875 136.253906 1072.070312 136.421875 1072.207031 C 136.585938 1072.347656 136.761719 1072.476562 136.941406 1072.589844 C 137.125 1072.707031 137.3125 1072.8125 137.507812 1072.90625 C 137.699219 1073 137.902344 1073.082031 138.105469 1073.152344 C 138.308594 1073.21875 138.519531 1073.273438 138.730469 1073.316406 C 138.941406 1073.363281 139.15625 1073.390625 139.371094 1073.40625 C 139.585938 1073.425781 139.800781 1073.429688 140.015625 1073.417969 C 140.230469 1073.40625 140.445312 1073.382812 140.660156 1073.347656 C 140.871094 1073.3125 141.082031 1073.261719 141.289062 1073.199219 L 141.457031 1073.144531 C 142.582031 1072.800781 143.652344 1072.332031 144.667969 1071.730469 C 145.679688 1071.132812 146.609375 1070.425781 147.453125 1069.605469 C 148.296875 1068.785156 149.035156 1067.875 149.660156 1066.878906 C 150.289062 1065.882812 150.789062 1064.828125 151.164062 1063.710938 C 159.664062 1038.699219 176.046875 1014.484375 198.992188 1003.71875 C 201.589844 1002.511719 204.304688 1001.707031 207.140625 1001.296875 C 209.972656 1000.890625 212.804688 1000.894531 215.636719 1001.316406 C 225.113281 1002.660156 237.953125 1006.636719 245.3125 1017.933594 C 245.714844 1018.554688 246.113281 1019.1875 246.449219 1019.84375 C 250.269531 1026.78125 257.117188 1031.402344 264.785156 1033.378906 C 283.5625 1038.21875 295.65625 1050.800781 301.511719 1071.542969 L 301.511719 1071.625 C 301.953125 1073.160156 302.566406 1074.621094 303.355469 1076.011719 C 304.144531 1077.402344 305.082031 1078.679688 306.175781 1079.847656 C 307.269531 1081.011719 308.484375 1082.035156 309.816406 1082.914062 C 311.152344 1083.789062 312.574219 1084.5 314.078125 1085.039062 C 321.28125 1087.695312 328.921875 1092.0625 334.199219 1099.253906 C 340.808594 1108.261719 342.320312 1119.707031 338.703125 1133.273438 C 335.625 1144.820312 331.070312 1155.753906 325.042969 1166.074219 L 325.738281 1165.847656 C 331.199219 1164.097656 336.328125 1161.648438 341.121094 1158.496094 C 361.359375 1145.25 398.238281 1125.933594 417.792969 1145.488281 C 420.976562 1148.699219 424.425781 1154.441406 422.625 1163.570312 Z M 325.5 1105.246094 C 316.511719 1093.351562 297.816406 1095.453125 291.085938 1108.765625 C 283.789062 1123.203125 275.050781 1136.707031 264.867188 1149.273438 L 264.1875 1150.074219 C 262.738281 1151.742188 261.535156 1153.570312 260.578125 1155.554688 C 259.621094 1157.542969 258.9375 1159.625 258.535156 1161.792969 C 257.398438 1168.59375 258.214844 1175.855469 261.007812 1181.617188 C 262.953125 1185.613281 266.777344 1190.765625 273.972656 1192.46875 C 290.46875 1196.382812 317.886719 1170.167969 328.46875 1130.539062 C 331.21875 1120.234375 330.285156 1111.820312 325.683594 1105.523438 Z M 211.851562 1115.867188 C 208.015625 1119.65625 205 1124.007812 202.800781 1128.929688 C 199.046875 1137.339844 195.855469 1148.496094 199.601562 1156.128906 C 202.578125 1162.242188 210.003906 1165.847656 221.730469 1166.839844 C 230.714844 1167.640625 243.394531 1158.730469 256.765625 1142.53125 C 272.574219 1123.402344 285.042969 1099.332031 289.628906 1085.136719 C 289.699219 1084.785156 289.804688 1084.449219 289.949219 1084.125 C 291.324219 1079.625 291.859375 1076.191406 291.355469 1074.398438 C 288.15625 1063.199219 282.378906 1050.714844 266.371094 1044.9375 C 265.914062 1044.777344 265.449219 1044.640625 264.980469 1044.527344 C 264.507812 1044.417969 264.035156 1044.328125 263.554688 1044.265625 C 263.074219 1044.203125 262.59375 1044.164062 262.109375 1044.152344 C 261.625 1044.136719 261.140625 1044.148438 260.660156 1044.183594 C 260.175781 1044.222656 259.695312 1044.28125 259.21875 1044.367188 C 258.742188 1044.453125 258.273438 1044.566406 257.808594 1044.699219 C 257.34375 1044.832031 256.886719 1044.992188 256.4375 1045.171875 C 255.988281 1045.355469 255.550781 1045.558594 255.125 1045.785156 C 254.695312 1046.011719 254.28125 1046.261719 253.878906 1046.53125 C 253.476562 1046.800781 253.089844 1047.089844 252.71875 1047.402344 C 252.347656 1047.710938 251.992188 1048.039062 251.65625 1048.382812 C 251.316406 1048.730469 251 1049.09375 250.699219 1049.472656 C 250.398438 1049.851562 250.117188 1050.246094 249.859375 1050.65625 C 249.597656 1051.0625 249.359375 1051.484375 249.144531 1051.914062 C 248.925781 1052.347656 248.734375 1052.792969 248.5625 1053.246094 C 248.394531 1053.695312 248.246094 1054.15625 248.125 1054.625 L 248.082031 1054.769531 C 241.632812 1077.597656 227.835938 1100.140625 211.84375 1115.867188 Z M 162.800781 1124.597656 C 169.003906 1128.171875 176.613281 1126.355469 181.898438 1124.203125 C 201.402344 1116.269531 227.660156 1088.207031 237.917969 1051.890625 C 241.3125 1039.890625 240.824219 1030.394531 236.453125 1023.707031 C 231.261719 1015.707031 221.464844 1012.820312 214.15625 1011.78125 C 213.21875 1011.648438 212.273438 1011.582031 211.324219 1011.582031 C 208.578125 1011.5625 205.957031 1012.132812 203.464844 1013.292969 C 174.839844 1026.738281 156.390625 1066.886719 155.09375 1097.878906 C 154.550781 1111.300781 157.496094 1121.539062 162.792969 1124.597656 Z M 130.835938 1087.796875 C 130.226562 1090.167969 129.566406 1092.496094 128.851562 1094.78125 C 128.695312 1095.265625 128.621094 1095.765625 128.636719 1096.273438 C 128.648438 1096.785156 128.746094 1097.277344 128.925781 1097.753906 C 129.105469 1098.230469 129.359375 1098.664062 129.6875 1099.054688 C 130.015625 1099.445312 130.398438 1099.769531 130.835938 1100.03125 C 133.238281 1101.46875 136.152344 1103.308594 139.328125 1105.566406 C 139.828125 1105.925781 140.386719 1106.125 141.003906 1106.171875 C 141.617188 1106.214844 142.199219 1106.09375 142.746094 1105.804688 C 143.292969 1105.519531 143.722656 1105.113281 144.039062 1104.582031 C 144.355469 1104.050781 144.507812 1103.476562 144.496094 1102.863281 C 144.496094 1101.109375 144.496094 1099.292969 144.5625 1097.429688 C 144.691406 1094.308594 144.992188 1091.085938 145.441406 1087.832031 C 145.480469 1087.5625 145.484375 1087.292969 145.457031 1087.023438 C 145.425781 1086.753906 145.367188 1086.492188 145.273438 1086.234375 C 145.183594 1085.980469 145.0625 1085.738281 144.910156 1085.515625 C 144.761719 1085.289062 144.585938 1085.082031 144.386719 1084.898438 C 144.1875 1084.714844 143.96875 1084.558594 143.730469 1084.429688 C 143.492188 1084.296875 143.242188 1084.199219 142.980469 1084.128906 C 142.71875 1084.058594 142.453125 1084.019531 142.179688 1084.015625 C 141.910156 1084.007812 141.640625 1084.035156 141.375 1084.09375 C 138.914062 1084.65625 136.425781 1085.035156 133.910156 1085.222656 C 133.550781 1085.25 133.203125 1085.328125 132.867188 1085.464844 C 132.53125 1085.597656 132.226562 1085.78125 131.949219 1086.015625 C 131.671875 1086.246094 131.4375 1086.515625 131.246094 1086.824219 C 131.054688 1087.128906 130.914062 1087.457031 130.828125 1087.808594 Z M 116.949219 1097.5 C 128.15625 1067.855469 126.914062 1031.722656 116.488281 1013.355469 C 112.019531 1005.492188 106.625 1001.652344 99.929688 1001.773438 C 72.566406 1002.574219 69.242188 1031.210938 62.882812 1121.667969 L 62.519531 1126.738281 C 54.765625 1236.628906 112.230469 1270.984375 112.796875 1271.320312 C 113.097656 1271.492188 113.378906 1271.695312 113.640625 1271.921875 C 113.902344 1272.148438 114.140625 1272.402344 114.351562 1272.675781 C 114.5625 1272.949219 114.746094 1273.242188 114.898438 1273.554688 C 115.054688 1273.863281 115.175781 1274.1875 115.269531 1274.523438 C 115.359375 1274.859375 115.414062 1275.199219 115.4375 1275.542969 C 115.460938 1275.890625 115.453125 1276.234375 115.40625 1276.578125 C 115.363281 1276.921875 115.285156 1277.261719 115.171875 1277.589844 C 115.0625 1277.917969 114.921875 1278.230469 114.75 1278.53125 C 114.574219 1278.832031 114.375 1279.113281 114.144531 1279.375 C 113.917969 1279.636719 113.667969 1279.875 113.390625 1280.085938 C 113.117188 1280.296875 112.824219 1280.480469 112.511719 1280.632812 C 112.199219 1280.789062 111.878906 1280.910156 111.542969 1281 C 111.207031 1281.089844 110.867188 1281.148438 110.519531 1281.171875 C 110.175781 1281.195312 109.828125 1281.183594 109.484375 1281.140625 C 109.140625 1281.09375 108.804688 1281.015625 108.476562 1280.90625 C 108.148438 1280.792969 107.832031 1280.652344 107.53125 1280.480469 C 106.25 1279.742188 90.964844 1270.59375 76.636719 1247.808594 C 65.667969 1230.386719 38.839844 1235.476562 35.910156 1255.875 C 35.871094 1256.136719 35.832031 1256.402344 35.796875 1256.671875 C 30.660156 1296.230469 111.882812 1346.769531 153.925781 1354.839844 L 159.679688 1355.945312 C 195.78125 1362.914062 219.648438 1367.511719 233.308594 1358.601562 C 241.167969 1353.464844 246.746094 1342.644531 246.59375 1332.851562 L 246.59375 1332.78125 C 246.441406 1324.917969 239.054688 1319.003906 231.429688 1320.933594 C 223.523438 1322.976562 215.488281 1324.015625 207.324219 1324.050781 C 197.582031 1324.082031 188.117188 1322.484375 178.925781 1319.253906 C 178.601562 1319.136719 178.289062 1318.992188 177.988281 1318.8125 C 177.691406 1318.636719 177.414062 1318.433594 177.15625 1318.199219 C 176.898438 1317.96875 176.664062 1317.714844 176.457031 1317.4375 C 176.25 1317.15625 176.070312 1316.863281 175.921875 1316.550781 C 175.769531 1316.238281 175.652344 1315.914062 175.566406 1315.574219 C 175.480469 1315.238281 175.429688 1314.898438 175.410156 1314.550781 C 175.394531 1314.207031 175.410156 1313.863281 175.457031 1313.519531 C 175.507812 1313.175781 175.589844 1312.839844 175.707031 1312.511719 C 175.820312 1312.1875 175.96875 1311.875 176.144531 1311.574219 C 176.324219 1311.277344 176.527344 1311 176.757812 1310.742188 C 176.992188 1310.484375 177.246094 1310.25 177.523438 1310.042969 C 177.800781 1309.835938 178.097656 1309.65625 178.410156 1309.507812 C 178.722656 1309.359375 179.046875 1309.242188 179.382812 1309.15625 C 179.71875 1309.070312 180.0625 1309.015625 180.410156 1309 C 180.753906 1308.980469 181.101562 1308.996094 181.441406 1309.046875 C 181.785156 1309.09375 182.121094 1309.175781 182.449219 1309.292969 C 250.429688 1333.292969 318.113281 1247.585938 318.792969 1246.722656 L 319.640625 1245.625 L 320.929688 1245.089844 C 346.410156 1234.441406 407.234375 1187.09375 412.277344 1161.542969 C 413.253906 1156.601562 411.621094 1154.289062 410.308594 1152.976562 C 395.101562 1137.777344 357.933594 1160.136719 346.90625 1167.375 C 341.324219 1171.039062 335.359375 1173.890625 329.003906 1175.9375 L 315.183594 1180.359375 C 313.121094 1182.917969 310.925781 1185.363281 308.605469 1187.6875 C 314.367188 1193.558594 323.183594 1205.652344 323.183594 1224.628906 C 323.199219 1224.984375 323.175781 1225.335938 323.121094 1225.6875 C 323.0625 1226.039062 322.96875 1226.382812 322.84375 1226.714844 C 322.71875 1227.046875 322.558594 1227.363281 322.367188 1227.664062 C 322.175781 1227.964844 321.957031 1228.242188 321.710938 1228.5 C 321.464844 1228.753906 321.195312 1228.984375 320.902344 1229.1875 C 320.609375 1229.390625 320.296875 1229.558594 319.972656 1229.699219 C 319.644531 1229.839844 319.304688 1229.945312 318.957031 1230.015625 C 318.609375 1230.085938 318.253906 1230.121094 317.898438 1230.121094 C 317.542969 1230.121094 317.191406 1230.085938 316.84375 1230.015625 C 316.492188 1229.945312 316.15625 1229.839844 315.828125 1229.699219 C 315.5 1229.558594 315.191406 1229.390625 314.894531 1229.1875 C 314.601562 1228.984375 314.332031 1228.753906 314.085938 1228.5 C 313.839844 1228.242188 313.621094 1227.964844 313.429688 1227.664062 C 313.238281 1227.363281 313.082031 1227.046875 312.953125 1226.714844 C 312.828125 1226.382812 312.734375 1226.039062 312.679688 1225.6875 C 312.621094 1225.335938 312.597656 1224.984375 312.613281 1224.628906 C 312.648438 1218.832031 311.582031 1213.246094 309.410156 1207.871094 C 309.050781 1206.996094 308.601562 1206.164062 308.070312 1205.378906 C 307.542969 1204.59375 306.9375 1203.871094 306.261719 1203.207031 C 305.585938 1202.546875 304.851562 1201.957031 304.054688 1201.441406 C 303.261719 1200.925781 302.421875 1200.496094 301.539062 1200.148438 C 300.65625 1199.804688 299.75 1199.550781 298.816406 1199.386719 C 297.882812 1199.222656 296.945312 1199.152344 295.996094 1199.179688 C 295.050781 1199.207031 294.117188 1199.328125 293.191406 1199.539062 C 292.269531 1199.753906 291.378906 1200.058594 290.515625 1200.453125 C 286.335938 1202.382812 281.945312 1203.390625 277.34375 1203.46875 C 275.390625 1203.472656 273.464844 1203.253906 271.566406 1202.804688 C 262.761719 1200.734375 255.679688 1194.871094 251.515625 1186.277344 C 251.371094 1185.992188 251.238281 1185.695312 251.109375 1185.398438 C 250.683594 1184.464844 250.179688 1183.582031 249.59375 1182.738281 C 249.007812 1181.898438 248.351562 1181.117188 247.621094 1180.398438 C 246.894531 1179.675781 246.109375 1179.027344 245.261719 1178.449219 C 244.417969 1177.871094 243.527344 1177.375 242.589844 1176.957031 C 241.652344 1176.542969 240.6875 1176.214844 239.691406 1175.972656 C 238.695312 1175.730469 237.683594 1175.582031 236.664062 1175.527344 C 235.640625 1175.46875 234.621094 1175.503906 233.601562 1175.632812 C 232.585938 1175.761719 231.589844 1175.976562 230.613281 1176.289062 C 228.054688 1177.078125 225.4375 1177.484375 222.761719 1177.503906 C 222.105469 1177.503906 221.457031 1177.503906 220.800781 1177.414062 C 205.113281 1176.097656 194.765625 1170.496094 190.050781 1160.785156 C 185.667969 1151.753906 187.316406 1140.96875 190.316406 1131.988281 C 188.835938 1132.785156 187.347656 1133.449219 185.867188 1134.050781 C 181.074219 1136.09375 176.074219 1137.160156 170.867188 1137.25 L 170.675781 1137.25 C 173.503906 1141.367188 176.042969 1145.652344 178.296875 1150.105469 C 180.546875 1154.5625 182.492188 1159.148438 184.132812 1163.863281 C 185.769531 1168.582031 187.085938 1173.382812 188.078125 1178.277344 C 189.074219 1183.167969 189.734375 1188.105469 190.066406 1193.085938 C 190.09375 1193.433594 190.082031 1193.777344 190.039062 1194.121094 C 189.996094 1194.464844 189.921875 1194.800781 189.8125 1195.132812 C 189.703125 1195.460938 189.5625 1195.777344 189.390625 1196.078125 C 189.21875 1196.378906 189.019531 1196.660156 188.792969 1196.921875 C 188.566406 1197.1875 188.316406 1197.425781 188.039062 1197.636719 C 187.765625 1197.851562 187.476562 1198.035156 187.164062 1198.191406 C 186.855469 1198.347656 186.535156 1198.472656 186.199219 1198.5625 C 185.863281 1198.65625 185.523438 1198.714844 185.179688 1198.742188 L 184.792969 1198.742188 C 184.464844 1198.742188 184.136719 1198.710938 183.808594 1198.648438 C 183.484375 1198.585938 183.167969 1198.496094 182.859375 1198.371094 C 182.550781 1198.25 182.257812 1198.101562 181.976562 1197.925781 C 181.699219 1197.75 181.4375 1197.550781 181.195312 1197.324219 C 180.953125 1197.097656 180.734375 1196.851562 180.535156 1196.585938 C 180.339844 1196.320312 180.171875 1196.039062 180.027344 1195.738281 C 179.882812 1195.441406 179.769531 1195.132812 179.683594 1194.8125 C 179.597656 1194.492188 179.542969 1194.167969 179.519531 1193.839844 C 176.695312 1154.808594 153.5 1130.027344 136.636719 1116.988281 C 136.277344 1116.703125 135.902344 1116.441406 135.511719 1116.195312 C 135.125 1115.949219 134.722656 1115.726562 134.308594 1115.523438 C 133.894531 1115.324219 133.472656 1115.144531 133.042969 1114.984375 C 132.609375 1114.828125 132.171875 1114.695312 131.722656 1114.582031 C 131.277344 1114.472656 130.828125 1114.382812 130.371094 1114.320312 C 129.917969 1114.257812 129.460938 1114.21875 129 1114.203125 C 128.539062 1114.1875 128.082031 1114.199219 127.621094 1114.230469 C 127.164062 1114.265625 126.707031 1114.320312 126.253906 1114.402344 C 125.804688 1114.484375 125.355469 1114.589844 124.914062 1114.71875 C 124.472656 1114.847656 124.039062 1115 123.613281 1115.175781 C 123.1875 1115.347656 122.773438 1115.546875 122.371094 1115.765625 C 121.964844 1115.984375 121.574219 1116.222656 121.195312 1116.480469 C 120.816406 1116.742188 120.449219 1117.019531 120.101562 1117.320312 C 119.75 1117.617188 119.417969 1117.933594 119.101562 1118.265625 C 118.785156 1118.601562 118.488281 1118.949219 118.207031 1119.316406 C 117.929688 1119.679688 117.671875 1120.058594 117.429688 1120.453125 L 117.222656 1120.78125 C 117.035156 1121.070312 116.824219 1121.34375 116.582031 1121.59375 C 116.34375 1121.84375 116.082031 1122.066406 115.796875 1122.265625 C 115.511719 1122.464844 115.210938 1122.632812 114.894531 1122.773438 C 114.578125 1122.914062 114.25 1123.019531 113.910156 1123.09375 C 113.570312 1123.167969 113.226562 1123.210938 112.882812 1123.21875 C 112.535156 1123.226562 112.191406 1123.199219 111.847656 1123.136719 C 111.507812 1123.078125 111.175781 1122.984375 110.851562 1122.859375 C 110.527344 1122.734375 110.222656 1122.578125 109.929688 1122.390625 C 109.636719 1122.203125 109.363281 1121.992188 109.113281 1121.75 C 108.863281 1121.511719 108.640625 1121.25 108.441406 1120.964844 C 108.242188 1120.679688 108.074219 1120.378906 107.933594 1120.0625 C 107.792969 1119.746094 107.6875 1119.417969 107.613281 1119.078125 C 107.535156 1118.742188 107.496094 1118.398438 107.488281 1118.050781 C 107.480469 1117.707031 107.507812 1117.363281 107.566406 1117.019531 C 107.628906 1116.679688 107.722656 1116.347656 107.847656 1116.023438 C 107.972656 1115.699219 108.128906 1115.394531 108.316406 1115.101562 C 111.253906 1110.417969 113.753906 1105.511719 115.8125 1100.382812 " fill-opacity="1" fill-rule="nonzero"/></g><g clip-path="url(#27723788e4)"><g clip-path="url(#15782f74ce)"><g clip-path="url(#4f2766913d)"><path fill="#181818" d="M -58.832031 1077.878906 L -67.546875 1055.976562 L -71.667969 1019.699219 L -49.570312 987.414062 L -23.96875 986.730469 L 4.125 1000.359375 L 45.902344 1046.691406 L 81.226562 1093.257812 L 114.007812 1092.890625 L 158.835938 1104.179688 L 180.675781 1077.554688 L 209.035156 1077.03125 L 232.976562 1092.878906 L 261.609375 1115.335938 L 290.828125 1157.058594 L 307.601562 1178.472656 L 321.082031 1203.484375 L 333.199219 1228.476562 L 336.460938 1260.203125 L 322.9375 1283.402344 L 305.34375 1293.675781 L 279.59375 1291.382812 L 255.207031 1336.101562 L 234.011719 1363.824219 L 200.296875 1396.960938 L 183.351562 1400.769531 L 156.367188 1429.800781 L 132.84375 1449.246094 L 105.691406 1460.824219 L 77.832031 1460.292969 L 61.816406 1442.914062 L 47.78125 1434.34375 L 15.699219 1414.472656 L -2.234375 1390.734375 L -34.195312 1371.082031 L -43.542969 1346.972656 L -72.808594 1335.191406 L -95.296875 1306.949219 L -90.511719 1259.535156 L -61.285156 1205.625 L -14.011719 1166 L 10.71875 1143.722656 L -33.390625 1102.71875 Z M -58.832031 1077.878906 " fill-opacity="1" fill-rule="nonzero"/></g></g></g><g clip-path="url(#791e0c2158)"><g clip-path="url(#d6efb8ab10)"><g clip-path="url(#5308615f25)"><path fill="#b15cff" d="M 249.285156 1099.214844 C 225.6875 1077.777344 203.484375 1068.839844 183.25 1072.695312 C 170.140625 1075.175781 160.53125 1082.570312 154.144531 1089.425781 C 153.574219 1090.035156 152.960938 1090.601562 152.308594 1091.125 C 151.65625 1091.648438 150.972656 1092.121094 150.25 1092.546875 C 149.53125 1092.972656 148.785156 1093.34375 148.011719 1093.660156 C 147.238281 1093.980469 146.449219 1094.242188 145.636719 1094.445312 C 144.828125 1094.652344 144.007812 1094.796875 143.175781 1094.886719 C 142.34375 1094.972656 141.511719 1095.003906 140.675781 1094.972656 C 139.84375 1094.941406 139.011719 1094.851562 138.191406 1094.703125 C 137.371094 1094.550781 136.5625 1094.34375 135.769531 1094.082031 C 116.730469 1087.710938 102.128906 1086.515625 93.425781 1086.589844 C 91.992188 1086.613281 90.574219 1086.464844 89.175781 1086.144531 C 87.777344 1085.828125 86.4375 1085.347656 85.152344 1084.710938 C 83.867188 1084.070312 82.675781 1083.289062 81.582031 1082.363281 C 80.484375 1081.4375 79.511719 1080.394531 78.664062 1079.238281 C 71.738281 1069.675781 63.292969 1058.378906 54.179688 1046.972656 C 22.035156 1006.765625 -3.023438 984.226562 -20.304688 980 C -39.78125 975.183594 -59.351562 983.257812 -70.117188 1000.464844 C -85.378906 1024.800781 -78.707031 1058.421875 -52.265625 1090.414062 C -37.546875 1108.230469 -23.039062 1122.609375 -8.742188 1133.554688 C -8.285156 1133.894531 -7.851562 1134.265625 -7.441406 1134.660156 C -7.027344 1135.054688 -6.644531 1135.476562 -6.285156 1135.917969 C -5.925781 1136.363281 -5.59375 1136.828125 -5.292969 1137.3125 C -4.992188 1137.796875 -4.722656 1138.300781 -4.484375 1138.820312 C -4.246094 1139.335938 -4.039062 1139.867188 -3.867188 1140.414062 C -3.695312 1140.957031 -3.554688 1141.511719 -3.453125 1142.070312 C -3.347656 1142.632812 -3.28125 1143.199219 -3.246094 1143.769531 C -3.214844 1144.339844 -3.214844 1144.910156 -3.253906 1145.480469 C -3.292969 1146.046875 -3.367188 1146.613281 -3.472656 1147.175781 C -3.582031 1147.734375 -3.726562 1148.285156 -3.902344 1148.828125 C -4.078125 1149.371094 -4.289062 1149.902344 -4.53125 1150.417969 C -4.773438 1150.9375 -5.050781 1151.433594 -5.355469 1151.917969 C -5.660156 1152.402344 -5.996094 1152.863281 -6.355469 1153.304688 C -6.71875 1153.742188 -7.109375 1154.160156 -7.523438 1154.554688 C -7.9375 1154.945312 -8.375 1155.3125 -8.835938 1155.648438 C -9.296875 1155.988281 -9.777344 1156.296875 -10.273438 1156.574219 C -43.609375 1175.128906 -93.199219 1213.246094 -101.425781 1278.929688 C -104.328125 1302.011719 -95.445312 1324.617188 -78.3125 1337.96875 C -74.042969 1341.328125 -69.382812 1344.007812 -64.332031 1346.003906 C -61.617188 1347.066406 -59.15625 1348.546875 -56.953125 1350.449219 C -54.746094 1352.355469 -52.917969 1354.570312 -51.46875 1357.101562 C -44.054688 1370.109375 -28.9375 1389.941406 -4.050781 1394.878906 C -3.660156 1394.949219 -3.253906 1394.976562 -2.863281 1395.042969 C 0.910156 1403.863281 13.527344 1428.664062 38.328125 1436.914062 C 39.972656 1437.457031 41.640625 1437.914062 43.332031 1438.28125 C 44.945312 1438.632812 46.511719 1439.140625 48.03125 1439.800781 C 49.546875 1440.457031 50.984375 1441.257812 52.347656 1442.199219 C 53.707031 1443.136719 54.964844 1444.199219 56.117188 1445.386719 C 57.273438 1446.570312 58.300781 1447.855469 59.203125 1449.238281 C 61.164062 1452.253906 63.484375 1454.960938 66.164062 1457.355469 C 68.84375 1459.75 71.792969 1461.75 75.011719 1463.355469 C 89.457031 1470.511719 108.1875 1468.722656 130.558594 1458.15625 C 136.25 1455.421875 141.632812 1452.171875 146.707031 1448.414062 C 151.777344 1444.652344 156.453125 1440.449219 160.726562 1435.796875 C 163.378906 1432.933594 165.875 1429.933594 168.214844 1426.804688 C 170.699219 1423.613281 173.78125 1421.179688 177.460938 1419.496094 C 187.285156 1414.78125 205.425781 1403.429688 230.195312 1376.78125 C 238.667969 1367.667969 247.914062 1356.753906 257.867188 1343.722656 C 264.394531 1335.242188 269.929688 1326.15625 274.46875 1316.464844 C 275.449219 1314.414062 276.660156 1312.511719 278.101562 1310.757812 C 279.542969 1309.003906 281.175781 1307.449219 283 1306.09375 C 284.820312 1304.738281 286.777344 1303.617188 288.871094 1302.738281 C 290.964844 1301.859375 293.132812 1301.242188 295.378906 1300.890625 C 310.089844 1298.359375 321.320312 1293.015625 328.894531 1284.867188 C 332.613281 1280.847656 335.429688 1276.277344 337.34375 1271.148438 C 354.960938 1224.4375 295.222656 1140.925781 249.285156 1099.214844 Z M -26.71875 1370.695312 C -35.113281 1362.894531 -32.859375 1348.777344 -22.304688 1344.3125 C -12.464844 1340.144531 -1.664062 1333.199219 10.089844 1322.546875 C 16.183594 1317.03125 21.570312 1311.636719 26.398438 1306.441406 C 47.125 1284.144531 56.851562 1265.027344 61.082031 1249.9375 C 61.75 1247.410156 62.820312 1245.066406 64.292969 1242.910156 C 65.769531 1240.753906 67.5625 1238.90625 69.671875 1237.363281 C 71.957031 1235.714844 74.480469 1234.628906 77.25 1234.113281 C 84.929688 1232.761719 93.746094 1236.558594 103.398438 1245.359375 C 134.421875 1273.660156 91.921875 1331.738281 89.082031 1335.53125 C 54.5 1372.734375 23.875 1389.007812 -1.796875 1383.917969 C -11.90625 1381.945312 -20.175781 1376.765625 -26.71875 1370.695312 Z M 23.011719 1414.121094 C 16.273438 1407.269531 19.082031 1395.476562 28.246094 1392.628906 C 49.683594 1386.007812 72.839844 1369.414062 97.457031 1342.929688 L 97.640625 1342.738281 L 97.8125 1342.550781 C 98.980469 1341.035156 114.207031 1320.917969 121.765625 1297.066406 C 124.789062 1287.554688 138.054688 1286.410156 141.898438 1295.601562 L 142.003906 1295.859375 C 153.332031 1323.445312 139.953125 1383.441406 93.171875 1414.542969 C 74.058594 1427.277344 56.816406 1431.226562 41.941406 1426.304688 C 38.34375 1425.054688 34.945312 1423.398438 31.742188 1421.335938 C 28.539062 1419.273438 25.625 1416.863281 22.996094 1414.109375 Z M 163.410156 1414 L 163.109375 1414.457031 C 154.039062 1428.351562 141.375 1440.722656 125.738281 1448.097656 C 106.613281 1457.136719 91.261719 1458.953125 80.035156 1453.4375 C 72.414062 1449.707031 68.140625 1443.160156 65.945312 1438.4375 C 76.578125 1436.417969 87.722656 1431.613281 99.328125 1423.882812 C 107.558594 1418.398438 115.039062 1412.035156 121.769531 1404.789062 C 128.332031 1397.683594 134.050781 1389.953125 138.933594 1381.605469 C 143.816406 1373.257812 147.75 1364.484375 150.726562 1355.28125 C 154.921875 1342.40625 173.855469 1342.859375 177.230469 1355.972656 L 177.320312 1356.324219 C 181.292969 1372.457031 175.890625 1394.679688 163.410156 1414 Z M 307.671875 1189.183594 C 326.636719 1222.070312 333.445312 1249.785156 326.855469 1267.230469 C 325.695312 1270.292969 324.085938 1273.101562 322.023438 1275.648438 C 319.960938 1278.191406 317.550781 1280.351562 314.792969 1282.125 C 302.347656 1290.421875 285.742188 1280.726562 285.523438 1265.761719 C 285.222656 1244.628906 278.988281 1223.082031 266.769531 1201.589844 C 266.582031 1201.28125 266.367188 1200.996094 266.125 1200.734375 C 265.878906 1200.46875 265.613281 1200.230469 265.324219 1200.019531 C 265.035156 1199.804688 264.730469 1199.621094 264.40625 1199.46875 C 264.082031 1199.316406 263.746094 1199.195312 263.398438 1199.105469 C 263.050781 1199.015625 262.699219 1198.960938 262.339844 1198.941406 C 261.980469 1198.917969 261.625 1198.933594 261.269531 1198.980469 C 260.914062 1199.027344 260.566406 1199.109375 260.226562 1199.222656 C 259.886719 1199.339844 259.5625 1199.484375 259.25 1199.664062 C 258.9375 1199.839844 258.644531 1200.046875 258.371094 1200.277344 C 258.101562 1200.511719 257.851562 1200.769531 257.628906 1201.050781 C 257.40625 1201.332031 257.214844 1201.632812 257.050781 1201.953125 C 256.882812 1202.269531 256.75 1202.601562 256.652344 1202.945312 C 256.550781 1203.289062 256.480469 1203.640625 256.449219 1204 C 256.414062 1204.355469 256.417969 1204.710938 256.453125 1205.070312 C 256.488281 1205.425781 256.554688 1205.777344 256.660156 1206.121094 C 256.761719 1206.464844 256.898438 1206.796875 257.0625 1207.113281 C 274.761719 1238.316406 287.773438 1286.128906 248.957031 1336.96875 C 230.300781 1361.367188 214.355469 1377.929688 201.59375 1389.117188 C 195.9375 1394.0625 187.058594 1389.09375 188.402344 1381.679688 C 190.238281 1371.65625 190.222656 1362.011719 188.152344 1353.640625 C 185.371094 1342.382812 179.042969 1334.367188 170.019531 1330.242188 C 169.074219 1329.789062 168.160156 1329.277344 167.28125 1328.703125 C 166.402344 1328.128906 165.566406 1327.496094 164.773438 1326.8125 C 163.976562 1326.128906 163.230469 1325.394531 162.53125 1324.609375 C 161.832031 1323.828125 161.191406 1323 160.601562 1322.132812 C 160.011719 1321.261719 159.484375 1320.359375 159.011719 1319.421875 C 158.542969 1318.480469 158.136719 1317.515625 157.796875 1316.523438 C 157.457031 1315.53125 157.179688 1314.519531 156.972656 1313.492188 C 156.765625 1312.464844 156.625 1311.425781 156.554688 1310.378906 C 156.097656 1303.90625 154.6875 1297.648438 152.328125 1291.605469 C 147.0625 1278.667969 137.601562 1271.683594 125.925781 1271.4375 C 125.722656 1258.992188 121.671875 1246.914062 110.917969 1237.105469 C 105.90625 1232.371094 100.257812 1228.578125 93.984375 1225.71875 C 93.375 1222.105469 93.109375 1218.464844 93.191406 1214.800781 C 93.269531 1211.136719 93.6875 1207.511719 94.453125 1203.925781 C 95.214844 1200.34375 96.304688 1196.859375 97.726562 1193.480469 C 99.144531 1190.101562 100.867188 1186.882812 102.894531 1183.828125 C 103.933594 1182.335938 104.636719 1180.699219 105.007812 1178.917969 C 105.375 1177.136719 105.378906 1175.355469 105.015625 1173.574219 C 104.765625 1172.492188 104.382812 1171.460938 103.859375 1170.484375 C 103.335938 1169.507812 102.695312 1168.613281 101.933594 1167.808594 C 101.171875 1167.003906 100.316406 1166.308594 99.367188 1165.734375 C 98.421875 1165.15625 97.414062 1164.714844 96.351562 1164.40625 L 80.5625 1159.757812 C 80.210938 1159.65625 79.851562 1159.589844 79.484375 1159.554688 C 79.121094 1159.523438 78.753906 1159.527344 78.390625 1159.566406 C 78.023438 1159.605469 77.667969 1159.679688 77.316406 1159.789062 C 76.96875 1159.898438 76.632812 1160.042969 76.308594 1160.21875 C 75.988281 1160.394531 75.683594 1160.601562 75.402344 1160.835938 C 75.121094 1161.070312 74.867188 1161.332031 74.636719 1161.617188 C 74.40625 1161.902344 74.207031 1162.207031 74.035156 1162.535156 C 73.867188 1162.859375 73.730469 1163.199219 73.625 1163.550781 C 73.523438 1163.902344 73.457031 1164.261719 73.421875 1164.625 C 73.390625 1164.992188 73.394531 1165.355469 73.433594 1165.722656 C 73.472656 1166.085938 73.546875 1166.445312 73.65625 1166.792969 C 73.765625 1167.144531 73.910156 1167.480469 74.085938 1167.800781 C 74.261719 1168.125 74.464844 1168.425781 74.703125 1168.707031 C 74.9375 1168.988281 75.199219 1169.246094 75.484375 1169.472656 C 75.769531 1169.703125 76.074219 1169.90625 76.398438 1170.074219 C 76.726562 1170.246094 77.0625 1170.382812 77.414062 1170.484375 L 93.210938 1175.125 C 93.414062 1175.179688 93.59375 1175.28125 93.75 1175.425781 C 93.90625 1175.570312 94.019531 1175.742188 94.089844 1175.941406 C 94.164062 1176.140625 94.183594 1176.347656 94.15625 1176.558594 C 94.128906 1176.769531 94.050781 1176.960938 93.929688 1177.132812 C 92.058594 1179.9375 90.398438 1182.863281 88.945312 1185.90625 C 87.496094 1188.949219 86.265625 1192.082031 85.261719 1195.300781 C 84.261719 1198.519531 83.492188 1201.792969 82.957031 1205.121094 C 82.421875 1208.449219 82.125 1211.800781 82.070312 1215.171875 C 82.066406 1215.640625 82.023438 1216.105469 81.941406 1216.566406 C 81.855469 1217.027344 81.730469 1217.476562 81.570312 1217.917969 C 81.40625 1218.359375 81.207031 1218.78125 80.972656 1219.1875 C 80.734375 1219.59375 80.464844 1219.972656 80.164062 1220.332031 C 79.863281 1220.691406 79.53125 1221.019531 79.171875 1221.324219 C 78.8125 1221.625 78.429688 1221.890625 78.023438 1222.125 C 77.617188 1222.359375 77.191406 1222.558594 76.75 1222.71875 C 76.3125 1222.878906 75.859375 1223.003906 75.398438 1223.085938 L 75.328125 1223.089844 C 73.902344 1223.347656 72.503906 1223.707031 71.128906 1224.171875 C 70.703125 1224.3125 70.269531 1224.402344 69.824219 1224.449219 C 69.378906 1224.496094 68.9375 1224.496094 68.492188 1224.445312 C 68.046875 1224.398438 67.613281 1224.304688 67.1875 1224.167969 C 66.761719 1224.027344 66.359375 1223.84375 65.972656 1223.621094 C 65.585938 1223.394531 65.226562 1223.132812 64.894531 1222.832031 C 64.566406 1222.53125 64.269531 1222.199219 64.007812 1221.835938 C 63.746094 1221.472656 63.527344 1221.085938 63.347656 1220.679688 C 63.167969 1220.269531 63.035156 1219.84375 62.945312 1219.40625 L 62.902344 1219.367188 C 60.4375 1207.785156 53.917969 1198.949219 45.859375 1196.324219 C 20.574219 1188.039062 -5.824219 1204.40625 -32.609375 1244.964844 C -32.800781 1245.269531 -32.960938 1245.59375 -33.089844 1245.929688 C -33.21875 1246.265625 -33.316406 1246.613281 -33.375 1246.96875 C -33.4375 1247.324219 -33.464844 1247.683594 -33.457031 1248.042969 C -33.449219 1248.40625 -33.40625 1248.761719 -33.328125 1249.113281 C -33.253906 1249.46875 -33.144531 1249.808594 -33 1250.140625 C -32.855469 1250.472656 -32.683594 1250.785156 -32.476562 1251.082031 C -32.273438 1251.382812 -32.042969 1251.65625 -31.785156 1251.910156 C -31.527344 1252.160156 -31.25 1252.386719 -30.945312 1252.585938 C -30.644531 1252.785156 -30.328125 1252.953125 -29.996094 1253.089844 C -29.660156 1253.226562 -29.316406 1253.332031 -28.960938 1253.402344 C -28.609375 1253.472656 -28.25 1253.507812 -27.890625 1253.507812 C -27.527344 1253.511719 -27.171875 1253.476562 -26.816406 1253.40625 C -26.460938 1253.339844 -26.117188 1253.238281 -25.78125 1253.101562 C -25.449219 1252.96875 -25.128906 1252.800781 -24.828125 1252.605469 C -24.523438 1252.410156 -24.242188 1252.183594 -23.984375 1251.933594 C -23.722656 1251.683594 -23.492188 1251.410156 -23.285156 1251.113281 C 0.375 1215.277344 22.484375 1200.433594 42.375 1206.9375 C 45.835938 1208.074219 50.109375 1213.039062 51.980469 1221.699219 C 54.546875 1233.734375 54.808594 1266.894531 2.558594 1314.25 C -26.027344 1340.15625 -50.933594 1345.171875 -71.457031 1329.164062 C -85.5 1318.214844 -92.734375 1299.492188 -90.363281 1280.28125 C -78.730469 1187.425781 22.945312 1153.34375 23.953125 1152.980469 C 24.082031 1152.941406 24.175781 1152.839844 24.304688 1152.785156 C 29.539062 1154.867188 34.917969 1156.457031 40.441406 1157.550781 C 41.097656 1157.679688 41.601562 1157.746094 42 1157.878906 C 42.347656 1157.945312 42.695312 1157.980469 43.050781 1157.984375 C 43.402344 1157.984375 43.753906 1157.953125 44.101562 1157.890625 C 44.445312 1157.828125 44.785156 1157.730469 45.113281 1157.601562 C 45.441406 1157.472656 45.757812 1157.316406 46.054688 1157.128906 C 46.355469 1156.941406 46.632812 1156.726562 46.890625 1156.488281 C 47.152344 1156.246094 47.382812 1155.984375 47.59375 1155.699219 C 47.800781 1155.414062 47.980469 1155.113281 48.132812 1154.792969 C 48.285156 1154.472656 48.40625 1154.144531 48.492188 1153.800781 C 48.582031 1153.460938 48.636719 1153.113281 48.660156 1152.761719 C 48.683594 1152.410156 48.675781 1152.058594 48.632812 1151.707031 C 48.589844 1151.359375 48.511719 1151.015625 48.402344 1150.679688 C 48.296875 1150.34375 48.15625 1150.019531 47.988281 1149.710938 C 47.816406 1149.402344 47.621094 1149.109375 47.394531 1148.839844 C 47.171875 1148.566406 46.921875 1148.316406 46.648438 1148.09375 C 46.378906 1147.867188 46.085938 1147.667969 45.777344 1147.5 C 45.46875 1147.328125 45.148438 1147.191406 44.8125 1147.082031 C 44.269531 1146.941406 43.507812 1146.78125 42.5625 1146.613281 C 15.75 1141.425781 -13.289062 1120.171875 -43.710938 1083.285156 C -66.929688 1055.183594 -73.292969 1026.4375 -60.710938 1006.394531 C -52.507812 993.332031 -37.703125 987.222656 -22.964844 990.824219 C 7.046875 998.15625 66.992188 1080.375 87.558594 1111.4375 C 87.757812 1111.742188 87.988281 1112.027344 88.246094 1112.285156 C 88.503906 1112.546875 88.785156 1112.78125 89.089844 1112.984375 C 89.394531 1113.191406 89.714844 1113.363281 90.050781 1113.503906 C 90.390625 1113.648438 90.738281 1113.753906 91.097656 1113.828125 C 91.457031 1113.902344 91.820312 1113.9375 92.1875 1113.941406 C 92.554688 1113.941406 92.917969 1113.90625 93.277344 1113.835938 C 93.636719 1113.765625 93.988281 1113.664062 94.324219 1113.523438 C 94.664062 1113.386719 94.988281 1113.214844 95.292969 1113.011719 C 95.597656 1112.808594 95.882812 1112.578125 96.144531 1112.320312 C 96.402344 1112.0625 96.636719 1111.78125 96.839844 1111.476562 C 97.046875 1111.171875 97.21875 1110.851562 97.359375 1110.515625 C 97.503906 1110.175781 97.609375 1109.828125 97.683594 1109.46875 C 97.753906 1109.109375 97.792969 1108.746094 97.792969 1108.378906 C 97.796875 1108.011719 97.761719 1107.648438 97.691406 1107.289062 C 97.621094 1106.929688 97.515625 1106.578125 97.378906 1106.242188 C 97.238281 1105.902344 97.066406 1105.578125 96.863281 1105.273438 C 96.792969 1105.207031 94.976562 1102.417969 91.804688 1097.808594 C 105.5625 1097.429688 144.808594 1100.566406 196.164062 1140.109375 C 198.652344 1142.019531 201.097656 1143.972656 203.511719 1145.949219 C 203.78125 1146.171875 204.074219 1146.371094 204.382812 1146.539062 C 204.691406 1146.707031 205.011719 1146.847656 205.347656 1146.953125 C 205.683594 1147.0625 206.027344 1147.136719 206.375 1147.179688 C 206.726562 1147.222656 207.074219 1147.234375 207.425781 1147.210938 C 207.777344 1147.1875 208.125 1147.128906 208.464844 1147.039062 C 208.804688 1146.953125 209.136719 1146.832031 209.453125 1146.679688 C 209.773438 1146.527344 210.074219 1146.347656 210.355469 1146.140625 C 210.640625 1145.933594 210.902344 1145.699219 211.140625 1145.441406 L 211.382812 1145.183594 C 211.613281 1144.898438 211.816406 1144.597656 211.988281 1144.273438 C 212.160156 1143.953125 212.296875 1143.617188 212.40625 1143.265625 C 212.511719 1142.917969 212.582031 1142.5625 212.617188 1142.195312 C 212.652344 1141.832031 212.65625 1141.46875 212.621094 1141.105469 C 212.585938 1140.742188 212.515625 1140.386719 212.410156 1140.035156 C 212.304688 1139.6875 212.164062 1139.351562 211.996094 1139.027344 C 211.824219 1138.707031 211.625 1138.402344 211.394531 1138.117188 C 211.164062 1137.835938 210.90625 1137.578125 210.625 1137.34375 C 208.125 1135.285156 205.582031 1133.265625 203.003906 1131.28125 C 200.859375 1129.636719 198.738281 1128.039062 196.632812 1126.511719 C 185.785156 1118.613281 180.246094 1104.800781 184.308594 1092.003906 L 184.476562 1091.492188 C 184.703125 1090.84375 184.984375 1090.214844 185.316406 1089.613281 C 185.652344 1089.011719 186.03125 1088.441406 186.460938 1087.902344 C 186.890625 1087.363281 187.363281 1086.867188 187.878906 1086.40625 C 188.394531 1085.949219 188.941406 1085.539062 189.527344 1085.171875 C 190.109375 1084.808594 190.722656 1084.496094 191.359375 1084.234375 C 191.996094 1083.972656 192.652344 1083.765625 193.324219 1083.617188 C 193.996094 1083.46875 194.675781 1083.375 195.363281 1083.339844 C 196.050781 1083.304688 196.734375 1083.328125 197.417969 1083.410156 C 210.941406 1084.972656 225.789062 1092.996094 241.769531 1107.503906 C 266.488281 1129.914062 291.121094 1160.46875 307.671875 1189.183594 Z M 247.953125 1171.359375 C 248.261719 1171.554688 248.546875 1171.78125 248.8125 1172.035156 C 249.074219 1172.289062 249.3125 1172.566406 249.523438 1172.863281 C 249.734375 1173.164062 249.910156 1173.484375 250.058594 1173.820312 C 250.207031 1174.152344 250.320312 1174.5 250.398438 1174.859375 C 250.476562 1175.214844 250.519531 1175.578125 250.527344 1175.945312 C 250.535156 1176.3125 250.507812 1176.675781 250.441406 1177.035156 C 250.378906 1177.394531 250.277344 1177.746094 250.144531 1178.089844 C 250.011719 1178.429688 249.847656 1178.753906 249.648438 1179.0625 C 246.933594 1183.320312 243.855469 1187.296875 240.417969 1190.996094 C 218.148438 1214.957031 188.339844 1219.160156 186.917969 1219.351562 C 186.554688 1219.398438 186.1875 1219.410156 185.824219 1219.386719 C 185.457031 1219.363281 185.097656 1219.304688 184.742188 1219.210938 C 184.390625 1219.113281 184.046875 1218.988281 183.71875 1218.824219 C 183.390625 1218.664062 183.082031 1218.46875 182.789062 1218.246094 C 182.5 1218.023438 182.230469 1217.777344 181.992188 1217.5 C 181.75 1217.226562 181.535156 1216.929688 181.351562 1216.613281 C 181.167969 1216.292969 181.019531 1215.960938 180.898438 1215.613281 C 180.78125 1215.269531 180.699219 1214.914062 180.648438 1214.550781 C 180.601562 1214.1875 180.589844 1213.820312 180.613281 1213.457031 C 180.636719 1213.089844 180.695312 1212.730469 180.789062 1212.375 C 180.882812 1212.023438 181.011719 1211.679688 181.171875 1211.351562 C 181.335938 1211.023438 181.527344 1210.710938 181.75 1210.421875 C 181.972656 1210.128906 182.21875 1209.863281 182.496094 1209.621094 C 182.769531 1209.378906 183.066406 1209.164062 183.382812 1208.980469 C 183.699219 1208.796875 184.03125 1208.644531 184.378906 1208.527344 C 184.726562 1208.40625 185.082031 1208.324219 185.445312 1208.273438 C 185.796875 1208.226562 221.03125 1203.15625 240.246094 1173.058594 C 240.441406 1172.746094 240.667969 1172.460938 240.921875 1172.195312 C 241.175781 1171.929688 241.453125 1171.691406 241.75 1171.484375 C 242.050781 1171.273438 242.371094 1171.09375 242.707031 1170.945312 C 243.042969 1170.800781 243.386719 1170.6875 243.746094 1170.605469 C 244.105469 1170.527344 244.464844 1170.484375 244.832031 1170.476562 C 245.199219 1170.46875 245.5625 1170.5 245.925781 1170.5625 C 246.285156 1170.628906 246.636719 1170.726562 246.976562 1170.859375 C 247.316406 1170.992188 247.644531 1171.160156 247.953125 1171.359375 Z M 247.953125 1171.359375 " fill-opacity="1" fill-rule="nonzero"/></g></g></g><path fill="#181818" d="M 34.058594 1341.988281 L 40.632812 1328.128906 L 56.089844 1310.089844 L 81.261719 1306.320312 L 92.929688 1318.21875 L 98.875 1337.652344 L 95.304688 1378.09375 L 88.761719 1415.566406 L 103.457031 1431.03125 L 117.933594 1457.40625 L 140.292969 1456.019531 L 153.101562 1469.304688 L 156.15625 1487.742188 L 158.136719 1511.339844 L 151.199219 1543.757812 L 148.425781 1561.242188 L 142.476562 1578.75 L 135.9375 1595.601562 L 122.265625 1611.214844 L 105.21875 1615.050781 L 92.53125 1611.214844 L 82.222656 1597.921875 L 50.113281 1606.113281 L 27.515625 1608.292969 L -3.207031 1606.90625 L -12.527344 1600.515625 L -38.3125 1600.515625 L -57.996094 1597.921875 L -75.539062 1590.105469 L -87.625 1576.59375 L -86.4375 1561.253906 L -88.570312 1550.769531 L -93.3125 1526.671875 L -89.945312 1507.601562 L -94.738281 1483.65625 L -87.390625 1468.519531 L -94.738281 1449.347656 L -91.242188 1426.113281 L -66.53125 1407.382812 L -27.898438 1397.425781 L 11.921875 1402.402344 L 33.488281 1404.320312 L 33.488281 1365.121094 Z M 34.058594 1341.988281 " fill-opacity="1" fill-rule="nonzero"/><g clip-path="url(#f1bdc8cc9d)"><path fill="#b15cff" d="M 160.359375 1498.324219 C 160.125 1477.574219 154.546875 1463.027344 143.75 1455.09375 C 136.761719 1449.941406 128.980469 1448.636719 122.882812 1448.632812 C 121.792969 1448.628906 120.722656 1448.46875 119.671875 1448.160156 C 118.625 1447.847656 117.644531 1447.394531 116.726562 1446.800781 C 115.808594 1446.207031 114.992188 1445.496094 114.277344 1444.667969 C 113.5625 1443.839844 112.980469 1442.929688 112.527344 1441.933594 C 107.128906 1430.035156 101.234375 1422.546875 97.34375 1418.429688 C 96.695312 1417.757812 96.140625 1417.015625 95.671875 1416.207031 C 95.203125 1415.398438 94.839844 1414.546875 94.574219 1413.652344 C 94.308594 1412.757812 94.15625 1411.84375 94.109375 1410.910156 C 94.066406 1409.976562 94.132812 1409.054688 94.308594 1408.136719 C 95.796875 1400.59375 97.4375 1391.566406 98.835938 1382.164062 C 103.757812 1349.027344 103.398438 1327.09375 97.757812 1316.984375 C 91.425781 1305.566406 78.910156 1299.8125 65.941406 1302.304688 C 47.589844 1305.8125 34.523438 1323.890625 30.992188 1350.675781 C 29.023438 1365.585938 28.597656 1378.871094 29.714844 1390.539062 C 29.753906 1390.90625 29.769531 1391.277344 29.761719 1391.648438 C 29.757812 1392.019531 29.726562 1392.390625 29.675781 1392.757812 C 29.621094 1393.125 29.546875 1393.488281 29.449219 1393.847656 C 29.351562 1394.207031 29.234375 1394.558594 29.089844 1394.902344 C 28.949219 1395.246094 28.789062 1395.578125 28.605469 1395.902344 C 28.421875 1396.226562 28.21875 1396.535156 28 1396.832031 C 27.777344 1397.132812 27.539062 1397.414062 27.28125 1397.683594 C 27.023438 1397.953125 26.75 1398.203125 26.460938 1398.4375 C 26.175781 1398.671875 25.871094 1398.886719 25.558594 1399.085938 C 25.242188 1399.28125 24.917969 1399.457031 24.578125 1399.613281 C 24.242188 1399.769531 23.898438 1399.90625 23.542969 1400.019531 C 23.1875 1400.132812 22.828125 1400.222656 22.464844 1400.289062 C 22.097656 1400.359375 21.730469 1400.402344 21.359375 1400.425781 C 20.988281 1400.449219 20.617188 1400.449219 20.246094 1400.425781 C 19.878906 1400.398438 19.507812 1400.351562 19.144531 1400.285156 C 18.78125 1400.214844 18.421875 1400.121094 18.066406 1400.007812 C -5.539062 1392.339844 -45.664062 1385.589844 -80.605469 1410.773438 C -92.890625 1419.621094 -99.726562 1433.871094 -98.5 1447.953125 C -98.210938 1451.476562 -97.421875 1454.886719 -96.136719 1458.179688 C -95.4375 1459.941406 -95.054688 1461.773438 -94.984375 1463.667969 C -94.914062 1465.5625 -95.164062 1467.417969 -95.726562 1469.226562 C -98.640625 1478.527344 -101.394531 1494.519531 -92.722656 1508.574219 C -92.582031 1508.789062 -92.417969 1508.996094 -92.277344 1509.210938 C -94.808594 1514.917969 -101.035156 1531.921875 -93.984375 1547.402344 C -93.515625 1548.425781 -92.992188 1549.421875 -92.417969 1550.390625 C -91.3125 1552.261719 -90.605469 1554.273438 -90.292969 1556.425781 C -89.976562 1558.574219 -90.085938 1560.707031 -90.609375 1562.8125 C -91.179688 1565.082031 -91.4375 1567.386719 -91.394531 1569.726562 C -91.347656 1572.066406 -90.992188 1574.359375 -90.335938 1576.605469 C -87.34375 1586.664062 -78.195312 1594.796875 -63.253906 1600.777344 C -55.535156 1603.808594 -47.53125 1605.300781 -39.238281 1605.253906 C -36.699219 1605.25 -34.164062 1605.109375 -31.636719 1604.835938 C -29.015625 1604.609375 -26.488281 1605 -24.058594 1606.007812 C -17.460938 1608.601562 -4.019531 1612.21875 19.652344 1612.21875 C 27.746094 1612.21875 37.039062 1611.789062 47.660156 1610.761719 C 54.589844 1610.113281 61.371094 1608.726562 68 1606.59375 C 69.410156 1606.152344 70.851562 1605.886719 72.328125 1605.796875 C 73.800781 1605.710938 75.265625 1605.796875 76.71875 1606.066406 C 78.171875 1606.332031 79.574219 1606.769531 80.917969 1607.378906 C 82.265625 1607.988281 83.519531 1608.746094 84.679688 1609.660156 C 92.40625 1615.554688 99.921875 1618.539062 107.160156 1618.539062 C 110.722656 1618.53125 114.148438 1617.847656 117.441406 1616.488281 C 147.5 1604.183594 160.832031 1538.703125 160.359375 1498.324219 Z M -91.242188 1487.050781 C -91.242188 1479.59375 -83.519531 1474.410156 -76.714844 1477.464844 C -70.371094 1480.308594 -62.277344 1482.378906 -51.996094 1483.261719 C -46.667969 1483.722656 -41.710938 1483.898438 -37.097656 1483.898438 C -17.292969 1483.898438 -3.878906 1480.066406 5.1875 1475.394531 C 6.6875 1474.59375 8.277344 1474.066406 9.957031 1473.8125 C 11.636719 1473.558594 13.3125 1473.59375 14.980469 1473.917969 C 16.777344 1474.273438 18.414062 1475 19.886719 1476.089844 C 23.929688 1479.152344 26.027344 1485.039062 26.109375 1493.535156 C 26.367188 1520.867188 -20.128906 1526.34375 -23.195312 1526.671875 C -56.238281 1526.671875 -77.558594 1519.285156 -86.5 1504.789062 C -90.039062 1499.097656 -91.234375 1492.859375 -91.242188 1487.050781 Z M -89.90625 1530 C -89.625 1523.75 -82.765625 1519.863281 -77.347656 1522.96875 C -64.699219 1530.253906 -46.535156 1533.941406 -23.011719 1533.941406 L -22.671875 1533.941406 C -21.433594 1533.828125 -5.105469 1532.171875 9.609375 1525.207031 C 15.480469 1522.433594 21.898438 1528.25 19.222656 1534.152344 L 19.144531 1534.320312 C 11.019531 1551.945312 -23.492188 1572.152344 -59.03125 1563.632812 C -73.566406 1560.164062 -83.082031 1553.695312 -87.324219 1544.421875 C -89.347656 1539.820312 -90.210938 1535.007812 -89.90625 1529.988281 Z M -27.664062 1596.875 L -28.015625 1596.933594 C -38.652344 1598.765625 -50.15625 1598.210938 -60.597656 1594.023438 C -73.375 1588.914062 -81.039062 1582.402344 -83.382812 1574.605469 C -84.980469 1569.320312 -83.753906 1564.378906 -82.476562 1561.242188 C -76.804688 1565.414062 -69.578125 1568.597656 -60.753906 1570.707031 C -54.496094 1572.199219 -48.152344 1572.941406 -41.71875 1572.941406 C -35.425781 1572.921875 -29.210938 1572.222656 -23.070312 1570.851562 C -16.929688 1569.480469 -11.007812 1567.464844 -5.300781 1564.808594 C 2.6875 1561.101562 10.859375 1570.328125 6.105469 1577.75 L 5.980469 1577.945312 C 0.0507812 1586.988281 -12.929688 1594.261719 -27.664062 1596.875 Z M 143.351562 1566.023438 C 136.082031 1589.632812 125.894531 1605.164062 114.664062 1609.75 C 112.6875 1610.554688 110.636719 1611.03125 108.511719 1611.175781 C 106.382812 1611.320312 104.289062 1611.128906 102.222656 1610.601562 C 92.753906 1608.34375 90.023438 1596.132812 97.054688 1589.398438 C 106.988281 1579.890625 114.496094 1567.371094 119.324219 1552.019531 C 119.453125 1551.566406 119.488281 1551.105469 119.433594 1550.636719 C 119.378906 1550.167969 119.242188 1549.726562 119.015625 1549.3125 C 118.789062 1548.898438 118.496094 1548.542969 118.132812 1548.242188 C 117.769531 1547.945312 117.363281 1547.722656 116.914062 1547.582031 C 116.464844 1547.441406 116.003906 1547.390625 115.535156 1547.425781 C 115.0625 1547.464844 114.617188 1547.589844 114.195312 1547.796875 C 113.777344 1548.007812 113.410156 1548.292969 113.097656 1548.644531 C 112.785156 1549 112.550781 1549.398438 112.394531 1549.84375 C 105.367188 1572.105469 88.347656 1599.496094 46.929688 1603.519531 C 27.042969 1605.4375 12.085938 1605.175781 1.105469 1604.050781 C -3.757812 1603.546875 -5.320312 1597.109375 -1.195312 1594.464844 C 4.394531 1590.898438 8.980469 1586.617188 12.054688 1581.921875 C 16.1875 1575.609375 17.203125 1569.039062 15.171875 1562.910156 C 14.765625 1561.601562 14.535156 1560.257812 14.484375 1558.886719 C 14.429688 1557.515625 14.558594 1556.164062 14.867188 1554.824219 C 15.171875 1553.488281 15.648438 1552.214844 16.296875 1551.003906 C 16.941406 1549.792969 17.734375 1548.6875 18.671875 1547.6875 C 21.554688 1544.601562 23.910156 1541.15625 25.746094 1537.355469 C 29.578125 1529.113281 28.714844 1521.507812 23.664062 1515.832031 C 29.503906 1510.222656 33.464844 1502.9375 33.375 1493.464844 C 33.40625 1488.976562 32.714844 1484.605469 31.296875 1480.347656 C 32.75 1478.457031 34.367188 1476.71875 36.148438 1475.132812 C 37.929688 1473.542969 39.84375 1472.140625 41.890625 1470.914062 C 43.933594 1469.6875 46.078125 1468.667969 48.316406 1467.84375 C 50.554688 1467.023438 52.851562 1466.421875 55.203125 1466.03125 C 56.375 1465.867188 57.46875 1465.476562 58.480469 1464.863281 C 59.492188 1464.25 60.339844 1463.460938 61.03125 1462.5 C 61.4375 1461.902344 61.757812 1461.261719 61.992188 1460.578125 C 62.226562 1459.898438 62.367188 1459.195312 62.414062 1458.476562 C 62.457031 1457.753906 62.410156 1457.039062 62.265625 1456.332031 C 62.121094 1455.625 61.886719 1454.949219 61.558594 1454.304688 L 56.78125 1444.722656 C 56.566406 1444.289062 56.277344 1443.914062 55.910156 1443.601562 C 55.546875 1443.285156 55.136719 1443.050781 54.679688 1442.898438 C 54.222656 1442.746094 53.753906 1442.683594 53.273438 1442.71875 C 52.792969 1442.753906 52.335938 1442.878906 51.902344 1443.09375 C 51.472656 1443.308594 51.097656 1443.601562 50.785156 1443.964844 C 50.46875 1444.328125 50.234375 1444.738281 50.082031 1445.195312 C 49.929688 1445.65625 49.871094 1446.125 49.902344 1446.605469 C 49.9375 1447.085938 50.0625 1447.542969 50.277344 1447.972656 L 55.0625 1457.558594 C 55.125 1457.679688 55.160156 1457.8125 55.160156 1457.949219 C 55.160156 1458.089844 55.125 1458.21875 55.0625 1458.339844 C 55 1458.464844 54.910156 1458.566406 54.796875 1458.644531 C 54.6875 1458.722656 54.5625 1458.773438 54.425781 1458.792969 C 50.070312 1459.5 45.90625 1460.804688 41.929688 1462.710938 C 37.953125 1464.617188 34.328125 1467.042969 31.046875 1469.996094 C 30.59375 1470.410156 30.085938 1470.734375 29.515625 1470.972656 C 28.949219 1471.210938 28.359375 1471.34375 27.742188 1471.371094 C 27.128906 1471.402344 26.527344 1471.328125 25.941406 1471.144531 C 25.351562 1470.964844 24.8125 1470.691406 24.320312 1470.320312 L 24.289062 1470.289062 C 23.535156 1469.722656 22.742188 1469.214844 21.914062 1468.769531 C 21.660156 1468.625 21.421875 1468.460938 21.203125 1468.269531 C 20.984375 1468.078125 20.789062 1467.863281 20.613281 1467.632812 C 20.4375 1467.398438 20.292969 1467.148438 20.167969 1466.886719 C 20.046875 1466.621094 19.953125 1466.347656 19.890625 1466.0625 C 19.828125 1465.78125 19.792969 1465.492188 19.789062 1465.203125 C 19.785156 1464.910156 19.8125 1464.625 19.871094 1464.339844 C 19.929688 1464.054688 20.015625 1463.777344 20.132812 1463.511719 C 20.246094 1463.242188 20.390625 1462.992188 20.558594 1462.753906 L 20.558594 1462.714844 C 24.984375 1456.410156 26.308594 1449.386719 23.988281 1444.382812 C 16.738281 1428.65625 -2.753906 1423.324219 -33.941406 1428.527344 C -34.410156 1428.617188 -34.839844 1428.792969 -35.238281 1429.050781 C -35.632812 1429.308594 -35.96875 1429.632812 -36.238281 1430.023438 C -36.507812 1430.414062 -36.695312 1430.839844 -36.800781 1431.300781 C -36.902344 1431.765625 -36.914062 1432.230469 -36.835938 1432.699219 C -36.757812 1433.167969 -36.59375 1433.601562 -36.347656 1434.003906 C -36.097656 1434.410156 -35.78125 1434.75 -35.398438 1435.03125 C -35.015625 1435.3125 -34.597656 1435.507812 -34.136719 1435.625 C -33.675781 1435.738281 -33.210938 1435.765625 -32.742188 1435.699219 C -5.1875 1431.097656 11.679688 1435.058594 17.390625 1447.425781 C 18.378906 1449.578125 17.90625 1453.8125 14.609375 1458.542969 C 10.011719 1465.101562 -5.671875 1479.917969 -51.378906 1475.996094 C -76.382812 1473.847656 -89.804688 1464.199219 -91.269531 1447.320312 C -92.269531 1435.773438 -86.554688 1424.027344 -76.351562 1416.648438 C -26.953125 1381.046875 34.320312 1414.410156 34.9375 1414.730469 C 35.015625 1414.777344 35.105469 1414.777344 35.1875 1414.8125 C 36.511719 1418.230469 38.136719 1421.5 40.0625 1424.617188 C 40.292969 1424.988281 40.484375 1425.257812 40.597656 1425.503906 C 40.84375 1425.898438 41.152344 1426.234375 41.523438 1426.511719 C 41.894531 1426.789062 42.304688 1426.988281 42.753906 1427.105469 C 43.199219 1427.226562 43.652344 1427.257812 44.113281 1427.207031 C 44.574219 1427.152344 45.007812 1427.015625 45.417969 1426.792969 C 45.824219 1426.574219 46.175781 1426.289062 46.476562 1425.933594 C 46.773438 1425.578125 46.996094 1425.179688 47.140625 1424.738281 C 47.289062 1424.300781 47.347656 1423.847656 47.320312 1423.386719 C 47.292969 1422.921875 47.183594 1422.480469 46.988281 1422.0625 C 46.816406 1421.742188 46.554688 1421.308594 46.214844 1420.78125 C 36.8125 1405.703125 34.078125 1382.441406 38.179688 1351.59375 C 41.28125 1328.070312 52.164062 1312.300781 67.285156 1309.417969 C 77.140625 1307.539062 86.609375 1311.890625 91.421875 1320.511719 C 101.21875 1338.066406 88.597656 1403.074219 82.90625 1426.644531 C 82.792969 1427.109375 82.773438 1427.582031 82.847656 1428.058594 C 82.921875 1428.535156 83.082031 1428.980469 83.335938 1429.390625 C 83.585938 1429.800781 83.90625 1430.148438 84.292969 1430.433594 C 84.683594 1430.71875 85.113281 1430.914062 85.582031 1431.027344 C 86.050781 1431.140625 86.519531 1431.160156 86.996094 1431.085938 C 87.472656 1431.011719 87.917969 1430.847656 88.328125 1430.597656 C 88.738281 1430.347656 89.085938 1430.027344 89.371094 1429.636719 C 89.652344 1429.246094 89.851562 1428.816406 89.964844 1428.347656 C 89.964844 1428.285156 90.488281 1426.183594 91.28125 1422.628906 C 97.554688 1429.019531 113.441406 1449.117188 117.34375 1491.121094 C 117.539062 1493.152344 117.691406 1495.183594 117.816406 1497.210938 C 117.847656 1497.671875 117.957031 1498.113281 118.152344 1498.53125 C 118.351562 1498.949219 118.617188 1499.320312 118.953125 1499.636719 C 119.289062 1499.953125 119.671875 1500.195312 120.101562 1500.367188 C 120.53125 1500.539062 120.976562 1500.625 121.441406 1500.625 L 121.671875 1500.625 C 122.148438 1500.59375 122.605469 1500.472656 123.035156 1500.261719 C 123.46875 1500.050781 123.839844 1499.765625 124.160156 1499.40625 C 124.476562 1499.046875 124.714844 1498.640625 124.875 1498.1875 C 125.03125 1497.734375 125.097656 1497.269531 125.070312 1496.789062 C 124.941406 1494.683594 124.78125 1492.578125 124.582031 1490.46875 C 124.417969 1488.71875 124.238281 1487 124.035156 1485.320312 C 122.992188 1476.648438 127.121094 1467.886719 135.015625 1464.152344 L 135.335938 1464.007812 C 135.746094 1463.828125 136.167969 1463.683594 136.601562 1463.574219 C 137.039062 1463.464844 137.480469 1463.394531 137.925781 1463.363281 C 138.371094 1463.328125 138.820312 1463.332031 139.265625 1463.375 C 139.710938 1463.417969 140.148438 1463.496094 140.582031 1463.613281 C 141.015625 1463.730469 141.433594 1463.882812 141.839844 1464.070312 C 142.25 1464.257812 142.636719 1464.480469 143.003906 1464.734375 C 143.375 1464.988281 143.71875 1465.269531 144.039062 1465.582031 C 144.363281 1465.894531 144.65625 1466.234375 144.917969 1466.59375 C 150.164062 1473.734375 152.917969 1484.367188 153.082031 1498.414062 C 153.351562 1520.125 149.703125 1545.40625 143.351562 1566.023438 Z M 125.394531 1529.65625 C 125.480469 1530.128906 125.472656 1530.601562 125.375 1531.070312 C 125.273438 1531.542969 125.085938 1531.976562 124.808594 1532.371094 C 124.535156 1532.769531 124.199219 1533.097656 123.792969 1533.359375 C 123.386719 1533.617188 122.949219 1533.792969 122.476562 1533.878906 C 119.242188 1534.46875 115.984375 1534.765625 112.699219 1534.765625 C 91.421875 1534.765625 76.214844 1522.421875 75.492188 1521.828125 C 75.121094 1521.519531 74.824219 1521.152344 74.597656 1520.726562 C 74.375 1520.300781 74.238281 1519.847656 74.191406 1519.371094 C 74.144531 1518.890625 74.195312 1518.421875 74.335938 1517.960938 C 74.476562 1517.5 74.699219 1517.082031 75.007812 1516.710938 C 75.3125 1516.339844 75.679688 1516.039062 76.101562 1515.816406 C 76.527344 1515.589844 76.980469 1515.453125 77.460938 1515.40625 C 77.941406 1515.359375 78.410156 1515.40625 78.871094 1515.546875 C 79.332031 1515.6875 79.746094 1515.910156 80.121094 1516.214844 C 80.296875 1516.363281 98.320312 1530.914062 121.171875 1526.734375 C 121.644531 1526.648438 122.117188 1526.652344 122.589844 1526.753906 C 123.058594 1526.855469 123.492188 1527.042969 123.890625 1527.316406 C 124.285156 1527.589844 124.613281 1527.929688 124.875 1528.335938 C 125.136719 1528.742188 125.308594 1529.179688 125.394531 1529.65625 Z M 125.394531 1529.65625 " fill-opacity="1" fill-rule="nonzero"/></g></svg>