<svg xmlns="http://www.w3.org/2000/svg" xmlns:xlink="http://www.w3.org/1999/xlink" width="1080" zoomAndPan="magnify" viewBox="0 0 810 1439.999935" height="1920" preserveAspectRatio="xMidYMid meet" version="1.0"><defs><clipPath id="6d213e6158"><path d="M 357 0 L 756 0 L 756 365.089844 L 357 365.089844 Z M 357 0 " clip-rule="nonzero"/></clipPath></defs><path fill="#181818" d="M 400.210938 205.449219 L 389.589844 155.765625 L 391.992188 100.3125 L 397.828125 29.742188 L 405.261719 -1.824219 L 427.816406 -12.96875 L 442.148438 -6.070312 L 456.21875 2.457031 L 461.332031 30.277344 L 459.140625 47.789062 L 459.875 70.585938 L 466.664062 70.585938 L 487.75 59.980469 L 519.269531 7.824219 L 541.820312 -3.078125 L 569.214844 4.183594 L 577.417969 23.8125 L 585.214844 31.324219 L 597.339844 31.324219 L 614.066406 37.867188 L 626.765625 59.980469 L 631.519531 80.28125 L 638.554688 80.28125 L 652.160156 86.578125 L 664.222656 92.632812 L 666.621094 106.9375 L 665.167969 134.558594 L 647.527344 166.308594 L 662.734375 159.761719 L 678.316406 150.066406 L 721.230469 136.03125 L 738.921875 136.03125 L 751.289062 147.15625 L 745.253906 164.851562 L 717.84375 199.769531 L 676.371094 229.980469 L 657.019531 243.125 L 636.128906 265.898438 L 607.039062 285.042969 L 579.386719 304.183594 L 582.589844 316.0625 L 582.589844 329.664062 L 577.980469 344.203125 L 565.132812 358.019531 L 541.371094 359.957031 L 508.128906 357.164062 L 458.507812 342.652344 L 409.128906 315.800781 L 371.65625 279.835938 L 361.484375 253.4375 L 368.269531 226.460938 L 394.515625 218.144531 Z M 400.210938 205.449219 " fill-opacity="1" fill-rule="nonzero"/><g clip-path="url(#6d213e6158)"><path fill="#b15cff" d="M 530.128906 202.863281 C 530.746094 204.207031 545.0625 236.367188 518.019531 286.394531 C 517.855469 286.699219 517.660156 286.984375 517.441406 287.253906 C 517.21875 287.519531 516.972656 287.761719 516.707031 287.980469 C 516.4375 288.199219 516.148438 288.390625 515.839844 288.554688 C 515.535156 288.714844 515.214844 288.847656 514.882812 288.945312 C 514.550781 289.042969 514.210938 289.109375 513.867188 289.144531 C 513.519531 289.175781 513.175781 289.175781 512.832031 289.140625 C 512.484375 289.105469 512.148438 289.035156 511.816406 288.933594 C 511.484375 288.832031 511.164062 288.699219 510.859375 288.535156 C 510.554688 288.367188 510.269531 288.175781 510 287.953125 C 509.734375 287.734375 509.492188 287.488281 509.273438 287.21875 C 509.054688 286.949219 508.863281 286.664062 508.699219 286.355469 C 508.539062 286.050781 508.40625 285.730469 508.308594 285.398438 C 508.207031 285.066406 508.140625 284.726562 508.109375 284.382812 C 508.078125 284.039062 508.078125 283.691406 508.113281 283.347656 C 508.148438 283.003906 508.21875 282.664062 508.320312 282.332031 C 508.421875 282 508.554688 281.683594 508.71875 281.378906 C 533.066406 236.339844 520.644531 207.558594 520.515625 207.273438 C 520.390625 206.960938 520.296875 206.636719 520.230469 206.308594 C 520.167969 205.976562 520.136719 205.644531 520.132812 205.308594 C 520.132812 204.972656 520.164062 204.636719 520.230469 204.308594 C 520.292969 203.976562 520.386719 203.65625 520.511719 203.34375 C 520.636719 203.03125 520.789062 202.734375 520.96875 202.449219 C 521.152344 202.167969 521.359375 201.902344 521.589844 201.660156 C 521.820312 201.414062 522.074219 201.195312 522.347656 201 C 522.621094 200.804688 522.910156 200.636719 523.21875 200.496094 C 523.523438 200.355469 523.839844 200.246094 524.167969 200.164062 C 524.492188 200.085938 524.824219 200.035156 525.160156 200.019531 C 525.496094 200.003906 525.832031 200.015625 526.164062 200.066406 C 526.5 200.113281 526.824219 200.191406 527.144531 200.300781 C 527.460938 200.410156 527.765625 200.546875 528.058594 200.714844 C 528.351562 200.882812 528.625 201.074219 528.878906 201.296875 C 529.132812 201.515625 529.367188 201.757812 529.574219 202.019531 C 529.78125 202.285156 529.964844 202.566406 530.121094 202.863281 Z M 543.332031 205.761719 C 543.003906 205.871094 542.691406 206.011719 542.390625 206.183594 C 542.089844 206.355469 541.808594 206.558594 541.546875 206.785156 C 541.285156 207.011719 541.046875 207.265625 540.835938 207.539062 C 540.621094 207.8125 540.441406 208.105469 540.285156 208.414062 C 540.128906 208.726562 540.007812 209.046875 539.917969 209.382812 C 539.824219 209.71875 539.769531 210.058594 539.742188 210.402344 C 539.71875 210.75 539.730469 211.09375 539.773438 211.4375 C 539.816406 211.78125 539.894531 212.117188 540.003906 212.449219 C 540.066406 212.640625 546.40625 231.949219 537.875 246.628906 C 537.703125 246.929688 537.558594 247.242188 537.449219 247.570312 C 537.335938 247.898438 537.257812 248.230469 537.210938 248.574219 C 537.167969 248.917969 537.15625 249.261719 537.179688 249.605469 C 537.199219 249.953125 537.253906 250.292969 537.34375 250.625 C 537.433594 250.960938 537.554688 251.28125 537.707031 251.59375 C 537.859375 251.902344 538.042969 252.195312 538.253906 252.46875 C 538.460938 252.746094 538.699219 252.996094 538.957031 253.226562 C 539.21875 253.453125 539.496094 253.65625 539.796875 253.828125 C 540.613281 254.308594 541.496094 254.546875 542.445312 254.546875 C 543.390625 254.546875 544.269531 254.3125 545.085938 253.839844 C 545.90625 253.367188 546.550781 252.726562 547.023438 251.910156 C 557.90625 233.148438 550.351562 210.046875 550.03125 209.070312 C 549.921875 208.742188 549.78125 208.429688 549.609375 208.128906 C 549.4375 207.832031 549.238281 207.550781 549.011719 207.289062 C 548.785156 207.027344 548.539062 206.789062 548.265625 206.578125 C 547.992188 206.367188 547.699219 206.183594 547.390625 206.027344 C 547.082031 205.871094 546.761719 205.746094 546.429688 205.65625 C 546.097656 205.5625 545.757812 205.503906 545.414062 205.476562 C 545.070312 205.449219 544.726562 205.457031 544.382812 205.5 C 544.039062 205.539062 543.703125 205.613281 543.375 205.71875 Z M 755.332031 154.484375 C 749.542969 183.816406 690.578125 229.359375 662.628906 243.4375 C 660.15625 244.664062 658.023438 246.324219 656.226562 248.421875 C 643.875 262.804688 630.058594 275.617188 614.785156 286.859375 C 610.378906 290.058594 605.976562 292.992188 601.582031 295.65625 C 593.007812 300.847656 588.609375 310.542969 589.65625 320.511719 C 589.761719 321.511719 589.824219 322.542969 589.839844 323.589844 C 590.054688 337.191406 582.796875 351.140625 571.777344 358.339844 C 564.414062 363.140625 555.769531 365.058594 545.191406 365.058594 C 531 365.058594 513.289062 361.644531 490.375 357.21875 L 484.636719 356.117188 C 444.996094 348.453125 351.496094 296.410156 358.027344 246.179688 C 360.570312 226.566406 369.96875 216.773438 379.515625 211.933594 C 387.632812 207.824219 391.558594 198.550781 389.503906 189.695312 C 384.910156 169.921875 382.636719 145.894531 384.703125 116.902344 L 385.0625 111.824219 C 391.257812 23.484375 394.089844 -16.824219 432.320312 -17.917969 C 442.957031 -18.175781 451.929688 -12.320312 458.378906 -0.976562 C 467.488281 15.023438 469.726562 37.054688 467.277344 58.476562 C 467.253906 58.691406 467.242188 58.90625 467.246094 59.121094 C 467.246094 59.335938 467.261719 59.550781 467.292969 59.765625 C 467.320312 59.980469 467.363281 60.191406 467.417969 60.398438 C 467.472656 60.609375 467.539062 60.8125 467.621094 61.011719 C 467.699219 61.214844 467.792969 61.40625 467.898438 61.597656 C 468.003906 61.785156 468.117188 61.96875 468.246094 62.140625 C 468.371094 62.316406 468.507812 62.484375 468.65625 62.640625 C 468.804688 62.796875 468.960938 62.945312 469.125 63.085938 C 469.292969 63.222656 469.464844 63.351562 469.648438 63.464844 C 469.828125 63.582031 470.015625 63.6875 470.210938 63.78125 C 470.40625 63.875 470.605469 63.957031 470.808594 64.027344 C 471.015625 64.09375 471.222656 64.148438 471.433594 64.195312 C 471.644531 64.238281 471.859375 64.265625 472.074219 64.28125 C 472.289062 64.300781 472.507812 64.304688 472.722656 64.292969 C 472.9375 64.28125 473.152344 64.261719 473.363281 64.222656 C 473.578125 64.1875 473.785156 64.136719 473.992188 64.074219 L 474.160156 64.019531 C 475.289062 63.675781 476.359375 63.207031 477.371094 62.605469 C 478.386719 62.007812 479.316406 61.300781 480.160156 60.480469 C 481.003906 59.660156 481.738281 58.75 482.367188 57.753906 C 482.992188 56.757812 483.496094 55.703125 483.871094 54.585938 C 492.367188 29.574219 508.75 5.359375 531.695312 -5.40625 C 534.292969 -6.613281 537.011719 -7.417969 539.84375 -7.828125 C 542.679688 -8.234375 545.511719 -8.230469 548.34375 -7.808594 C 557.820312 -6.464844 570.65625 -2.488281 578.019531 8.808594 C 578.417969 9.429688 578.820312 10.0625 579.15625 10.71875 C 582.972656 17.65625 589.824219 22.277344 597.492188 24.253906 C 616.265625 29.09375 628.359375 41.675781 634.21875 62.417969 L 634.21875 62.5 C 634.65625 64.035156 635.273438 65.496094 636.058594 66.886719 C 636.847656 68.277344 637.789062 69.554688 638.882812 70.722656 C 639.972656 71.886719 641.1875 72.910156 642.523438 73.789062 C 643.859375 74.664062 645.277344 75.375 646.78125 75.914062 C 653.984375 78.570312 661.628906 82.9375 666.902344 90.128906 C 673.511719 99.136719 675.027344 110.582031 671.410156 124.148438 C 668.332031 135.695312 663.777344 146.628906 657.746094 156.949219 L 658.445312 156.722656 C 663.90625 154.972656 669.035156 152.523438 673.824219 149.371094 C 694.066406 136.125 730.945312 116.808594 750.496094 136.367188 C 753.683594 139.574219 757.132812 145.316406 755.332031 154.445312 Z M 658.203125 96.121094 C 649.214844 84.226562 630.519531 86.328125 623.789062 99.640625 C 616.496094 114.078125 607.757812 127.582031 597.570312 140.148438 L 596.890625 140.949219 C 595.445312 142.617188 594.242188 144.445312 593.28125 146.429688 C 592.324219 148.417969 591.644531 150.5 591.242188 152.667969 C 590.105469 159.46875 590.921875 166.730469 593.714844 172.492188 C 595.660156 176.488281 599.484375 181.640625 606.679688 183.34375 C 623.171875 187.257812 650.59375 161.042969 661.171875 121.414062 C 663.925781 111.109375 662.988281 102.695312 658.386719 96.402344 Z M 544.558594 106.742188 C 540.71875 110.53125 537.703125 114.882812 535.507812 119.804688 C 531.753906 128.214844 528.558594 139.375 532.304688 147.003906 C 535.28125 153.117188 542.710938 156.722656 554.433594 157.714844 C 563.421875 158.515625 576.097656 149.605469 589.472656 133.40625 C 605.277344 114.277344 617.746094 90.207031 622.332031 76.011719 C 622.402344 75.664062 622.507812 75.328125 622.652344 75.003906 C 624.03125 70.5 624.566406 67.066406 624.0625 65.273438 C 620.859375 54.074219 615.082031 41.589844 599.074219 35.8125 C 598.617188 35.652344 598.15625 35.515625 597.683594 35.40625 C 597.214844 35.292969 596.738281 35.203125 596.257812 35.140625 C 595.777344 35.078125 595.296875 35.039062 594.8125 35.027344 C 594.328125 35.011719 593.847656 35.023438 593.363281 35.058594 C 592.882812 35.097656 592.402344 35.15625 591.925781 35.242188 C 591.449219 35.328125 590.976562 35.441406 590.511719 35.574219 C 590.046875 35.710938 589.589844 35.867188 589.144531 36.050781 C 588.695312 36.230469 588.257812 36.433594 587.828125 36.660156 C 587.402344 36.890625 586.988281 37.136719 586.585938 37.40625 C 586.183594 37.675781 585.796875 37.964844 585.425781 38.277344 C 585.054688 38.585938 584.699219 38.914062 584.359375 39.261719 C 584.023438 39.605469 583.703125 39.96875 583.402344 40.347656 C 583.101562 40.726562 582.820312 41.121094 582.5625 41.53125 C 582.304688 41.9375 582.066406 42.359375 581.847656 42.792969 C 581.632812 43.222656 581.4375 43.667969 581.269531 44.121094 C 581.097656 44.570312 580.953125 45.03125 580.828125 45.5 L 580.789062 45.644531 C 574.335938 68.476562 560.539062 91.015625 544.550781 106.742188 Z M 495.507812 115.472656 C 501.707031 119.046875 509.320312 117.230469 514.601562 115.078125 C 534.105469 107.144531 560.363281 79.082031 570.625 42.765625 C 574.019531 30.765625 573.53125 21.269531 569.160156 14.582031 C 563.964844 6.582031 554.167969 3.695312 546.863281 2.65625 C 545.921875 2.523438 544.980469 2.457031 544.03125 2.457031 C 541.28125 2.4375 538.660156 3.007812 536.171875 4.167969 C 507.542969 17.613281 489.09375 57.761719 487.800781 88.753906 C 487.253906 102.175781 490.199219 112.414062 495.5 115.472656 Z M 463.542969 78.675781 C 462.933594 81.042969 462.273438 83.371094 461.554688 85.65625 C 461.398438 86.140625 461.328125 86.640625 461.339844 87.148438 C 461.351562 87.660156 461.449219 88.152344 461.628906 88.628906 C 461.808594 89.105469 462.0625 89.539062 462.390625 89.929688 C 462.71875 90.320312 463.101562 90.644531 463.542969 90.90625 C 465.941406 92.34375 468.855469 94.183594 472.03125 96.441406 C 472.535156 96.800781 473.09375 97.003906 473.707031 97.046875 C 474.324219 97.089844 474.90625 96.96875 475.453125 96.683594 C 476 96.394531 476.429688 95.988281 476.746094 95.457031 C 477.058594 94.925781 477.214844 94.351562 477.203125 93.738281 C 477.203125 91.984375 477.203125 90.167969 477.265625 88.304688 C 477.394531 85.183594 477.699219 81.960938 478.148438 78.707031 C 478.183594 78.4375 478.1875 78.167969 478.160156 77.898438 C 478.132812 77.628906 478.070312 77.367188 477.980469 77.109375 C 477.886719 76.855469 477.765625 76.613281 477.617188 76.390625 C 477.464844 76.164062 477.292969 75.957031 477.09375 75.773438 C 476.890625 75.589844 476.671875 75.433594 476.4375 75.304688 C 476.199219 75.171875 475.949219 75.074219 475.6875 75.003906 C 475.421875 74.933594 475.15625 74.894531 474.886719 74.890625 C 474.613281 74.882812 474.347656 74.910156 474.082031 74.96875 C 471.621094 75.53125 469.132812 75.910156 466.613281 76.097656 C 466.253906 76.125 465.90625 76.203125 465.570312 76.339844 C 465.238281 76.472656 464.929688 76.660156 464.65625 76.890625 C 464.378906 77.121094 464.144531 77.390625 463.953125 77.699219 C 463.761719 78.003906 463.621094 78.332031 463.535156 78.683594 Z M 449.65625 88.378906 C 460.859375 58.730469 459.621094 22.597656 449.191406 4.230469 C 444.726562 -3.632812 439.332031 -7.472656 432.632812 -7.351562 C 405.269531 -6.550781 401.949219 22.085938 395.585938 112.542969 L 395.226562 117.613281 C 387.472656 227.503906 444.933594 261.859375 445.503906 262.195312 C 445.804688 262.367188 446.085938 262.570312 446.347656 262.796875 C 446.609375 263.023438 446.84375 263.277344 447.054688 263.550781 C 447.269531 263.824219 447.453125 264.117188 447.605469 264.429688 C 447.757812 264.738281 447.882812 265.0625 447.972656 265.398438 C 448.0625 265.734375 448.121094 266.074219 448.144531 266.417969 C 448.167969 266.765625 448.15625 267.109375 448.113281 267.453125 C 448.066406 267.796875 447.988281 268.136719 447.878906 268.464844 C 447.769531 268.792969 447.625 269.105469 447.453125 269.40625 C 447.28125 269.707031 447.078125 269.988281 446.851562 270.25 C 446.621094 270.511719 446.371094 270.75 446.097656 270.960938 C 445.820312 271.171875 445.527344 271.355469 445.21875 271.507812 C 444.90625 271.664062 444.582031 271.785156 444.25 271.875 C 443.914062 271.964844 443.570312 272.023438 443.226562 272.046875 C 442.878906 272.070312 442.535156 272.058594 442.191406 272.015625 C 441.847656 271.96875 441.507812 271.890625 441.179688 271.78125 C 440.851562 271.667969 440.535156 271.527344 440.234375 271.355469 C 438.957031 270.617188 423.667969 261.46875 409.34375 238.683594 C 398.371094 221.261719 371.542969 226.351562 368.617188 246.75 C 368.574219 247.011719 368.535156 247.277344 368.503906 247.546875 C 363.363281 287.105469 444.589844 337.644531 486.628906 345.71875 L 492.386719 346.820312 C 528.488281 353.789062 552.351562 358.386719 566.015625 349.476562 C 573.875 344.339844 579.453125 333.519531 579.300781 323.726562 L 579.300781 323.65625 C 579.148438 315.792969 571.761719 309.878906 564.132812 311.808594 C 556.226562 313.851562 548.191406 314.890625 540.027344 314.925781 C 530.285156 314.957031 520.820312 313.359375 511.632812 310.128906 C 511.304688 310.011719 510.992188 309.867188 510.695312 309.6875 C 510.394531 309.511719 510.117188 309.308594 509.859375 309.074219 C 509.601562 308.84375 509.371094 308.589844 509.160156 308.3125 C 508.953125 308.03125 508.773438 307.738281 508.625 307.425781 C 508.476562 307.113281 508.359375 306.789062 508.273438 306.453125 C 508.1875 306.117188 508.136719 305.773438 508.117188 305.429688 C 508.097656 305.082031 508.113281 304.738281 508.164062 304.394531 C 508.214844 304.050781 508.296875 303.714844 508.410156 303.386719 C 508.527344 303.0625 508.671875 302.75 508.851562 302.449219 C 509.027344 302.152344 509.230469 301.875 509.464844 301.617188 C 509.695312 301.359375 509.953125 301.125 510.230469 300.917969 C 510.507812 300.710938 510.800781 300.53125 511.117188 300.382812 C 511.429688 300.234375 511.753906 300.117188 512.089844 300.03125 C 512.425781 299.945312 512.765625 299.890625 513.113281 299.875 C 513.460938 299.855469 513.804688 299.871094 514.148438 299.921875 C 514.492188 299.96875 514.828125 300.054688 515.152344 300.167969 C 583.132812 324.167969 650.816406 238.460938 651.496094 237.597656 L 652.34375 236.5 L 653.632812 235.964844 C 679.117188 225.316406 739.941406 177.96875 744.980469 152.421875 C 745.957031 147.476562 744.324219 145.164062 743.011719 143.851562 C 727.808594 128.652344 690.640625 151.011719 679.613281 158.25 C 674.03125 161.914062 668.0625 164.765625 661.707031 166.8125 L 647.886719 171.234375 C 645.824219 173.792969 643.632812 176.238281 641.308594 178.5625 C 647.070312 184.433594 655.890625 196.527344 655.890625 215.503906 C 655.90625 215.859375 655.882812 216.210938 655.824219 216.5625 C 655.765625 216.914062 655.675781 217.257812 655.546875 217.589844 C 655.421875 217.921875 655.261719 218.238281 655.074219 218.539062 C 654.882812 218.839844 654.664062 219.117188 654.417969 219.375 C 654.171875 219.628906 653.902344 219.859375 653.605469 220.0625 C 653.3125 220.265625 653.003906 220.433594 652.675781 220.574219 C 652.347656 220.714844 652.011719 220.820312 651.660156 220.890625 C 651.3125 220.960938 650.960938 220.996094 650.605469 220.996094 C 650.25 220.996094 649.894531 220.960938 649.546875 220.890625 C 649.199219 220.820312 648.859375 220.714844 648.53125 220.574219 C 648.203125 220.433594 647.894531 220.265625 647.601562 220.0625 C 647.308594 219.859375 647.039062 219.628906 646.792969 219.375 C 646.542969 219.117188 646.328125 218.839844 646.136719 218.539062 C 645.945312 218.238281 645.785156 217.921875 645.660156 217.589844 C 645.535156 217.257812 645.441406 216.914062 645.382812 216.5625 C 645.328125 216.210938 645.304688 215.859375 645.316406 215.503906 C 645.355469 209.707031 644.285156 204.121094 642.117188 198.746094 C 641.753906 197.871094 641.308594 197.039062 640.777344 196.253906 C 640.246094 195.46875 639.644531 194.746094 638.96875 194.082031 C 638.292969 193.421875 637.554688 192.832031 636.761719 192.316406 C 635.964844 191.800781 635.125 191.371094 634.246094 191.023438 C 633.363281 190.679688 632.457031 190.425781 631.523438 190.261719 C 630.589844 190.097656 629.648438 190.027344 628.703125 190.054688 C 627.753906 190.082031 626.820312 190.203125 625.898438 190.417969 C 624.976562 190.628906 624.082031 190.933594 623.222656 191.328125 C 619.042969 193.257812 614.652344 194.265625 610.046875 194.34375 C 608.097656 194.347656 606.171875 194.128906 604.269531 193.679688 C 595.464844 191.609375 588.382812 185.746094 584.222656 177.152344 C 584.078125 176.867188 583.941406 176.570312 583.8125 176.273438 C 583.390625 175.34375 582.882812 174.457031 582.296875 173.617188 C 581.710938 172.773438 581.054688 171.996094 580.328125 171.273438 C 579.601562 170.550781 578.8125 169.902344 577.96875 169.324219 C 577.121094 168.746094 576.230469 168.25 575.292969 167.832031 C 574.359375 167.417969 573.390625 167.089844 572.394531 166.847656 C 571.398438 166.605469 570.390625 166.457031 569.367188 166.402344 C 568.34375 166.34375 567.324219 166.378906 566.308594 166.507812 C 565.292969 166.636719 564.292969 166.855469 563.316406 167.164062 C 560.761719 167.953125 558.144531 168.359375 555.464844 168.378906 C 554.808594 168.378906 554.160156 168.378906 553.503906 168.289062 C 537.820312 166.972656 527.472656 161.371094 522.757812 151.660156 C 518.371094 142.628906 520.019531 131.84375 523.019531 122.863281 C 521.539062 123.664062 520.050781 124.328125 518.570312 124.925781 C 513.78125 126.96875 508.78125 128.035156 503.574219 128.125 L 503.382812 128.125 C 506.207031 132.242188 508.75 136.527344 511 140.980469 C 513.253906 145.4375 515.199219 150.023438 516.835938 154.738281 C 518.476562 159.457031 519.789062 164.257812 520.785156 169.152344 C 521.777344 174.042969 522.441406 178.980469 522.773438 183.960938 C 522.796875 184.308594 522.789062 184.652344 522.746094 184.996094 C 522.703125 185.339844 522.625 185.675781 522.515625 186.007812 C 522.40625 186.335938 522.265625 186.652344 522.09375 186.953125 C 521.921875 187.253906 521.722656 187.535156 521.496094 187.800781 C 521.269531 188.0625 521.019531 188.300781 520.746094 188.511719 C 520.472656 188.726562 520.179688 188.910156 519.871094 189.066406 C 519.558594 189.222656 519.238281 189.347656 518.902344 189.4375 C 518.570312 189.53125 518.230469 189.589844 517.882812 189.617188 L 517.5 189.617188 C 517.167969 189.617188 516.839844 189.585938 516.515625 189.523438 C 516.191406 189.460938 515.875 189.371094 515.566406 189.25 C 515.257812 189.125 514.964844 188.976562 514.683594 188.800781 C 514.402344 188.625 514.140625 188.425781 513.898438 188.199219 C 513.65625 187.972656 513.4375 187.726562 513.242188 187.460938 C 513.046875 187.195312 512.875 186.914062 512.734375 186.613281 C 512.589844 186.316406 512.476562 186.007812 512.390625 185.6875 C 512.304688 185.367188 512.25 185.042969 512.226562 184.714844 C 509.398438 145.683594 486.207031 120.902344 469.34375 107.863281 C 468.980469 107.578125 468.605469 107.316406 468.21875 107.070312 C 467.828125 106.824219 467.425781 106.601562 467.015625 106.402344 C 466.601562 106.199219 466.179688 106.019531 465.746094 105.859375 C 465.316406 105.703125 464.875 105.570312 464.429688 105.457031 C 463.984375 105.347656 463.53125 105.261719 463.078125 105.195312 C 462.621094 105.132812 462.164062 105.09375 461.703125 105.078125 C 461.246094 105.0625 460.785156 105.074219 460.328125 105.105469 C 459.867188 105.140625 459.414062 105.195312 458.960938 105.277344 C 458.507812 105.359375 458.0625 105.464844 457.621094 105.59375 C 457.179688 105.722656 456.746094 105.875 456.320312 106.050781 C 455.894531 106.222656 455.480469 106.421875 455.074219 106.640625 C 454.671875 106.859375 454.277344 107.097656 453.898438 107.355469 C 453.519531 107.617188 453.15625 107.894531 452.804688 108.195312 C 452.457031 108.492188 452.125 108.808594 451.808594 109.144531 C 451.492188 109.476562 451.191406 109.824219 450.914062 110.191406 C 450.632812 110.554688 450.375 110.933594 450.136719 111.328125 L 449.929688 111.65625 C 449.742188 111.949219 449.527344 112.21875 449.289062 112.46875 C 449.046875 112.71875 448.785156 112.941406 448.5 113.140625 C 448.21875 113.339844 447.917969 113.507812 447.597656 113.648438 C 447.28125 113.789062 446.953125 113.894531 446.613281 113.96875 C 446.277344 114.042969 445.933594 114.085938 445.585938 114.09375 C 445.238281 114.101562 444.894531 114.074219 444.554688 114.011719 C 444.210938 113.953125 443.878906 113.859375 443.558594 113.734375 C 443.234375 113.609375 442.925781 113.453125 442.632812 113.265625 C 442.339844 113.078125 442.070312 112.867188 441.820312 112.625 C 441.570312 112.386719 441.34375 112.125 441.144531 111.839844 C 440.949219 111.554688 440.777344 111.253906 440.640625 110.9375 C 440.5 110.621094 440.390625 110.292969 440.316406 109.953125 C 440.242188 109.617188 440.199219 109.273438 440.195312 108.925781 C 440.1875 108.582031 440.210938 108.238281 440.273438 107.894531 C 440.332031 107.554688 440.425781 107.222656 440.550781 106.898438 C 440.679688 106.574219 440.832031 106.269531 441.019531 105.976562 C 443.960938 101.292969 446.460938 96.386719 448.519531 91.257812 " fill-opacity="1" fill-rule="nonzero"/></g><path fill="#181818" d="M 459.535156 193.34375 L 456.394531 138.632812 L 460.726562 105.128906 L 472.398438 78.492188 L 487.832031 67.886719 L 505.835938 61.300781 L 519.230469 67.566406 L 533.519531 80.75 L 540.140625 65.882812 L 591.9375 34.382812 L 625.601562 18.917969 L 674.300781 24.929688 L 697.332031 36.351562 L 723.636719 33.199219 L 762.503906 47.269531 L 791.761719 56.433594 L 806.523438 45.550781 L 824.8125 41.238281 L 837.675781 42.972656 L 848.535156 46.980469 L 865.683594 57.828125 L 879.375 80.5 L 888.019531 108.839844 L 892.269531 137.328125 L 892.269531 166.40625 L 888.019531 191.617188 L 879.6875 207.476562 L 870.828125 217.964844 L 856.824219 217.964844 L 848.25 213.382812 L 827.707031 234.574219 L 809.132812 248.132812 L 795.421875 253.824219 L 776.835938 258.605469 L 754.257812 270.640625 L 736.449219 271.035156 L 718.167969 289.335938 L 700.378906 291.789062 L 685.035156 280.871094 L 652.792969 280.871094 L 620.332031 279.976562 L 587.195312 267.9375 L 564.289062 257.699219 L 543.828125 255.910156 L 530.929688 269.039062 L 506.058594 269.039062 L 478.113281 253.824219 L 460.726562 204.484375 Z M 459.535156 193.34375 " fill-opacity="1" fill-rule="nonzero"/><path fill="#b15cff" d="M 591.859375 233.742188 C 591.789062 234.222656 591.636719 234.675781 591.402344 235.097656 C 591.167969 235.523438 590.871094 235.894531 590.503906 236.210938 C 590.136719 236.53125 589.726562 236.773438 589.273438 236.941406 C 588.820312 237.113281 588.351562 237.195312 587.867188 237.195312 C 587.667969 237.210938 587.46875 237.210938 587.269531 237.195312 C 535.15625 229.417969 512.632812 174.691406 511.703125 172.355469 C 511.605469 172.109375 511.53125 171.855469 511.480469 171.59375 C 511.433594 171.335938 511.410156 171.070312 511.410156 170.804688 C 511.414062 170.539062 511.445312 170.277344 511.5 170.015625 C 511.550781 169.757812 511.632812 169.503906 511.734375 169.261719 C 511.839844 169.015625 511.96875 168.785156 512.117188 168.566406 C 512.265625 168.34375 512.4375 168.144531 512.625 167.957031 C 512.816406 167.769531 513.019531 167.605469 513.242188 167.460938 C 513.464844 167.316406 513.699219 167.195312 513.945312 167.09375 C 514.191406 166.996094 514.445312 166.921875 514.703125 166.871094 C 514.964844 166.824219 515.226562 166.800781 515.492188 166.804688 C 515.757812 166.804688 516.019531 166.835938 516.28125 166.890625 C 516.539062 166.945312 516.789062 167.023438 517.035156 167.128906 C 517.277344 167.230469 517.507812 167.359375 517.726562 167.507812 C 517.945312 167.660156 518.148438 167.828125 518.335938 168.019531 C 518.519531 168.207031 518.683594 168.414062 518.832031 168.636719 C 518.976562 168.859375 519.097656 169.09375 519.195312 169.339844 C 519.410156 169.859375 540.988281 222.097656 588.457031 229.1875 C 588.714844 229.226562 588.96875 229.289062 589.21875 229.375 C 589.46875 229.464844 589.703125 229.578125 589.929688 229.710938 C 590.15625 229.847656 590.367188 230.003906 590.5625 230.179688 C 590.757812 230.355469 590.9375 230.550781 591.09375 230.761719 C 591.253906 230.972656 591.386719 231.195312 591.5 231.433594 C 591.617188 231.671875 591.707031 231.921875 591.769531 232.175781 C 591.835938 232.429688 591.875 232.691406 591.890625 232.953125 C 591.90625 233.21875 591.894531 233.480469 591.859375 233.742188 Z M 776.960938 116.664062 C 751.714844 134.285156 717.652344 128.15625 717.304688 128.09375 C 717.042969 128.042969 716.777344 128.019531 716.515625 128.023438 C 716.25 128.023438 715.984375 128.054688 715.726562 128.109375 C 715.464844 128.164062 715.214844 128.242188 714.96875 128.347656 C 714.726562 128.449219 714.496094 128.578125 714.277344 128.726562 C 714.058594 128.878906 713.855469 129.046875 713.667969 129.238281 C 713.484375 129.425781 713.316406 129.632812 713.171875 129.855469 C 713.027344 130.078125 712.90625 130.3125 712.804688 130.558594 C 712.707031 130.808594 712.632812 131.0625 712.585938 131.324219 C 712.535156 131.582031 712.511719 131.847656 712.515625 132.113281 C 712.519531 132.378906 712.546875 132.640625 712.601562 132.902344 C 712.65625 133.164062 712.734375 133.414062 712.839844 133.660156 C 712.945312 133.902344 713.070312 134.136719 713.222656 134.355469 C 713.371094 134.574219 713.539062 134.777344 713.730469 134.964844 C 713.917969 135.148438 714.125 135.316406 714.347656 135.460938 C 714.570312 135.605469 714.804688 135.726562 715.050781 135.828125 C 715.296875 135.925781 715.550781 136 715.8125 136.046875 C 721.214844 136.957031 726.65625 137.386719 732.136719 137.335938 C 745.535156 137.335938 764.984375 134.894531 781.578125 123.3125 C 781.808594 123.167969 782.023438 123 782.21875 122.808594 C 782.417969 122.617188 782.59375 122.410156 782.746094 122.1875 C 782.902344 121.960938 783.03125 121.722656 783.136719 121.46875 C 783.246094 121.21875 783.324219 120.957031 783.378906 120.691406 C 783.433594 120.421875 783.460938 120.152344 783.457031 119.878906 C 783.457031 119.605469 783.429688 119.332031 783.375 119.066406 C 783.320312 118.796875 783.238281 118.539062 783.128906 118.289062 C 783.019531 118.035156 782.890625 117.796875 782.734375 117.574219 C 782.578125 117.347656 782.402344 117.144531 782.203125 116.953125 C 782.003906 116.765625 781.792969 116.597656 781.558594 116.453125 C 781.328125 116.308594 781.085938 116.1875 780.828125 116.09375 C 780.574219 115.996094 780.3125 115.925781 780.042969 115.882812 C 779.773438 115.84375 779.5 115.828125 779.226562 115.839844 C 778.957031 115.851562 778.6875 115.890625 778.421875 115.957031 C 778.15625 116.027344 777.902344 116.117188 777.65625 116.238281 C 777.410156 116.355469 777.179688 116.496094 776.960938 116.664062 Z M 883.304688 209.972656 C 878.390625 217.132812 870.398438 224.292969 858.054688 224.292969 C 856.382812 224.28125 854.71875 224.152344 853.0625 223.898438 C 851.804688 223.722656 850.542969 223.703125 849.277344 223.847656 C 848.015625 223.992188 846.789062 224.292969 845.601562 224.75 C 844.417969 225.207031 843.304688 225.804688 842.269531 226.542969 C 841.234375 227.28125 840.304688 228.140625 839.488281 229.113281 C 834.523438 234.910156 828.660156 239.5625 821.894531 243.078125 C 820.179688 243.933594 818.726562 245.109375 817.535156 246.609375 C 815.875 248.773438 813.984375 250.710938 811.863281 252.417969 C 801.53125 260.734375 787.945312 262.265625 779.5 262.265625 L 778.605469 262.265625 C 777.199219 262.269531 775.839844 262.53125 774.53125 263.042969 C 773.21875 263.554688 772.042969 264.285156 771.003906 265.234375 C 761.644531 273.449219 746.800781 276.519531 737.960938 277.65625 C 736.039062 277.929688 734.261719 278.585938 732.625 279.625 C 730.984375 280.664062 729.632812 281.996094 728.566406 283.617188 C 727.289062 285.589844 725.746094 287.320312 723.929688 288.808594 C 718.625 292.878906 711.523438 294.949219 702.773438 294.949219 C 701.753906 294.949219 700.710938 294.949219 699.644531 294.859375 C 697.929688 294.761719 696.253906 294.441406 694.621094 293.890625 C 692.992188 293.335938 691.464844 292.578125 690.039062 291.609375 C 688.613281 290.640625 687.34375 289.5 686.230469 288.1875 C 685.117188 286.871094 684.195312 285.433594 683.472656 283.867188 C 673.996094 285.277344 664.472656 286 654.894531 286.035156 C 621.089844 286.035156 594.226562 276.699219 573.578125 264.554688 C 567.628906 261.074219 560.082031 261.191406 554.722656 265.523438 C 548.792969 270.320312 539.453125 274.597656 524.972656 274.597656 C 516.125 274.460938 507.4375 273.203125 498.914062 270.828125 C 481.417969 266.230469 467.933594 247.558594 459.929688 216.863281 C 445.953125 163.433594 452.417969 91.46875 472.949219 71.613281 C 491.625 53.550781 511.792969 56.550781 525.332031 62.152344 C 526.292969 62.570312 527.28125 62.921875 528.289062 63.199219 C 529.300781 63.480469 530.328125 63.6875 531.367188 63.824219 C 532.40625 63.960938 533.453125 64.023438 534.5 64.011719 C 535.550781 64 536.59375 63.917969 537.628906 63.761719 C 538.667969 63.601562 539.6875 63.371094 540.691406 63.070312 C 541.699219 62.769531 542.675781 62.402344 543.628906 61.960938 C 544.582031 61.523438 545.5 61.019531 546.382812 60.453125 C 547.265625 59.882812 548.105469 59.257812 548.898438 58.570312 C 559.046875 49.636719 569.96875 41.78125 581.667969 35.007812 C 595.183594 27.03125 609.335938 20.425781 624.125 15.191406 L 625.234375 15.003906 C 650.125 14.109375 669.886719 18.199219 685.617188 24.957031 C 689.085938 26.457031 692.714844 27.179688 696.492188 27.113281 C 710.121094 26.882812 741.273438 28.574219 770.101562 45.972656 C 779.035156 51.339844 790.179688 50.902344 799.128906 45.566406 C 807.320312 40.691406 817.882812 36.339844 829.492188 36.242188 C 843.160156 36.074219 855.527344 41.828125 866.511719 53.175781 C 894.128906 81.707031 907.953125 173.878906 883.304688 209.972656 Z M 681.605469 275.859375 C 681.605469 274.195312 681.605469 272.511719 681.605469 270.8125 C 661.339844 270.078125 645.882812 264.421875 635.851562 253.808594 C 633.097656 250.910156 630.789062 247.695312 628.917969 244.164062 C 627.046875 240.628906 625.6875 236.90625 624.839844 233 C 624.386719 230.992188 623.632812 229.105469 622.570312 227.34375 C 621.511719 225.582031 620.203125 224.027344 618.640625 222.6875 C 617.75 221.890625 616.855469 221.042969 615.964844 220.136719 C 601.484375 204.734375 599.984375 179.652344 599.886719 171.078125 C 598.28125 170.46875 596.671875 169.859375 595.144531 169.109375 C 590.761719 166.960938 586.765625 164.242188 583.160156 160.949219 C 579.554688 157.65625 576.480469 153.925781 573.941406 149.75 C 573.058594 148.296875 572.027344 146.964844 570.839844 145.75 C 569.65625 144.53125 568.347656 143.464844 566.921875 142.546875 C 565.496094 141.628906 563.984375 140.882812 562.386719 140.308594 C 560.789062 139.734375 559.148438 139.347656 557.464844 139.144531 C 551.089844 138.445312 544.835938 137.140625 538.710938 135.234375 C 538.21875 135.046875 537.785156 134.777344 537.398438 134.421875 C 537.015625 134.066406 536.710938 133.652344 536.488281 133.175781 C 536.261719 132.703125 536.136719 132.203125 536.105469 131.679688 C 536.074219 131.15625 536.144531 130.644531 536.308594 130.148438 C 536.476562 129.652344 536.730469 129.203125 537.070312 128.804688 C 537.410156 128.40625 537.8125 128.085938 538.277344 127.84375 C 538.742188 127.605469 539.234375 127.457031 539.757812 127.40625 C 540.277344 127.355469 540.789062 127.40625 541.292969 127.554688 C 541.648438 127.671875 577.238281 139.339844 606.300781 123.082031 C 622.972656 113.753906 634.460938 96.957031 640.488281 73.195312 C 633.988281 68.210938 627.933594 62.726562 622.332031 56.746094 C 622.152344 56.546875 621.996094 56.332031 621.863281 56.097656 C 621.726562 55.867188 621.613281 55.625 621.527344 55.375 C 621.4375 55.121094 621.375 54.863281 621.339844 54.597656 C 621.304688 54.332031 621.292969 54.066406 621.308594 53.796875 C 621.324219 53.53125 621.363281 53.265625 621.433594 53.007812 C 621.5 52.746094 621.589844 52.496094 621.707031 52.257812 C 621.824219 52.015625 621.964844 51.789062 622.125 51.574219 C 622.285156 51.359375 622.464844 51.164062 622.664062 50.988281 C 622.867188 50.808594 623.082031 50.652344 623.3125 50.515625 C 623.542969 50.382812 623.78125 50.269531 624.035156 50.179688 C 624.289062 50.09375 624.546875 50.03125 624.8125 49.992188 C 625.074219 49.957031 625.34375 49.945312 625.609375 49.960938 C 625.875 49.976562 626.136719 50.019531 626.398438 50.085938 C 626.65625 50.152344 626.90625 50.246094 627.144531 50.363281 C 627.386719 50.480469 627.613281 50.617188 627.828125 50.78125 C 628.039062 50.941406 628.234375 51.121094 628.414062 51.324219 C 628.824219 51.769531 669.378906 96.117188 713.523438 90.191406 C 714.769531 90.023438 715.972656 89.703125 717.132812 89.226562 C 718.296875 88.75 719.378906 88.136719 720.382812 87.382812 C 721.390625 86.628906 722.285156 85.761719 723.066406 84.777344 C 723.851562 83.796875 724.5 82.730469 725.011719 81.582031 C 725.550781 80.414062 725.933594 79.199219 726.164062 77.9375 C 726.394531 76.671875 726.460938 75.398438 726.367188 74.117188 C 726.269531 72.835938 726.015625 71.589844 725.601562 70.371094 C 725.1875 69.15625 724.628906 68.011719 723.921875 66.941406 C 710.695312 46.910156 684.5 23.652344 634.03125 22.996094 C 628.6875 22.929688 623.539062 23.902344 618.589844 25.914062 C 598.503906 33.96875 546.246094 58.5 525.609375 100.957031 C 525.492188 101.195312 525.351562 101.421875 525.191406 101.632812 C 525.027344 101.84375 524.847656 102.039062 524.648438 102.214844 C 524.449219 102.386719 524.234375 102.542969 524.003906 102.675781 C 523.773438 102.808594 523.53125 102.917969 523.28125 103.003906 C 523.027344 103.089844 522.769531 103.152344 522.507812 103.1875 C 522.246094 103.222656 521.980469 103.230469 521.714844 103.214844 C 521.449219 103.195312 521.1875 103.152344 520.933594 103.085938 C 520.675781 103.015625 520.425781 102.921875 520.1875 102.804688 C 519.949219 102.6875 519.726562 102.546875 519.515625 102.386719 C 519.304688 102.226562 519.109375 102.042969 518.933594 101.84375 C 518.757812 101.644531 518.605469 101.429688 518.472656 101.199219 C 518.339844 100.96875 518.230469 100.726562 518.144531 100.476562 C 518.058594 100.222656 517.996094 99.964844 517.960938 99.703125 C 517.925781 99.4375 517.917969 99.171875 517.933594 98.90625 C 517.949219 98.640625 517.992188 98.378906 518.0625 98.121094 C 518.128906 97.863281 518.222656 97.617188 518.339844 97.378906 C 518.597656 96.839844 518.855469 96.3125 519.132812 95.773438 C 526.699219 80.875 513.996094 63.082031 497.699219 66.644531 C 491.445312 68.023438 484.882812 71.261719 478.53125 77.382812 C 460.449219 94.96875 454.867188 165.574219 467.699219 214.804688 C 474.84375 242.117188 486.625 259.222656 500.921875 262.988281 L 502.28125 263.339844 C 525.054688 269.074219 541.90625 242.683594 527.574219 224.039062 C 524.183594 219.734375 521.136719 215.203125 518.429688 210.4375 C 518.199219 209.964844 518.066406 209.464844 518.03125 208.941406 C 517.996094 208.417969 518.0625 207.90625 518.226562 207.40625 C 518.386719 206.90625 518.640625 206.457031 518.980469 206.058594 C 519.316406 205.65625 519.71875 205.332031 520.183594 205.089844 C 520.648438 204.84375 521.140625 204.695312 521.660156 204.644531 C 522.183594 204.59375 522.695312 204.640625 523.199219 204.789062 C 523.703125 204.9375 524.160156 205.175781 524.570312 205.503906 C 524.980469 205.828125 525.3125 206.222656 525.574219 206.679688 C 526.035156 207.539062 571.621094 291.457031 681.605469 275.859375 Z M 683.390625 237.949219 C 683.4375 237.613281 683.460938 237.277344 683.464844 236.941406 C 683.46875 236.605469 683.453125 236.269531 683.414062 235.933594 C 683.375 235.601562 683.316406 235.269531 683.234375 234.941406 C 683.15625 234.617188 683.054688 234.292969 682.933594 233.980469 C 682.816406 233.664062 682.675781 233.359375 682.515625 233.0625 C 682.359375 232.765625 682.183594 232.480469 681.988281 232.207031 C 681.792969 231.929688 681.582031 231.667969 681.355469 231.421875 C 681.128906 231.171875 680.886719 230.9375 680.632812 230.71875 C 680.375 230.503906 680.105469 230.300781 679.824219 230.117188 C 679.542969 229.933594 679.253906 229.765625 678.949219 229.621094 C 678.648438 229.472656 678.339844 229.34375 678.019531 229.234375 C 677.703125 229.125 677.378906 229.039062 677.050781 228.96875 C 676.71875 228.902344 676.386719 228.855469 676.054688 228.828125 C 675.71875 228.804688 675.382812 228.796875 675.046875 228.8125 C 674.710938 228.828125 674.378906 228.867188 674.046875 228.925781 C 673.714844 228.980469 673.390625 229.0625 673.066406 229.160156 C 666.496094 231.144531 658.074219 232.453125 647.292969 232.453125 L 644.953125 232.453125 C 638.789062 232.34375 634.941406 239.308594 638.503906 244.347656 C 639.507812 245.773438 640.613281 247.117188 641.816406 248.375 C 648.300781 255.132812 657.609375 259.515625 669.558594 261.53125 C 670.304688 261.660156 671.058594 261.707031 671.816406 261.675781 C 672.574219 261.648438 673.320312 261.539062 674.058594 261.351562 C 674.792969 261.160156 675.5 260.898438 676.179688 260.5625 C 676.859375 260.226562 677.5 259.820312 678.09375 259.351562 C 678.691406 258.878906 679.230469 258.351562 679.714844 257.765625 C 680.199219 257.179688 680.617188 256.550781 680.96875 255.878906 C 681.320312 255.203125 681.601562 254.503906 681.804688 253.769531 C 682.011719 253.039062 682.136719 252.292969 682.1875 251.535156 C 682.4375 246.914062 682.828125 242.359375 683.363281 237.949219 Z M 730.996094 236.578125 C 729.976562 226.304688 725.902344 212.640625 712.285156 205.917969 C 710.65625 205.035156 708.917969 204.558594 707.066406 204.484375 C 705.730469 204.476562 704.5 204.839844 703.378906 205.578125 C 695.253906 210.707031 690.3125 232.75 689.761719 265.316406 C 689.980469 265.820312 690.09375 266.347656 690.089844 266.898438 C 690.082031 267.484375 689.957031 268.042969 689.707031 268.574219 C 689.707031 270.988281 689.707031 273.449219 689.707031 275.976562 C 689.714844 276.660156 689.789062 277.339844 689.929688 278.011719 C 690.066406 278.683594 690.265625 279.335938 690.527344 279.96875 C 690.789062 280.605469 691.105469 281.210938 691.480469 281.785156 C 691.855469 282.359375 692.277344 282.890625 692.753906 283.386719 C 693.230469 283.878906 693.746094 284.324219 694.304688 284.722656 C 694.863281 285.117188 695.453125 285.457031 696.078125 285.742188 C 696.699219 286.027344 697.34375 286.253906 698.007812 286.414062 C 698.671875 286.578125 699.347656 286.679688 700.03125 286.714844 C 705.664062 286.984375 713.542969 286.492188 718.957031 282.320312 C 725.144531 277.539062 732.90625 256.242188 730.96875 236.578125 Z M 771.476562 247.847656 C 772.691406 227.523438 767.011719 192.25 754.945312 180.992188 C 752.167969 178.390625 749.300781 177.339844 746.167969 177.734375 C 733.359375 179.398438 730.234375 194.195312 729.546875 203.410156 C 729.414062 205.199219 729.5625 206.960938 729.980469 208.703125 C 730.402344 210.441406 731.078125 212.078125 732.011719 213.605469 C 735.753906 219.746094 738.121094 227.171875 738.976562 235.78125 C 739.5 241.363281 739.425781 246.933594 738.765625 252.5 C 738.707031 253.019531 738.6875 253.539062 738.699219 254.0625 C 738.710938 254.582031 738.753906 255.101562 738.832031 255.617188 C 738.910156 256.132812 739.019531 256.644531 739.164062 257.144531 C 739.308594 257.648438 739.484375 258.136719 739.6875 258.617188 C 739.894531 259.097656 740.132812 259.558594 740.398438 260.007812 C 740.664062 260.457031 740.957031 260.886719 741.277344 261.296875 C 741.601562 261.710938 741.945312 262.097656 742.316406 262.464844 C 742.6875 262.832031 743.082031 263.171875 743.496094 263.488281 C 743.914062 263.800781 744.347656 264.089844 744.796875 264.347656 C 745.25 264.609375 745.714844 264.835938 746.199219 265.039062 C 746.679688 265.238281 747.171875 265.402344 747.675781 265.539062 C 748.179688 265.675781 748.6875 265.777344 749.203125 265.847656 C 749.71875 265.917969 750.238281 265.957031 750.757812 265.957031 C 751.28125 265.960938 751.800781 265.929688 752.316406 265.867188 C 752.832031 265.804688 753.34375 265.707031 753.847656 265.578125 C 754.351562 265.449219 754.847656 265.285156 755.332031 265.09375 C 763.65625 261.878906 770.933594 256.507812 771.453125 247.847656 Z M 817.445312 223.59375 C 819.230469 199.25 805.15625 177.699219 790.386719 167.113281 C 789.765625 166.882812 789.234375 166.523438 788.785156 166.039062 C 782.535156 161.949219 776.660156 160.183594 773.425781 161.5625 C 763.15625 165.976562 766.039062 179.167969 767.414062 183.792969 C 767.679688 184.667969 768.023438 185.515625 768.441406 186.328125 C 777.695312 204.726562 780.425781 233.617188 779.542969 248.328125 L 779.542969 248.390625 C 779.507812 248.753906 779.515625 249.113281 779.558594 249.472656 C 779.601562 249.832031 779.683594 250.183594 779.804688 250.523438 C 779.925781 250.863281 780.082031 251.191406 780.273438 251.496094 C 780.464844 251.804688 780.683594 252.089844 780.9375 252.347656 C 781.1875 252.605469 781.464844 252.835938 781.769531 253.035156 C 782.070312 253.234375 782.390625 253.398438 782.726562 253.527344 C 783.066406 253.65625 783.414062 253.746094 783.769531 253.800781 C 784.128906 253.851562 784.488281 253.867188 784.847656 253.84375 C 791.726562 253.261719 800.273438 251.355469 806.855469 246.039062 C 813.132812 240.957031 816.695312 233.402344 817.417969 223.59375 Z M 839.03125 215.207031 C 839.03125 215.207031 839.03125 215.136719 839.03125 215.101562 C 839.054688 215.0625 839.078125 215.027344 839.105469 214.992188 C 840.699219 211.449219 841.792969 207.753906 842.386719 203.914062 C 842.976562 200.070312 843.046875 196.21875 842.597656 192.359375 C 840.105469 166.71875 823.789062 151.53125 813.425781 147.609375 C 809.246094 146.007812 805.683594 146.046875 803.914062 147.683594 L 803.738281 147.851562 C 803.0625 148.476562 802.453125 149.164062 801.917969 149.910156 C 801.378906 150.65625 800.921875 151.453125 800.542969 152.292969 C 800.164062 153.132812 799.875 154 799.671875 154.898438 C 799.46875 155.796875 799.355469 156.707031 799.335938 157.628906 C 799.316406 158.550781 799.386719 159.464844 799.550781 160.371094 C 799.714844 161.277344 799.96875 162.15625 800.308594 163.011719 C 800.652344 163.867188 801.074219 164.679688 801.578125 165.453125 C 802.082031 166.222656 802.660156 166.933594 803.308594 167.585938 C 816.5 180.734375 827.171875 201.363281 825.492188 224.21875 C 825.292969 226.960938 824.871094 229.671875 824.234375 232.34375 C 827.402344 230.1875 830.242188 227.65625 832.746094 224.75 C 835.25 221.84375 837.335938 218.664062 839.003906 215.207031 Z M 860.707031 58.8125 C 851.332031 49.140625 840.871094 44.40625 829.601562 44.34375 C 824.375 44.433594 819.3125 45.398438 814.417969 47.234375 C 813.683594 47.507812 812.964844 47.820312 812.265625 48.175781 C 811.5625 48.53125 810.886719 48.925781 810.230469 49.355469 C 809.574219 49.789062 808.945312 50.257812 808.34375 50.761719 C 807.742188 51.265625 807.167969 51.804688 806.628906 52.371094 C 806.085938 52.941406 805.578125 53.539062 805.105469 54.167969 C 804.632812 54.796875 804.195312 55.449219 803.796875 56.125 C 803.398438 56.804688 803.039062 57.5 802.71875 58.21875 C 802.398438 58.9375 802.121094 59.671875 801.886719 60.421875 C 801.648438 61.171875 801.457031 61.933594 801.304688 62.707031 C 801.15625 63.476562 801.050781 64.253906 800.988281 65.039062 C 800.929688 65.824219 800.914062 66.609375 800.941406 67.394531 C 800.96875 68.179688 801.042969 68.964844 801.160156 69.742188 C 801.273438 70.519531 801.4375 71.289062 801.640625 72.046875 C 801.84375 72.804688 802.089844 73.550781 802.378906 74.28125 C 802.667969 75.015625 803 75.726562 803.371094 76.421875 C 803.738281 77.113281 804.148438 77.785156 804.59375 78.429688 L 804.726562 78.617188 C 804.878906 78.839844 805.007812 79.070312 805.109375 79.3125 C 805.214844 79.558594 805.292969 79.8125 805.351562 80.070312 C 805.40625 80.332031 805.433594 80.59375 805.4375 80.859375 C 805.441406 81.125 805.417969 81.390625 805.371094 81.652344 C 805.320312 81.910156 805.246094 82.164062 805.148438 82.414062 C 805.050781 82.660156 804.929688 82.894531 804.785156 83.117188 C 804.640625 83.339844 804.476562 83.546875 804.289062 83.738281 C 804.105469 83.925781 803.902344 84.097656 803.683594 84.25 C 803.464844 84.398438 803.234375 84.527344 802.988281 84.632812 C 802.746094 84.734375 802.496094 84.816406 802.234375 84.871094 C 801.976562 84.925781 801.710938 84.957031 801.449219 84.957031 C 801.183594 84.960938 800.917969 84.9375 800.660156 84.890625 C 800.398438 84.84375 800.144531 84.769531 799.898438 84.667969 C 799.652344 84.570312 799.417969 84.449219 799.195312 84.304688 C 798.972656 84.160156 798.765625 83.992188 798.574219 83.808594 C 798.386719 83.621094 798.214844 83.421875 798.066406 83.199219 C 782.375 60.28125 761.199219 48.171875 741.800781 41.84375 C 731.082031 38.355469 722.285156 50.492188 728.816406 59.746094 C 729.46875 60.640625 730.09375 61.589844 730.699219 62.507812 C 731.785156 64.152344 732.644531 65.910156 733.28125 67.773438 C 733.917969 69.640625 734.3125 71.554688 734.460938 73.519531 C 734.609375 75.484375 734.507812 77.4375 734.160156 79.378906 C 733.808594 81.320312 733.222656 83.183594 732.394531 84.972656 C 731.601562 86.746094 730.597656 88.390625 729.382812 89.90625 C 728.167969 91.421875 726.78125 92.761719 725.226562 93.921875 C 723.667969 95.085938 721.992188 96.03125 720.195312 96.761719 C 718.398438 97.496094 716.539062 97.988281 714.613281 98.246094 C 688.714844 101.699219 664.65625 90.191406 647.632812 78.359375 C 644.148438 90.816406 639.183594 101.4375 632.734375 110.21875 C 638.265625 112.144531 648.667969 114.425781 662.019531 111.195312 C 662.277344 111.132812 662.539062 111.097656 662.804688 111.085938 C 663.070312 111.074219 663.332031 111.089844 663.59375 111.128906 C 663.855469 111.171875 664.113281 111.238281 664.359375 111.328125 C 664.609375 111.421875 664.847656 111.535156 665.074219 111.671875 C 665.300781 111.8125 665.511719 111.972656 665.707031 112.152344 C 665.902344 112.332031 666.078125 112.527344 666.234375 112.742188 C 666.390625 112.957031 666.523438 113.183594 666.636719 113.425781 C 666.746094 113.667969 666.835938 113.917969 666.898438 114.175781 C 666.957031 114.433594 666.996094 114.695312 667.007812 114.960938 C 667.015625 115.226562 667.003906 115.492188 666.960938 115.753906 C 666.921875 116.015625 666.855469 116.273438 666.761719 116.519531 C 666.671875 116.769531 666.558594 117.007812 666.417969 117.234375 C 666.28125 117.460938 666.121094 117.675781 665.941406 117.871094 C 665.761719 118.066406 665.566406 118.242188 665.351562 118.398438 C 665.136719 118.554688 664.910156 118.6875 664.667969 118.800781 C 664.429688 118.914062 664.179688 119 663.921875 119.0625 C 658.890625 120.304688 653.785156 120.929688 648.605469 120.941406 C 641.222656 121.007812 634.117188 119.636719 627.289062 116.824219 C 622.347656 122.207031 616.691406 126.679688 610.320312 130.25 C 607.179688 131.988281 603.929688 133.480469 600.566406 134.722656 C 588.507812 139.199219 587.007812 155.933594 598.519531 161.6875 L 598.96875 161.914062 C 616.613281 170.476562 640.941406 167.828125 671.183594 154.019531 C 671.425781 153.910156 671.675781 153.824219 671.933594 153.761719 C 672.191406 153.703125 672.453125 153.667969 672.71875 153.65625 C 672.980469 153.648438 673.246094 153.664062 673.507812 153.707031 C 673.769531 153.75 674.023438 153.816406 674.273438 153.910156 C 674.519531 154.003906 674.757812 154.121094 674.984375 154.261719 C 675.207031 154.398438 675.417969 154.5625 675.613281 154.742188 C 675.804688 154.921875 675.980469 155.121094 676.136719 155.335938 C 676.289062 155.554688 676.421875 155.78125 676.53125 156.023438 C 676.644531 156.265625 676.726562 156.515625 676.789062 156.773438 C 676.851562 157.03125 676.886719 157.296875 676.894531 157.5625 C 676.902344 157.828125 676.886719 158.089844 676.84375 158.351562 C 676.800781 158.613281 676.734375 158.871094 676.640625 159.121094 C 676.546875 159.367188 676.429688 159.605469 676.292969 159.832031 C 676.152344 160.058594 675.992188 160.269531 675.8125 160.460938 C 675.628906 160.65625 675.433594 160.832031 675.21875 160.988281 C 675.003906 161.140625 674.773438 161.273438 674.53125 161.382812 C 654.785156 170.398438 637.226562 174.917969 622.019531 174.917969 C 617.367188 174.929688 612.765625 174.464844 608.210938 173.519531 C 608.59375 182.800781 610.773438 202.703125 622 214.632812 C 627.941406 220.898438 635.773438 224.210938 645.292969 224.363281 C 684.4375 225.085938 685.480469 214.886719 685.480469 214.714844 C 685.9375 212.558594 690.054688 206.867188 693.152344 204.636719 C 693.199219 204.636719 693.25 204.683594 693.304688 204.699219 C 694.835938 202.316406 696.773438 200.332031 699.121094 198.75 C 702.511719 196.609375 708.175781 194.855469 715.910156 198.675781 L 715.972656 198.675781 C 716.289062 198.832031 716.617188 198.949219 716.960938 199.03125 C 717.304688 199.109375 717.652344 199.148438 718.003906 199.148438 C 718.355469 199.148438 718.703125 199.105469 719.042969 199.023438 C 719.386719 198.941406 719.714844 198.824219 720.03125 198.664062 C 720.34375 198.507812 720.636719 198.316406 720.90625 198.089844 C 721.179688 197.863281 721.417969 197.609375 721.632812 197.328125 C 721.84375 197.046875 722.019531 196.746094 722.164062 196.421875 C 722.304688 196.101562 722.410156 195.765625 722.472656 195.417969 C 724.546875 184.484375 730.199219 171.640625 745.183594 169.691406 C 747.605469 169.367188 749.988281 169.550781 752.332031 170.246094 C 752.664062 170.355469 753.007812 170.429688 753.355469 170.472656 C 753.707031 170.515625 754.054688 170.523438 754.40625 170.496094 C 754.757812 170.46875 755.101562 170.40625 755.441406 170.3125 C 755.78125 170.21875 756.105469 170.089844 756.421875 169.929688 C 756.734375 169.769531 757.03125 169.582031 757.308594 169.363281 C 757.585938 169.144531 757.835938 168.902344 758.066406 168.636719 C 758.296875 168.367188 758.496094 168.078125 758.667969 167.773438 C 758.839844 167.464844 758.980469 167.144531 759.089844 166.808594 L 759.199219 166.476562 C 759.269531 166.242188 759.328125 166 759.371094 165.757812 C 759.410156 165.515625 759.4375 165.273438 759.453125 165.027344 C 759.464844 164.78125 759.460938 164.535156 759.441406 164.289062 C 759.421875 164.042969 759.390625 163.796875 759.339844 163.554688 C 759.292969 163.316406 759.226562 163.078125 759.148438 162.84375 C 759.070312 162.609375 758.980469 162.382812 758.875 162.160156 C 758.765625 161.9375 758.648438 161.722656 758.515625 161.515625 C 758.378906 161.308594 758.234375 161.109375 758.078125 160.921875 C 757.921875 160.730469 757.75 160.550781 757.570312 160.382812 C 757.390625 160.214844 757.203125 160.058594 757.003906 159.914062 C 756.804688 159.769531 756.597656 159.640625 756.378906 159.519531 C 756.164062 159.402344 755.941406 159.296875 755.714844 159.207031 C 755.484375 159.113281 755.253906 159.039062 755.015625 158.976562 C 754.777344 158.914062 754.535156 158.867188 754.292969 158.835938 C 754.046875 158.800781 753.804688 158.785156 753.558594 158.785156 C 753.3125 158.78125 753.066406 158.796875 752.820312 158.824219 C 748.765625 159.292969 744.695312 159.523438 740.613281 159.523438 C 733.1875 159.574219 725.84375 158.808594 718.589844 157.222656 C 718.085938 157.078125 717.628906 156.84375 717.214844 156.523438 C 716.800781 156.199219 716.464844 155.8125 716.203125 155.355469 C 715.9375 154.902344 715.769531 154.417969 715.695312 153.898438 C 715.625 153.378906 715.648438 152.863281 715.773438 152.355469 C 715.898438 151.84375 716.117188 151.375 716.421875 150.953125 C 716.730469 150.527344 717.105469 150.171875 717.546875 149.894531 C 717.992188 149.613281 718.46875 149.429688 718.984375 149.335938 C 719.5 149.242188 720.015625 149.25 720.527344 149.355469 C 720.921875 149.445312 760.207031 158.753906 789.296875 136.121094 C 789.503906 135.941406 789.726562 135.789062 789.96875 135.65625 C 790.207031 135.523438 790.457031 135.417969 790.71875 135.335938 C 790.976562 135.257812 791.246094 135.203125 791.515625 135.175781 C 791.789062 135.148438 792.058594 135.148438 792.332031 135.175781 C 792.601562 135.207031 792.871094 135.261719 793.128906 135.34375 C 793.390625 135.425781 793.640625 135.53125 793.878906 135.664062 C 794.117188 135.796875 794.339844 135.953125 794.546875 136.132812 C 794.753906 136.3125 794.941406 136.507812 795.109375 136.722656 C 795.277344 136.941406 795.421875 137.171875 795.542969 137.417969 C 795.664062 137.660156 795.757812 137.917969 795.828125 138.183594 C 795.898438 138.445312 795.941406 138.714844 795.953125 138.988281 C 795.96875 139.261719 795.957031 139.535156 795.917969 139.804688 C 795.875 140.074219 795.808594 140.339844 795.714844 140.597656 C 795.621094 140.855469 795.503906 141.097656 795.363281 141.332031 C 795.21875 141.566406 795.054688 141.78125 794.867188 141.980469 C 794.679688 142.183594 794.476562 142.359375 794.253906 142.519531 C 790.382812 145.523438 786.257812 148.125 781.882812 150.324219 C 781.527344 150.496094 781.253906 150.753906 781.054688 151.09375 C 780.855469 151.4375 780.773438 151.804688 780.800781 152.199219 C 780.828125 152.589844 780.960938 152.945312 781.207031 153.253906 C 781.449219 153.566406 781.757812 153.78125 782.132812 153.902344 L 782.570312 154.027344 C 783.402344 154.277344 784.253906 154.382812 785.125 154.34375 C 785.992188 154.304688 786.832031 154.125 787.640625 153.796875 C 788.445312 153.472656 789.179688 153.023438 789.832031 152.449219 C 790.488281 151.875 791.027344 151.207031 791.457031 150.449219 C 793.371094 147.164062 795.730469 144.246094 798.539062 141.6875 C 802.683594 137.847656 809.195312 137.210938 816.402344 139.984375 C 831.53125 145.757812 848.1875 165.3125 850.742188 191.542969 C 851.207031 196.074219 851.117188 200.589844 850.464844 205.09375 C 849.570312 211 854.277344 216.550781 860.214844 215.984375 C 866.816406 215.367188 872.292969 211.824219 876.738281 205.316406 C 897.59375 174.71875 888.0625 87.078125 860.707031 58.8125 Z M 860.707031 58.8125 " fill-opacity="1" fill-rule="nonzero"/></svg>