<svg xmlns="http://www.w3.org/2000/svg" xmlns:xlink="http://www.w3.org/1999/xlink" width="300" zoomAndPan="magnify" viewBox="0 0 224.87999 225" height="300" preserveAspectRatio="xMidYMid meet" version="1.0"><defs><clipPath id="26f0f7fa0c"><path d="M 84 182 L 113 182 L 113 224.9375 L 84 224.9375 Z M 84 182 " clip-rule="nonzero"/></clipPath><clipPath id="87da1cbee5"><path d="M 75 179 L 103 179 L 103 224.9375 L 75 224.9375 Z M 75 179 " clip-rule="nonzero"/></clipPath><clipPath id="50f0cab6d0"><path d="M 81 0.0585938 L 115 0.0585938 L 115 46 L 81 46 Z M 81 0.0585938 " clip-rule="nonzero"/></clipPath><clipPath id="a14e9cd8b2"><path d="M 112 0.0585938 L 140 0.0585938 L 140 45 L 112 45 Z M 112 0.0585938 " clip-rule="nonzero"/></clipPath><clipPath id="07f862f602"><path d="M 122 0.0585938 L 150 0.0585938 L 150 47 L 122 47 Z M 122 0.0585938 " clip-rule="nonzero"/></clipPath><clipPath id="745abb80a2"><path d="M 181 88 L 224.761719 88 L 224.761719 119 L 181 119 Z M 181 88 " clip-rule="nonzero"/></clipPath><clipPath id="9dcf9adb2a"><path d="M 181 105 L 224.761719 105 L 224.761719 134 L 181 134 Z M 181 105 " clip-rule="nonzero"/></clipPath><clipPath id="d5b3350d2c"><path d="M 124 176 L 161 176 L 161 224.9375 L 124 224.9375 Z M 124 176 " clip-rule="nonzero"/></clipPath><clipPath id="7ab983e4cf"><path d="M 110 181 L 143 181 L 143 224.9375 L 110 224.9375 Z M 110 181 " clip-rule="nonzero"/></clipPath></defs><g clip-path="url(#26f0f7fa0c)"><path stroke-linecap="butt" transform="matrix(-1.03864, -0.134946, 0.134946, -1.03864, 104.962569, 226.325571)" fill="none" stroke-linejoin="miter" d="M 3.99985 34.999831 L 4.000035 10.222807 L 0.359344 10.221949 L 0.35811 4.336256 L 13.781008 4.337349 L 13.778062 10.219824 L 10.137372 10.218966 L 10.137667 34.999688 Z M 3.99985 34.999831 " stroke="#b15cff" stroke-width="1.09349" stroke-opacity="1" stroke-miterlimit="4"/></g><g clip-path="url(#87da1cbee5)"><path stroke-linecap="butt" transform="matrix(-1.012814, -0.266814, 0.266814, -1.012814, 87.482477, 223.663903)" fill="none" stroke-linejoin="miter" d="M 1.07151 4.338044 L 6.999543 4.338388 L 6.997144 35.000794 L 1.072717 34.9995 Z M 1.07151 4.338044 " stroke="#b15cff" stroke-width="1.09349" stroke-opacity="1" stroke-miterlimit="4"/></g><path stroke-linecap="butt" transform="matrix(-0.939382, -0.46319, 0.46319, -0.939382, 74.667422, 220.816743)" fill="none" stroke-linejoin="miter" d="M 1.359893 34.999894 L 1.359997 4.336389 L 10.712165 4.336603 L 13.282035 23.041865 L 15.852762 4.338455 L 25.27499 4.33739 L 25.274887 35.000895 L 19.672274 34.998146 L 19.67317 12.904548 L 16.134551 35.000189 L 10.642 35.001387 L 6.895037 12.90533 L 6.894141 34.998927 Z M 1.359893 34.999894 " stroke="#b15cff" stroke-width="1.09349" stroke-opacity="1" stroke-miterlimit="4"/><path stroke-linecap="butt" transform="matrix(-0.803275, -0.672111, 0.672111, -0.803275, 45.514816, 204.895811)" fill="none" stroke-linejoin="miter" d="M 1.36064 34.999391 L 1.359272 4.339905 L 13.641688 4.338366 L 13.642489 10.255854 L 7.597979 10.255953 L 7.599364 16.226445 L 13.386968 16.227334 L 13.387012 22.004431 L 7.599408 22.003541 L 7.60148 29.038435 L 14.032313 29.040908 L 14.032239 34.998032 Z M 1.36064 34.999391 " stroke="#b15cff" stroke-width="1.09349" stroke-opacity="1" stroke-miterlimit="4"/><path stroke-linecap="butt" transform="matrix(-0.583517, -0.869765, 0.869765, -0.583517, 23.39887, 183.884875)" fill="none" stroke-linejoin="miter" d="M 1.072876 33.536163 C 1.072841 32.130407 1.290743 30.834934 1.726583 29.649745 C 2.166578 28.458361 2.7107 27.386237 3.355852 26.431296 C 3.998926 25.479452 4.848334 24.360636 5.893725 23.076888 C 6.962012 21.745624 7.809381 20.616459 8.43791 19.686295 C 9.069537 18.758209 9.606406 17.690201 10.049538 16.487448 C 10.49267 15.284695 10.71163 13.98095 10.710537 12.583467 C 10.71195 11.744569 10.59281 11.098753 10.354173 10.637747 C 10.117615 10.173643 9.684876 9.941708 9.06423 9.943 C 8.040169 9.943115 7.529607 10.858107 7.529445 12.685899 L 7.528846 16.435613 L 1.072101 16.43332 L 1.001068 14.544291 C 1.001663 12.21378 1.239992 10.298759 1.716057 8.799227 C 2.194199 7.296599 3.025063 6.151869 4.208649 5.365038 C 5.398429 4.582363 7.044274 4.19099 9.143086 4.188839 C 11.710471 4.19116 13.693393 4.910685 15.09495 6.349494 C 16.5027 7.792459 17.205318 9.831251 17.205898 12.467949 C 17.206129 14.16127 16.973053 15.693577 16.508751 17.061773 C 16.049623 18.42895 15.479273 19.627194 14.799778 20.653409 C 14.119263 21.674449 13.222026 22.877946 12.106027 24.25355 C 11.293236 25.230759 10.617309 26.097686 10.08444 26.858487 C 9.549492 27.622385 9.069313 28.405062 8.63665 29.210635 L 16.996695 29.214344 L 16.996364 34.998731 L 1.070676 34.998804 Z M 1.072876 33.536163 " stroke="#b15cff" stroke-width="1.09349" stroke-opacity="1" stroke-miterlimit="4"/><path stroke-linecap="butt" transform="matrix(-0.302238, -1.002814, 1.002814, -0.302238, 6.494013, 154.512769)" fill="none" stroke-linejoin="miter" d="M 7.677987 35.285884 C 5.46459 35.288778 3.81483 34.5072 2.729048 32.95294 C 1.646494 31.387966 1.108305 29.024922 1.108413 25.858083 L 1.107387 12.652739 C 1.105288 9.816335 1.738167 7.677695 2.996389 6.23002 C 4.260334 4.776278 6.138859 4.049211 8.635534 4.049894 C 10.661384 4.048904 12.22946 4.455287 13.341915 5.261901 C 14.46616 6.068172 15.240201 7.248016 15.672256 8.800014 C 16.101816 10.347365 16.317552 12.332764 16.317311 14.763352 L 10.318715 14.762849 L 10.319011 12.008968 C 10.319955 11.269147 10.218511 10.701023 10.015758 10.301025 C 9.811586 9.892808 9.448185 9.689796 8.926632 9.688417 C 7.757417 9.690498 7.174166 10.449581 7.174724 11.972808 L 7.174007 26.825335 C 7.173891 27.756275 7.293382 28.458383 7.531404 28.93523 C 7.769425 29.412078 8.189226 29.64767 8.785085 29.648072 C 9.377372 29.647399 9.795274 29.411088 10.032726 28.933418 C 10.270179 28.455748 10.387886 27.755014 10.388001 26.824074 L 10.387888 22.430152 L 8.751418 22.431638 L 8.750293 17.149285 L 16.244967 17.148838 L 16.247569 35.001739 L 13.779118 34.997877 L 12.741783 32.429861 C 11.650165 34.332859 9.963537 35.289156 7.677987 35.285884 Z M 7.677987 35.285884 " stroke="#b15cff" stroke-width="1.09349" stroke-opacity="1" stroke-miterlimit="4"/><path stroke-linecap="butt" transform="matrix(-0.112775, -1.04128, 1.04128, -0.112775, 0.558865, 133.031241)" fill="none" stroke-linejoin="miter" d="M 1.359887 35.001199 L 1.360909 4.337436 L 13.639021 4.33921 L 13.639781 10.255237 L 7.599787 10.257576 L 7.598633 16.225914 L 13.386984 16.226333 L 13.387771 22.003561 L 7.599419 22.003143 L 7.599161 29.036974 L 14.032499 29.039721 L 14.032148 35.000645 Z M 1.359887 35.001199 " stroke="#b15cff" stroke-width="1.09349" stroke-opacity="1" stroke-miterlimit="4"/><path stroke-linecap="butt" transform="matrix(0.0613664, -1.04557, 1.04557, 0.0613664, -1.172047, 113.951461)" fill="none" stroke-linejoin="miter" d="M 3.999058 34.999666 L 4.001873 10.22235 L 0.359103 10.219463 L 0.357685 4.339083 L 13.78094 4.335807 L 13.778854 10.220129 L 10.136303 10.220965 L 10.13743 35.001786 Z M 3.999058 34.999666 " stroke="#b15cff" stroke-width="1.09349" stroke-opacity="1" stroke-miterlimit="4"/><path stroke-linecap="butt" transform="matrix(0.34105, -0.990287, 0.990287, 0.34105, 2.423602, 84.496811)" fill="none" stroke-linejoin="miter" d="M 8.638279 35.285548 C 5.85359 35.286051 3.841693 34.598341 2.606113 33.221203 C 1.369318 31.840538 0.751576 29.6116 0.749362 26.535603 L 0.750278 23.537419 L 6.782027 23.5389 L 6.779821 27.357998 C 6.780811 28.884204 7.26842 29.647191 8.247388 29.649271 C 8.791099 29.647415 9.170492 29.489142 9.387881 29.169711 C 9.602841 28.843228 9.708339 28.301991 9.710214 27.540044 C 9.708535 26.538703 9.590676 25.715434 9.350684 25.064397 C 9.113004 24.408619 8.809143 23.85847 8.43679 23.418689 C 8.071488 22.97648 7.412421 22.28832 6.457277 21.358951 L 3.816224 18.718409 C 1.771277 16.720652 0.747936 14.505174 0.748631 12.079027 C 0.75098 9.462972 1.35163 7.473169 2.554107 6.108402 C 3.757681 4.735368 5.50944 4.049235 7.817653 4.051101 C 10.578755 4.050831 12.566319 4.782423 13.780346 6.245875 C 14.994373 7.709328 15.602121 10.000876 15.60116 13.113468 L 9.353604 13.115307 L 9.317338 11.005621 C 9.316885 10.603431 9.202845 10.283751 8.978742 10.045366 C 8.751112 9.808195 8.437359 9.687466 8.035169 9.687918 C 7.558693 9.690287 7.201437 9.821213 6.963403 10.080696 C 6.726584 10.343705 6.605108 10.701106 6.607242 11.153996 C 6.607708 12.15181 7.177035 13.186441 8.315226 14.257887 L 11.888744 17.681771 C 12.721259 18.495591 13.408258 19.264856 13.954483 19.991877 C 14.504234 20.717685 14.949132 21.574273 15.277383 22.561758 C 15.610375 23.551555 15.776489 24.721106 15.776938 26.073937 C 15.776256 29.095708 15.224607 31.388145 14.118467 32.952463 C 13.016951 34.5073 11.1871 35.287385 8.638279 35.285548 Z M 8.638279 35.285548 " stroke="#b15cff" stroke-width="1.09349" stroke-opacity="1" stroke-miterlimit="4"/><path stroke-linecap="butt" transform="matrix(0.509727, -0.914965, 0.914965, 0.509727, 9.764667, 64.600241)" fill="none" stroke-linejoin="miter" d="M 4.000017 35.000837 L 4.001937 10.220814 L 0.355535 10.220044 L 0.356563 4.336391 L 13.780073 4.337943 L 13.779044 10.221596 L 10.137716 10.222269 L 10.135796 35.002292 Z M 4.000017 35.000837 " stroke="#b15cff" stroke-width="1.09349" stroke-opacity="1" stroke-miterlimit="4"/><path stroke-linecap="butt" transform="matrix(0.666552, -0.807893, 0.807893, 0.666552, 19.161409, 48.185739)" fill="none" stroke-linejoin="miter" d="M 0.531918 35.000925 L 3.495085 4.338481 L 13.885656 4.338391 L 16.811862 35.001093 L 10.999374 35.000257 L 10.563378 30.041358 L 6.849156 30.040317 L 6.492926 35.000102 Z M 7.320608 25.149861 L 10.10221 25.151577 L 8.752413 9.550262 L 8.463501 9.551709 Z M 7.320608 25.149861 " stroke="#b15cff" stroke-width="1.09349" stroke-opacity="1" stroke-miterlimit="4"/><path stroke-linecap="butt" transform="matrix(0.812609, -0.660794, 0.660794, 0.812609, 33.901861, 31.043725)" fill="none" stroke-linejoin="miter" d="M 1.360042 4.340164 L 10.782264 4.339657 C 12.279849 4.336467 13.439171 4.678319 14.256794 5.357612 C 15.08437 6.030577 15.638296 6.980948 15.923817 8.208186 C 16.209338 9.435423 16.351803 10.998193 16.349399 12.904635 C 16.350683 14.641022 16.124895 16.000479 15.671495 16.977758 C 15.217014 17.944544 14.433392 18.624451 13.319546 19.006987 C 14.245915 19.197864 14.91962 19.663984 15.329627 20.401184 C 15.750127 21.137302 15.959395 22.139093 15.959245 23.398417 L 15.889938 34.999144 L 9.89327 35.00195 L 9.892905 23.008074 C 9.891628 22.146574 9.723604 21.596535 9.386481 21.360851 C 9.056958 21.121733 8.44806 21.001541 7.565573 21.004981 L 7.565125 34.997927 L 1.358782 34.998477 Z M 9.064236 15.686076 C 9.925736 15.684798 10.355415 14.760335 10.355084 12.904547 C 10.353426 12.090808 10.31749 11.48474 10.239137 11.084533 C 10.170737 10.677997 10.041318 10.399703 9.847986 10.247297 C 9.662254 10.091457 9.391462 10.01066 9.030906 10.010694 L 7.602068 10.012103 L 7.598131 15.686022 Z M 9.064236 15.686076 " stroke="#b15cff" stroke-width="1.09349" stroke-opacity="1" stroke-miterlimit="4"/><path stroke-linecap="butt" transform="matrix(0.917733, -0.504726, 0.504726, 0.917733, 51.19011, 17.630714)" fill="none" stroke-linejoin="miter" d="M 4.001652 34.998731 L 3.999627 10.221044 L 0.355734 10.221779 L 0.357726 4.336258 L 13.781356 4.338245 L 13.781161 10.220499 L 10.137268 10.221234 L 10.134228 35.000392 Z M 4.001652 34.998731 " stroke="#b15cff" stroke-width="1.09349" stroke-opacity="1" stroke-miterlimit="4"/><path stroke-linecap="butt" transform="matrix(0.988694, -0.345641, 0.345641, 0.988694, 67.58926, 8.941348)" fill="none" stroke-linejoin="miter" d="M 1.360352 34.998772 L 1.359818 4.339443 L 13.639847 4.337816 L 13.640933 10.256674 L 7.600627 10.254812 L 7.599795 16.224361 L 13.387703 16.224907 L 13.386098 22.004543 L 7.601711 22.005228 L 7.600736 29.037525 L 14.032663 29.038014 L 14.030772 34.999291 Z M 1.360352 34.998772 " stroke="#b15cff" stroke-width="1.09349" stroke-opacity="1" stroke-miterlimit="4"/><g clip-path="url(#50f0cab6d0)"><path stroke-linecap="butt" transform="matrix(1.035637, -0.156326, 0.156326, 1.035637, 86.194988, 2.703604)" fill="none" stroke-linejoin="miter" d="M 1.35956 4.338686 L 9.81264 4.336001 C 12.003684 4.338583 13.647192 4.94499 14.738918 6.158351 C 15.834888 7.368582 16.397725 9.16218 16.418939 11.545408 L 16.488819 25.900231 C 16.51184 28.921172 15.991713 31.192511 14.920504 32.716824 C 13.85354 34.238006 12.078936 34.999845 9.604627 34.999767 L 1.359386 34.999878 Z M 8.602188 29.57166 C 9.722516 29.571037 10.284386 29.022182 10.282999 27.931914 L 10.283261 12.112892 C 10.285003 11.426681 10.230523 10.913032 10.120377 10.568257 C 10.014475 10.22035 9.815891 9.986696 9.527756 9.871538 C 9.240733 9.749004 8.804459 9.690694 8.208982 9.68756 L 7.529591 9.69062 L 7.531472 29.568456 Z M 8.602188 29.57166 " stroke="#b15cff" stroke-width="1.09349" stroke-opacity="1" stroke-miterlimit="4"/></g><g clip-path="url(#a14e9cd8b2)"><path stroke-linecap="butt" transform="matrix(1.038555, 0.135595, -0.135595, 1.038555, 119.497458, 0.053356)" fill="none" stroke-linejoin="miter" d="M 4.000388 35.00009 L 3.999884 10.22114 L 0.359194 10.222557 L 0.357981 4.336382 L 13.778144 4.336968 L 13.778874 10.219444 L 10.138183 10.22086 L 10.134989 35.000293 Z M 4.000388 35.00009 " stroke="#b15cff" stroke-width="1.09349" stroke-opacity="1" stroke-miterlimit="4"/></g><g clip-path="url(#07f862f602)"><path stroke-linecap="butt" transform="matrix(1.012648, 0.267447, -0.267447, 1.012648, 136.975816, 2.725948)" fill="none" stroke-linejoin="miter" d="M 1.073244 4.338396 L 6.998623 4.339594 L 6.999053 34.998593 L 1.071021 35.001953 Z M 1.073244 4.338396 " stroke="#b15cff" stroke-width="1.09349" stroke-opacity="1" stroke-miterlimit="4"/></g><path stroke-linecap="butt" transform="matrix(0.939092, 0.463777, -0.463777, 0.939092, 149.782629, 5.581113)" fill="none" stroke-linejoin="miter" d="M 1.35962 34.998114 L 1.358896 4.33804 L 10.712713 4.335755 L 13.282587 23.041018 L 15.854962 4.337739 L 25.277147 4.339127 L 25.274528 35.000851 L 19.671914 35.001603 L 19.67069 12.906398 L 16.13089 34.999168 L 10.641685 35.002147 L 6.895945 12.905172 L 6.893825 35.002029 Z M 1.35962 34.998114 " stroke="#b15cff" stroke-width="1.09349" stroke-opacity="1" stroke-miterlimit="4"/><path stroke-linecap="butt" transform="matrix(0.802855, 0.672612, -0.672612, 0.802855, 178.93927, 21.520256)" fill="none" stroke-linejoin="miter" d="M 1.359093 35.001055 L 1.360051 4.338177 L 13.639141 4.336614 L 13.64078 10.256495 L 7.601989 10.25558 L 7.60185 16.225606 L 13.386594 16.225275 L 13.387389 22.004766 L 7.600249 22.002238 L 7.598603 29.039059 L 14.031832 29.040375 L 14.03262 34.999892 Z M 1.359093 35.001055 " stroke="#b15cff" stroke-width="1.09349" stroke-opacity="1" stroke-miterlimit="4"/><path stroke-linecap="butt" transform="matrix(0.582973, 0.870129, -0.870129, 0.582973, 201.037387, 42.545001)" fill="none" stroke-linejoin="miter" d="M 1.070545 33.536415 C 1.071708 32.127561 1.291899 30.834028 1.726998 29.648566 C 2.166249 28.456908 2.709701 27.384444 3.355279 26.434274 C 3.999834 25.47893 4.846467 24.362683 5.891056 23.078282 C 6.961609 21.748426 7.810348 20.615633 8.438296 19.685077 C 9.069342 18.756596 9.608643 17.69033 10.051023 16.487299 C 10.493403 15.284269 10.709473 13.983487 10.709582 12.582906 C 10.71357 11.746083 10.590928 11.098266 10.355102 10.639485 C 10.115155 10.173453 9.687446 9.940766 9.063702 9.94037 C 8.04274 9.9432 7.529651 10.856436 7.528555 12.687326 L 7.530299 16.437039 L 1.072532 16.433607 L 1.000318 14.544622 C 1.002555 12.216187 1.239688 10.301017 1.716891 8.79809 C 2.194095 7.295163 3.024243 6.149915 4.20836 5.367519 C 5.399727 4.581002 7.045327 4.1886 9.142062 4.188237 C 11.709447 4.188953 13.695917 4.909315 15.096296 6.350347 C 16.50185 7.790356 17.203665 9.831807 17.205893 12.468504 C 17.204083 14.159748 16.971965 15.692201 16.506442 17.063785 C 16.050244 18.42815 15.477544 19.624675 14.801789 20.65339 C 14.119837 21.677954 13.222329 22.876837 12.10719 24.253138 C 11.291911 25.228778 10.619625 26.098204 10.084132 26.857261 C 9.549662 27.621494 9.067896 28.407569 8.635737 29.213412 L 16.995782 29.211897 L 16.99699 34.999383 L 1.072358 35.001133 Z M 1.070545 33.536415 " stroke="#b15cff" stroke-width="1.09349" stroke-opacity="1" stroke-miterlimit="4"/><path stroke-linecap="butt" transform="matrix(0.301612, 1.003002, -1.003002, 0.301612, 217.916622, 71.927661)" fill="none" stroke-linejoin="miter" d="M 7.679714 35.287132 C 5.463821 35.286763 3.812499 34.509788 2.72682 32.952634 C 1.646861 31.389411 1.108268 29.023132 1.106398 25.856294 L 1.107837 12.654175 C 1.107537 9.818846 1.736582 7.675166 2.997471 6.227778 C 4.259433 4.776819 6.137503 4.048578 8.63775 4.048775 C 10.658953 4.049017 12.227283 4.45442 13.343814 5.261413 C 14.463917 6.069479 15.242266 7.249913 15.671719 8.800567 C 16.102246 10.347649 16.315651 12.331839 16.316929 14.762428 L 10.319408 14.762101 L 10.317983 12.00822 C 10.318464 11.268398 10.216666 10.700338 10.013662 10.300466 C 9.812807 9.893451 9.449279 9.690666 8.924154 9.688539 C 7.756015 9.687779 7.172163 10.450798 7.173674 11.974025 L 7.175093 26.824401 C 7.171988 27.754267 7.291917 28.4563 7.530237 28.932999 C 7.768556 29.409698 8.18743 29.648599 8.78686 29.649703 C 9.379147 29.648659 9.79333 29.411014 10.030484 28.933195 C 10.271209 28.456451 10.388479 27.755644 10.388012 26.824704 L 10.388725 22.431857 L 8.749758 22.429719 L 8.752477 17.149516 L 16.245001 17.15153 L 16.244471 35.00013 L 13.77959 34.998884 L 12.741725 32.427945 C 11.650221 34.335197 9.961694 35.287901 7.679714 35.287132 Z M 7.679714 35.287132 " stroke="#b15cff" stroke-width="1.09349" stroke-opacity="1" stroke-miterlimit="4"/><g clip-path="url(#745abb80a2)"><path stroke-linecap="butt" transform="matrix(0.112124, 1.041351, -1.041351, 0.112124, 223.850306, 93.412907)" fill="none" stroke-linejoin="miter" d="M 1.360315 35.000837 L 1.360718 4.339077 L 13.642137 4.337287 L 13.638777 10.256221 L 7.599585 10.254918 L 7.60176 16.226964 L 13.386004 16.227074 L 13.386692 22.003901 L 7.59874 22.003391 L 7.599169 29.036821 L 14.032108 29.039258 L 14.031773 34.99978 Z M 1.360315 35.000837 " stroke="#b15cff" stroke-width="1.09349" stroke-opacity="1" stroke-miterlimit="4"/></g><g clip-path="url(#9dcf9adb2a)"><path stroke-linecap="butt" transform="matrix(-0.0620197, 1.045532, -1.045532, -0.0620197, 225.561838, 112.493747)" fill="none" stroke-linejoin="miter" d="M 3.998861 35.001407 L 4.000865 10.219489 L 0.358316 10.222601 L 0.356726 4.338279 L 13.780638 4.337786 L 13.778505 10.222329 L 10.135735 10.221717 L 10.137233 34.999692 Z M 3.998861 35.001407 " stroke="#b15cff" stroke-width="1.09349" stroke-opacity="1" stroke-miterlimit="4"/></g><path stroke-linecap="butt" transform="matrix(-0.341668, 0.990074, -0.990074, -0.341668, 221.940261, 141.946164)" fill="none" stroke-linejoin="miter" d="M 8.637938 35.288457 C 5.852033 35.287175 3.843232 34.599506 2.606792 33.22314 C 1.367918 31.839723 0.748784 29.611171 0.749389 26.537485 L 0.748432 23.5393 L 6.780181 23.537013 L 6.780361 27.356112 C 6.778779 28.883533 7.268081 29.649741 8.245834 29.647684 C 8.79076 29.649013 9.17358 29.489287 9.387244 29.170937 C 9.601999 28.84432 9.710685 28.3018 9.708559 27.541069 C 9.709779 26.538512 9.591406 25.715316 9.351008 25.06443 C 9.112918 24.408801 8.808713 23.858841 8.434868 23.415768 C 8.06929 22.973787 7.41101 22.289565 6.458811 21.359576 L 3.819634 18.719468 C 1.772222 16.719463 0.748714 14.508151 0.750202 12.077262 C 0.750917 9.461206 1.350323 7.471028 2.553163 6.109035 C 3.755879 4.73525 5.511951 4.050331 7.820165 4.050754 C 10.57774 4.049976 12.565762 4.780326 13.778394 6.247761 C 14.993335 7.710455 15.602515 10.001623 15.599973 13.115432 L 9.349986 13.114123 L 9.317144 11.00677 C 9.31644 10.60458 9.2022 10.284971 8.977948 10.046726 C 8.75017 9.809698 8.436342 9.689164 8.037678 9.688651 C 7.559986 9.687792 7.202813 9.818942 6.962632 10.083316 C 6.72476 10.342947 6.607033 10.699207 6.605925 11.153312 C 6.607014 12.151126 7.176988 13.185401 8.315848 14.256136 L 11.889196 17.682528 C 12.718693 18.497044 13.406173 19.26588 13.952852 19.99256 C 14.506582 20.716807 14.94849 21.574334 15.277358 22.561614 C 15.610968 23.551203 15.774287 24.721866 15.775582 26.074696 C 15.776788 29.096467 15.223047 31.390466 14.120193 32.950732 C 13.016123 34.507474 11.18676 35.288702 8.637938 35.288457 Z M 8.637938 35.288457 " stroke="#b15cff" stroke-width="1.09349" stroke-opacity="1" stroke-miterlimit="4"/><path stroke-linecap="butt" transform="matrix(-0.510299, 0.914646, -0.914646, -0.510299, 214.594285, 161.838131)" fill="none" stroke-linejoin="miter" d="M 4.001043 35.000957 L 4.000885 10.221998 L 0.35774 10.22169 L 0.358349 4.33622 L 13.778978 4.339532 L 13.779809 10.219928 L 10.136664 10.21962 L 10.136823 34.998578 Z M 4.001043 35.000957 " stroke="#b15cff" stroke-width="1.09349" stroke-opacity="1" stroke-miterlimit="4"/><path stroke-linecap="butt" transform="matrix(-0.667057, 0.807477, -0.807477, -0.667057, 205.182778, 178.246756)" fill="none" stroke-linejoin="miter" d="M 0.530984 35.000612 L 3.495994 4.338325 L 13.886062 4.336993 L 16.812799 34.998734 L 11.000311 35.00153 L 10.564092 30.040529 L 6.849871 30.041809 L 6.494365 34.99894 Z M 7.323518 25.15156 L 10.09987 25.151038 L 8.750826 9.55157 L 8.462415 9.547947 Z M 7.323518 25.15156 " stroke="#b15cff" stroke-width="1.09349" stroke-opacity="1" stroke-miterlimit="4"/><path stroke-linecap="butt" transform="matrix(-0.813022, 0.660286, -0.660286, -0.813022, 190.436053, 195.379567)" fill="none" stroke-linejoin="miter" d="M 1.360471 4.339203 L 10.783235 4.338055 C 12.281362 4.339176 13.438001 4.677952 14.258944 5.359085 C 15.084046 6.029181 15.64146 6.981558 15.924853 8.206265 C 16.211141 9.433324 16.352231 10.9989 16.351018 12.905343 C 16.351035 14.644624 16.125552 15.998975 15.669868 16.974186 C 15.216536 17.946502 14.432794 18.621653 13.316836 19.00778 C 14.248571 19.197534 14.917321 19.663778 15.333034 20.400177 C 15.751643 21.138927 15.958642 22.138236 15.959278 23.397559 L 15.889622 35.001767 L 9.891869 34.997827 L 9.892152 23.005761 C 9.893231 22.146613 9.724864 21.596679 9.387594 21.361206 C 9.055027 21.119943 8.448948 21.002483 7.56592 21.001228 L 7.564265 35.000505 L 1.360275 35.002037 Z M 9.064154 15.683738 C 9.923302 15.684817 10.354755 14.757191 10.353809 12.90665 C 10.353993 12.090016 10.317679 11.483971 10.239076 11.083812 C 10.170422 10.67732 10.040829 10.399106 9.847402 10.246821 C 9.661572 10.091097 9.39073 10.01047 9.030174 10.010729 L 7.601337 10.01303 L 7.600945 15.686951 Z M 9.064154 15.683738 " stroke="#b15cff" stroke-width="1.09349" stroke-opacity="1" stroke-miterlimit="4"/><path stroke-linecap="butt" transform="matrix(-0.918048, 0.504153, -0.504153, -0.918048, 173.139504, 208.781754)" fill="none" stroke-linejoin="miter" d="M 4.001973 34.999673 L 4.001132 10.222635 L 0.355766 10.220583 L 0.35735 4.336857 L 13.780657 4.338789 L 13.779073 10.222516 L 10.136977 10.222259 L 10.137818 34.999296 Z M 4.001973 34.999673 " stroke="#b15cff" stroke-width="1.09349" stroke-opacity="1" stroke-miterlimit="4"/><g clip-path="url(#d5b3350d2c)"><path stroke-linecap="butt" transform="matrix(-0.988909, 0.345023, -0.345023, -0.988909, 156.742385, 217.460876)" fill="none" stroke-linejoin="miter" d="M 1.360617 35.002109 L 1.358697 4.337135 L 13.639788 4.336106 L 13.639823 10.257255 L 7.600745 10.255646 L 7.598893 16.227488 L 13.3868 16.224417 L 13.388806 22.004053 L 7.602128 22.003602 L 7.600796 29.038192 L 14.031495 29.038183 L 14.033329 34.999461 Z M 1.360617 35.002109 " stroke="#b15cff" stroke-width="1.09349" stroke-opacity="1" stroke-miterlimit="4"/></g><g clip-path="url(#7ab983e4cf)"><path stroke-linecap="butt" transform="matrix(-1.035735, 0.155679, -0.155679, -1.035735, 138.132704, 223.687008)" fill="none" stroke-linejoin="miter" d="M 1.358176 4.337207 L 9.813832 4.337172 C 12.004878 4.338385 13.645075 4.94321 14.737005 6.159577 C 15.837419 7.369677 16.397688 9.162369 16.420392 11.545583 L 16.491864 25.899252 C 16.51253 28.923311 15.990134 31.19442 14.920432 32.715714 C 13.854418 34.237562 12.080292 35.00051 9.605982 35.001978 L 1.358164 34.99931 Z M 8.600707 29.57081 C 9.724722 29.570042 10.285695 29.024524 10.284181 27.930568 L 10.285624 12.113212 C 10.283249 11.426447 10.228448 10.912832 10.118086 10.568125 C 10.015656 10.220839 9.816925 9.987309 9.52503 9.871776 C 9.241619 9.749977 8.802175 9.687696 8.20983 9.689177 L 7.530995 9.688973 L 7.529988 29.568275 Z M 8.600707 29.57081 " stroke="#b15cff" stroke-width="1.09349" stroke-opacity="1" stroke-miterlimit="4"/></g></svg>